<svg width="51" height="51" viewBox="0 0 51 51" fill="none" xmlns="http://www.w3.org/2000/svg">
<path fill-rule="evenodd" clip-rule="evenodd" d="M49.7653 25.2632C49.7653 32.0443 47.0042 38.1959 42.5478 42.632C38.1117 47.0478 32.0108 49.7683 25.2592 49.7683C18.5097 49.7683 12.4088 47.0478 7.98285 42.632C3.52645 38.1959 0.76532 32.0443 0.76532 25.2632C0.76532 18.4416 3.54676 12.2697 8.05391 7.84372C12.4697 3.46854 18.5401 0.768311 25.2592 0.768311C31.9804 0.768311 38.0508 3.46854 42.4767 7.84372C46.9737 12.2697 49.7653 18.4416 49.7653 25.2632Z" fill="#7ADB00" fill-opacity="0.1"/>
<path fill-rule="evenodd" clip-rule="evenodd" d="M49.7653 25.1358C49.7653 31.9521 46.9898 38.1358 42.5102 42.5949C38.051 47.0337 31.9184 49.7684 25.1316 49.7684C18.3469 49.7684 12.2143 47.0337 7.7653 42.5949C3.2857 38.1358 0.510193 31.9521 0.510193 25.1358C0.510193 18.2786 3.30611 12.0745 7.83672 7.62555C12.2755 3.22759 18.3775 0.513306 25.1316 0.513306C31.8877 0.513306 37.9898 3.22759 42.4388 7.62555C46.9592 12.0745 49.7653 18.2786 49.7653 25.1358Z" stroke="#7ADB00"/>
<path fill-rule="evenodd" clip-rule="evenodd" d="M38.7959 25.1388C38.7959 38.7409 32.6806 49.7674 25.1357 49.7674C17.5908 49.7674 11.4755 38.7409 11.4755 25.1388C11.4755 11.5368 17.5908 0.510254 25.1357 0.510254C32.6806 0.510254 38.7959 11.5368 38.7959 25.1388Z" stroke="#7ADB00"/>
<path fill-rule="evenodd" clip-rule="evenodd" d="M42.4391 7.62543C40.8972 9.57441 39.0197 11.2479 36.8779 12.5642C33.4891 14.6662 29.4585 15.8805 25.1319 15.8805C20.8064 15.8805 16.785 14.6662 13.3972 12.5642C11.2544 11.2479 9.37785 9.57441 7.83704 7.62543C12.2748 3.22747 18.3779 0.513184 25.1319 0.513184C31.8881 0.513184 37.9901 3.22747 42.4391 7.62543Z" stroke="#7ADB00"/>
<path fill-rule="evenodd" clip-rule="evenodd" d="M42.5099 42.5947C38.0507 47.0335 31.9181 49.7682 25.1324 49.7682C18.3466 49.7682 12.215 47.0335 7.76501 42.5947C9.30583 40.6151 11.2038 38.9213 13.3579 37.5845C16.7558 35.4723 20.7956 34.2478 25.1324 34.2478C29.4793 34.2478 33.5201 35.4723 36.9191 37.5845C39.0711 38.9315 40.9691 40.6254 42.5099 42.5947Z" stroke="#7ADB00"/>
<path d="M0.509705 25.1357H11.4791H25.1332H38.7964H49.7658" stroke="#7ADB00"/>
<path d="M25.1331 0.513428V15.8808V25.1359V34.2481V49.7685" stroke="#7ADB00"/>
</svg>
