<svg width="108" height="107" viewBox="0 0 108 107" fill="none" xmlns="http://www.w3.org/2000/svg">
<mask id="mask0_0_535" style="mask-type:alpha" maskUnits="userSpaceOnUse" x="0" y="0" width="108" height="107">
<path fill-rule="evenodd" clip-rule="evenodd" d="M0 53.4999C0 83.0473 24.1768 107 53.9997 107C83.8232 107 108 83.0473 108 53.4999C108 23.9527 83.8232 0 53.9997 0C24.1768 0 0 23.9527 0 53.4999Z" fill="white"/>
</mask>
<g mask="url(#mask0_0_535)">
<path fill-rule="evenodd" clip-rule="evenodd" d="M124 52C124 89.5553 93.3315 120 55.5 120C17.6685 120 -13 89.5553 -13 52C-13 14.4447 17.6685 -16 55.5 -16C93.3315 -16 124 14.4447 124 52Z" fill="#E4E5F7"/>
<path fill-rule="evenodd" clip-rule="evenodd" d="M33.9008 65C32.2489 62.3845 24.1694 55.3924 25.0698 45.2357C25.323 42.3776 26.0994 33.6198 33.0241 27.0728C34.5217 25.6567 38.3147 22.1668 44.353 21.1819C51.8888 19.9529 60.5028 25.3546 60.5028 25.3546C60.5028 25.3546 62.491 27.1856 62.9131 27.5638C65.2556 29.6614 67.6991 30.3005 68.9389 31C73.8696 33.7803 73.034 44.9873 72.7959 48.1812C72.2171 55.9415 66.3592 61.0185 64.0131 64.8719C65.0856 62.27 69.7597 58.2025 69.1803 51.8628C68.8579 48.3361 68.1173 40.2371 62.1899 36.3996C57.8943 33.6187 53.0468 34.4824 49.1736 35.1724C39.8013 36.8426 33.3708 42.5323 30.1314 45.9722C29.2222 48.4391 31.7984 52.0924 32.2134 57.3911C32.458 60.5115 33.1904 63.0964 33.9008 65Z" fill="#262C7C"/>
<path fill-rule="evenodd" clip-rule="evenodd" d="M35.0057 33.9823C34.8572 33.7437 37.6061 31.2484 41.5208 29.3229C45.028 27.5979 47.7254 27.1891 47.6524 26.7343C47.5861 26.3212 45.2798 26.1695 43.0538 26.6049C39.9344 27.2152 38.0865 28.7603 37.9439 28.5464C37.7981 28.3272 39.5314 26.4017 42.1595 25.1814C44.833 23.9396 47.2676 23.9694 49.3132 24.0164C51.2844 24.0618 54.3833 24.3771 58 25.8284C56.1071 25.9992 53.33 26.366 50.0796 27.252C41.035 29.7172 35.2165 34.321 35.0057 33.9823Z" fill="#8591FF"/>
<path fill-rule="evenodd" clip-rule="evenodd" d="M56 75.1221C54.6247 76.0899 52.8435 77.1653 50.6648 78.0913C48.1258 79.1696 45.8156 79.7132 44 80L44.4518 71H55.6769L56 75.1221Z" fill="#9195CB"/>
<path fill-rule="evenodd" clip-rule="evenodd" d="M57 84H44L44.1959 80.0109C46.0283 79.7163 48.3603 79.1579 50.9225 78.0501C53.1216 77.0989 54.9194 75.9942 56.3074 75L57 84Z" fill="#E4E5F7"/>
<path fill-rule="evenodd" clip-rule="evenodd" d="M29.3947 57C26.8614 56.3421 25 54.1574 25 51.5627C25 48.7657 27.164 46.4443 30 46" fill="#9195CB"/>
<path fill-rule="evenodd" clip-rule="evenodd" d="M70.3359 54C72.4833 53.1592 74 51.1031 74 48.7045C74 45.5542 71.3875 43 68.165 43C68.1087 43 68.056 43 68 43.0058" fill="#9195CB"/>
<path fill-rule="evenodd" clip-rule="evenodd" d="M70 52.5C70 63.8219 60.8219 73 49.5 73C38.1781 73 29 63.8219 29 52.5C29 41.1781 38.1781 32 49.5 32C60.8219 32 70 41.1781 70 52.5Z" fill="#BEC1E0"/>
<path d="M36 40.9831C36.7818 41.0304 38.499 41.0364 40.3637 40.1865C42.5496 39.1898 43.6258 37.6147 44 37" stroke="#262C7C" stroke-width="1.4" stroke-linecap="round"/>
<path d="M54 36C54.5927 36.8513 55.6501 38.1476 57.3104 39.235C59.192 40.4677 60.9714 40.8582 62 41" stroke="#262C7C" stroke-width="1.4" stroke-linecap="round"/>
<path d="M54 45C54.2954 45.2201 55.0715 45.74 56.2974 45.9304C57.5943 46.1317 58.6241 45.8446 59 45.7235" stroke="#262C7C" stroke-width="1.4" stroke-linecap="round"/>
<path d="M39 46.8524C39.2906 46.9517 40.1681 47.2 41.1334 46.6847C42.5168 45.9461 42.942 44.2462 43 44" stroke="#262C7C" stroke-width="1.4" stroke-linecap="round"/>
<path d="M47.3047 45.0622C45.1422 50.5208 44.8513 55.1758 46.5571 56.6257C47.6231 57.5319 48.7998 57.6506 48.7998 57.6506C50.1139 57.783 51.1312 57.1629 51.4908 56.9187" stroke="#262C7C" stroke-width="1.4" stroke-linecap="round"/>
<mask id="mask1_0_535" style="mask-type:alpha" maskUnits="userSpaceOnUse" x="0" y="0" width="108" height="107">
<path fill-rule="evenodd" clip-rule="evenodd" d="M0.290741 53.5433C0.290741 83.0624 24.3786 106.992 54.0918 106.992C83.8056 106.992 107.893 83.0624 107.893 53.5433C107.893 24.0244 83.8056 0.0947266 54.0918 0.0947266C24.3786 0.0947266 0.290741 24.0244 0.290741 53.5433Z" fill="white"/>
</mask>
<g mask="url(#mask1_0_535)">
<path fill-rule="evenodd" clip-rule="evenodd" d="M88.9746 106.992H16.4054C17.5295 97.7452 21.57 92.9214 23.6064 90.8955C26.0665 88.4485 28.7209 86.978 33.5765 84.2913C36.8724 82.467 39.877 81.0462 42.3931 79.9586C44.2323 82.1103 46.9779 83.4727 50.0443 83.4727C53.3049 83.4727 56.2038 81.932 58.0431 79.5406C60.5883 79.9908 64.6228 80.8971 69.3048 82.7769C75.1168 85.1128 79.0631 86.6973 82.6003 90.4832C86.9794 95.1638 88.4655 103.122 88.9746 106.992Z" fill="#262C7C"/>
</g>
<path d="M42.2686 85.6425C43.6197 86.2938 46.7415 87.5837 50.8953 87.3825C55.5114 87.1588 58.7094 85.2238 59.9262 84.3995" stroke="#1B1464" stroke-width="8" stroke-linecap="round"/>
<path d="M41 65C42.0751 64.3808 45.1513 62.7897 49.3545 63.0232C52.5683 63.2017 54.9001 64.3617 56 65" stroke="#262C7C" stroke-width="1.4" stroke-linecap="round"/>
<path fill-rule="evenodd" clip-rule="evenodd" d="M98 57.7683C98 60.1088 95.9813 62 93.4998 62C91.0181 62 89 60.1088 89 57.7683C89 56.3466 89.7524 55.0878 90.8953 54.3258V34H96.1044V54.3258C97.2476 55.0878 98 56.3466 98 57.7683Z" fill="#FFD8E9"/>
<path fill-rule="evenodd" clip-rule="evenodd" d="M98 57.6463C98 60.054 95.9816 62 93.5002 62C91.0184 62 89 60.054 89 57.6463C89 56.1834 89.7524 54.8883 90.8953 54.1047V32H96.1047V54.1047C97.2476 54.8883 98 56.1834 98 57.6463Z" stroke="#EB0065" stroke-width="1.4" stroke-linecap="round" stroke-linejoin="round"/>
<path d="M91 53H93" stroke="#EB0065" stroke-width="1.4" stroke-linecap="round" stroke-linejoin="round"/>
<path d="M91 45H93" stroke="#EB0065" stroke-width="1.4" stroke-linecap="round" stroke-linejoin="round"/>
<path d="M91.5551 47.5672H93.9232" stroke="#EB0065" stroke-width="1.4" stroke-linecap="round" stroke-linejoin="round"/>
<path d="M91.5551 50.4521H93.9232" stroke="#EB0065" stroke-width="1.4" stroke-linecap="round" stroke-linejoin="round"/>
<path d="M16.3296 15.6412C12.5129 18.1498 11.5454 20.3833 11.4086 22.0069C11.3112 23.1632 11.6676 23.6273 13.1556 27.8723C15.1021 33.4249 15.0965 34.3537 14.9517 35.1127C14.7364 36.2411 13.97 38.2741 10.6212 40.3551" stroke="#6468A1" stroke-width="1.4" stroke-linecap="round"/>
<path d="M23.8747 11.7281C20.1944 14.2368 19.2611 16.4702 19.1295 18.0939C19.0355 19.2502 19.3792 19.7146 20.8141 23.9593C22.6911 29.5119 22.6857 30.4407 22.5461 31.2C22.3384 32.3284 21.5994 34.3611 18.3702 36.4424" stroke="#6468A1" stroke-width="1.4" stroke-linecap="round"/>
<path d="M80.4264 9.42737C84.1068 11.9105 85.0397 14.1212 85.1716 15.7283C85.2656 16.8728 84.9219 17.3322 83.4871 21.5337C81.61 27.0301 81.6151 27.9494 81.755 28.7007C81.9624 29.8176 82.7018 31.8299 85.931 33.8897" stroke="#6468A1" stroke-width="1.4" stroke-linecap="round"/>
<path d="M73.7496 16.4679C77.5662 18.951 78.5338 21.1617 78.6705 22.7688C78.768 23.9134 78.4115 24.3727 76.9236 28.5745C74.977 34.0706 74.9823 34.9899 75.1274 35.7412C75.3424 36.8581 76.1092 38.8704 79.4577 40.9302" stroke="#6468A1" stroke-width="1.4" stroke-linecap="round"/>
</g>
</svg>
