<svg width="51" height="52" viewBox="0 0 51 52" fill="none" xmlns="http://www.w3.org/2000/svg">
<path fill-rule="evenodd" clip-rule="evenodd" d="M50.0971 25.4099C49.7407 24.5966 49.0933 24.3677 48.4275 24.6565C48.0327 24.8278 47.6894 24.9645 47.6894 24.9645C47.0742 25.221 46.4038 25.5374 45.7256 25.5374H45.5298C44.8486 25.5374 44.291 25.0144 44.2265 24.337C44.0522 22.4892 43.6044 20.6767 42.9002 18.9618C42.6498 18.352 42.8787 17.6516 43.4501 17.3221L43.695 17.18C44.2826 16.8413 45.0222 16.7799 45.6826 16.6946C45.6826 16.6946 46.0482 16.6409 46.4752 16.5917C47.1971 16.5095 47.6426 15.9865 47.545 15.1049C47.5059 14.7516 47.3822 14.3945 47.1964 14.0735C47.0105 13.7517 46.7632 13.466 46.4775 13.2555C45.7617 12.7302 45.0874 12.8546 44.6543 13.4383C44.3985 13.7839 44.1689 14.0742 44.1689 14.0742C43.7649 14.6034 43.3425 15.2132 42.7542 15.5526L42.5899 15.6479C41.9993 15.9881 41.2536 15.813 40.8596 15.2577C39.8051 13.7716 38.5195 12.4261 37.0211 11.2749C36.4966 10.8724 36.3445 10.1497 36.674 9.57835L36.8184 9.33028C37.1571 8.742 37.7669 8.3196 38.2968 7.91563C38.2968 7.91563 38.5863 7.686 38.9319 7.43025C39.5156 6.99787 39.6408 6.32203 39.1147 5.60779C38.9043 5.32132 38.6186 5.07403 38.2968 4.88817C37.9758 4.70308 37.6186 4.57867 37.2654 4.54027C36.3837 4.44196 35.8607 4.88817 35.7777 5.60932C35.7294 6.03633 35.6764 6.4019 35.6764 6.4019C35.5903 7.06315 35.5289 7.80196 35.1902 8.39025L35.0904 8.56228C34.7502 9.15288 34.0175 9.37406 33.3985 9.0899C31.6782 8.29809 29.8887 7.78737 28.0862 7.54622C27.4303 7.45867 26.9373 6.91032 26.9373 6.24984V5.97028C26.9373 5.29137 27.2537 4.62091 27.5102 4.00574C27.5102 4.00574 27.6469 3.66244 27.8182 3.26769C28.1077 2.60184 27.8773 1.95364 27.0648 1.59806C26.7399 1.45521 26.369 1.38379 25.9973 1.38379C25.6263 1.38379 25.2546 1.45521 24.9297 1.59806C24.1172 1.95364 23.8876 2.60184 24.1763 3.26769C24.3484 3.66244 24.4843 4.00574 24.4843 4.00574C24.7408 4.62091 25.0572 5.29137 25.0572 5.97028V6.16536C25.0572 6.84657 24.535 7.40414 23.8568 7.46788C22.0098 7.64299 20.1966 8.08996 18.4824 8.79499C17.8726 9.04536 17.1722 8.81649 16.8419 8.2451L16.7006 8.00011C16.3612 7.41182 16.2997 6.67377 16.2145 6.01252C16.2145 6.01252 16.1607 5.64696 16.1123 5.21918C16.0302 4.49803 15.5071 4.05182 14.6247 4.15012C14.2722 4.18929 13.9151 4.31294 13.5933 4.4988C13.2723 4.68388 12.9866 4.93118 12.7754 5.21764C12.2501 5.93265 12.3752 6.60849 12.9589 7.04011C13.3045 7.29662 13.5941 7.52548 13.5941 7.52548C14.1232 7.93022 14.733 8.35262 15.0725 8.94014L15.1685 9.10526C15.5087 9.69585 15.3328 10.4408 14.7775 10.8356C13.2922 11.89 11.9459 13.1757 10.7947 14.674C10.393 15.1978 9.66958 15.3506 9.09819 15.0204L8.85012 14.8768C8.26184 14.5373 7.8402 13.9283 7.43547 13.3984C7.43547 13.3984 7.20584 13.1088 6.95009 12.7632C6.51848 12.1796 5.84264 12.0544 5.12763 12.5805C4.84116 12.7909 4.59387 13.0766 4.40878 13.3976C4.22369 13.7194 4.09928 14.0765 4.06011 14.4298C3.96257 15.3115 4.40801 15.8345 5.12917 15.9167C5.55694 15.9658 5.92251 16.0188 5.92251 16.0188C6.58376 16.1048 7.32257 16.1655 7.91009 16.5049L8.08289 16.6048C8.67272 16.945 8.89467 17.6777 8.60897 18.2967C7.81793 20.017 7.30721 21.8064 7.06683 23.6089C6.97851 24.264 6.43092 24.7571 5.76968 24.7571H5.49012C4.81121 24.7571 4.14075 24.4407 3.52558 24.1842C3.52558 24.1842 3.18229 24.0482 2.78753 23.877C2.12168 23.5874 1.47425 23.8171 1.1179 24.6296C0.975053 24.9552 0.903629 25.3262 0.903629 25.6979C0.903629 26.0688 0.975053 26.4398 1.1179 26.7654C1.47425 27.578 2.12168 27.8076 2.78753 27.5181C3.18229 27.3468 3.52558 27.2109 3.52558 27.2109C4.14075 26.9543 4.81121 26.6379 5.49012 26.6379H5.68597C6.36641 26.6379 6.92398 27.1602 6.98772 27.8375C7.1636 29.6854 7.61057 31.4978 8.31483 33.2128C8.56596 33.8226 8.33633 34.523 7.76494 34.8532L7.52072 34.9945C6.93243 35.334 6.19361 35.3947 5.53313 35.4807C5.53313 35.4807 5.1668 35.5344 4.73902 35.5828C4.01787 35.6658 3.57243 36.188 3.66997 37.0704C3.7099 37.423 3.83355 37.7801 4.01864 38.1011C4.20449 38.4229 4.45102 38.7086 4.73748 38.919C5.45249 39.4451 6.12833 39.3199 6.56072 38.7362C6.81646 38.3906 7.04532 38.1011 7.04532 38.1011C7.45006 37.5712 7.87246 36.9622 8.45998 36.6227L8.62587 36.5275C9.21646 36.1865 9.96065 36.3616 10.3554 36.9176C11.4099 38.4029 12.6955 39.7492 14.1946 40.8997C14.7184 41.3021 14.8705 42.0248 14.5402 42.5962L14.3974 42.845C14.0572 43.4326 13.4481 43.855 12.919 44.2589C12.919 44.2589 12.6287 44.4886 12.2831 44.7443C11.6994 45.1767 11.575 45.8525 12.1003 46.5675C12.3107 46.8532 12.5964 47.1005 12.9182 47.2864C13.24 47.4722 13.5971 47.5959 13.9496 47.6343C14.8321 47.7326 15.3543 47.2864 15.4365 46.5652C15.4856 46.1382 15.5394 45.7726 15.5394 45.7726C15.6247 45.1114 15.6853 44.3726 16.0255 43.7851L16.1254 43.6123C16.4656 43.0224 17.1975 42.8005 17.8165 43.0854C19.5368 43.8772 21.3263 44.3872 23.1295 44.6283C23.7839 44.7159 24.2777 45.2642 24.2777 45.9255V46.205C24.2777 46.8839 23.9613 47.5544 23.7048 48.1696C23.7048 48.1696 23.5681 48.5129 23.3968 48.9076C23.1073 49.5735 23.3369 50.2209 24.1502 50.5773C24.4759 50.7201 24.8468 50.7908 25.217 50.7908C25.5887 50.7908 25.9596 50.7201 26.2853 50.5773C27.0986 50.2209 27.3282 49.5735 27.0387 48.9076C26.8666 48.5129 26.7307 48.1696 26.7307 48.1696C26.4742 47.5544 26.1578 46.8839 26.1578 46.205V46.0092C26.1578 45.3287 26.6808 44.7704 27.3582 44.7067C29.2052 44.5316 31.0177 44.0846 32.7326 43.3796C33.3432 43.1292 34.0436 43.3588 34.3731 43.9295L34.5144 44.1752C34.8538 44.7627 34.9145 45.5015 35.0005 46.162C35.0005 46.162 35.0543 46.5284 35.1034 46.9554C35.1856 47.6765 35.7079 48.1227 36.5903 48.0244C36.9428 47.986 37.2999 47.8616 37.6217 47.6765C37.9427 47.4907 38.2284 47.2434 38.4389 46.9569C38.9649 46.2419 38.8405 45.5668 38.2568 45.1344C37.9112 44.8787 37.6209 44.6491 37.6209 44.6491C37.091 44.2451 36.482 43.8227 36.1425 43.2344L36.0473 43.0693C35.7063 42.4795 35.8814 41.7337 36.4375 41.3398C37.9228 40.2853 39.2691 38.9997 40.4195 37.5005C40.822 36.9767 41.5447 36.8247 42.116 37.1542L42.3649 37.2978C42.9524 37.6372 43.3748 38.2463 43.7795 38.7762C43.7795 38.7762 44.0084 39.0665 44.2649 39.4113C44.6973 39.9958 45.3724 40.1202 46.0874 39.5941C46.3731 39.3837 46.6211 39.098 46.8062 38.7769C46.9921 38.4551 47.1157 38.098 47.1549 37.7455C47.2532 36.8631 46.807 36.3408 46.0851 36.2579C45.6588 36.2095 45.2925 36.1558 45.2925 36.1558C44.632 36.0705 43.8932 36.0091 43.3049 35.6696L43.1329 35.5698C42.5423 35.2295 42.3203 34.4969 42.6053 33.8786C43.3971 32.1583 43.907 30.3681 44.1482 28.5656C44.2357 27.9105 44.7848 27.4175 45.4453 27.4175H45.7256C46.4038 27.4175 47.0742 27.7339 47.6894 27.9904C47.6894 27.9904 48.0327 28.1271 48.4275 28.2983C49.0933 28.5871 49.7407 28.3575 50.0971 27.5449C50.2399 27.2193 50.3106 26.8484 50.3106 26.4774C50.3106 26.1065 50.2399 25.7348 50.0971 25.4099Z" fill="#EBFFF5" stroke="#00DB75"/>
<path fill-rule="evenodd" clip-rule="evenodd" d="M23.5178 18.2512C23.5178 20.5591 21.6462 22.4307 19.3384 22.4307C17.0306 22.4307 15.1589 20.5591 15.1589 18.2512C15.1589 15.9426 17.0306 14.0718 19.3384 14.0718C21.6462 14.0718 23.5178 15.9426 23.5178 18.2512Z" stroke="#00DB75"/>
<path fill-rule="evenodd" clip-rule="evenodd" d="M35.2734 35.6287C35.2734 37.1693 34.0246 38.4181 32.484 38.4181C30.9434 38.4181 29.6939 37.1693 29.6939 35.6287C29.6939 34.0881 30.9434 32.8394 32.484 32.8394C34.0246 32.8394 35.2734 34.0881 35.2734 35.6287Z" stroke="#00DB75"/>
<path fill-rule="evenodd" clip-rule="evenodd" d="M17.9484 29.4521C17.9484 30.9927 16.6996 32.2415 15.159 32.2415C13.6184 32.2415 12.3696 30.9927 12.3696 29.4521C12.3696 27.9115 13.6184 26.6627 15.159 26.6627C16.6996 26.6627 17.9484 27.9115 17.9484 29.4521Z" stroke="#00DB75"/>
<path fill-rule="evenodd" clip-rule="evenodd" d="M29.0971 29.4521C29.0971 30.9927 27.8476 32.2415 26.307 32.2415C24.7664 32.2415 23.5176 30.9927 23.5176 29.4521C23.5176 27.9115 24.7664 26.6627 26.307 26.6627C27.8476 26.6627 29.0971 27.9115 29.0971 29.4521Z" stroke="#00DB75"/>
<path fill-rule="evenodd" clip-rule="evenodd" d="M39.5664 27.7117C39.5664 28.8968 38.6056 29.8583 37.4198 29.8583C36.234 29.8583 35.2732 28.8968 35.2732 27.7117C35.2732 26.5267 36.234 25.5652 37.4198 25.5652C38.6056 25.5652 39.5664 26.5267 39.5664 27.7117Z" stroke="#00DB75"/>
<path fill-rule="evenodd" clip-rule="evenodd" d="M26.6064 38.6438C26.6064 39.5124 25.9021 40.2166 25.0335 40.2166C24.1649 40.2166 23.4606 39.5124 23.4606 38.6438C23.4606 37.7751 24.1649 37.0717 25.0335 37.0717C25.9021 37.0717 26.6064 37.7751 26.6064 38.6438Z" stroke="#00DB75"/>
<path fill-rule="evenodd" clip-rule="evenodd" d="M33.3684 18.9C33.3684 19.7686 32.6641 20.4728 31.7955 20.4728C30.9269 20.4728 30.2234 19.7686 30.2234 18.9C30.2234 18.0314 30.9269 17.3279 31.7955 17.3279C32.6641 17.3279 33.3684 18.0314 33.3684 18.9Z" stroke="#00DB75"/>
</svg>
