<svg width="52" height="52" viewBox="0 0 52 52" fill="none" xmlns="http://www.w3.org/2000/svg">
<path fill-rule="evenodd" clip-rule="evenodd" d="M50.417 25.4099C50.0607 24.5966 49.4133 24.3677 48.7474 24.6565C48.3527 24.8278 48.0094 24.9645 48.0094 24.9645C47.3942 25.221 46.7237 25.5374 46.0456 25.5374H45.8497C45.1685 25.5374 44.611 25.0144 44.5464 24.337C44.3721 22.4892 43.9244 20.6767 43.2201 18.9618C42.9697 18.352 43.1986 17.6516 43.77 17.3221L44.015 17.18C44.6025 16.8413 45.3421 16.7799 46.0026 16.6946C46.0026 16.6946 46.3681 16.6409 46.7952 16.5917C47.5171 16.5095 47.9625 15.9865 47.865 15.1049C47.8258 14.7516 47.7022 14.3945 47.5163 14.0735C47.3304 13.7517 47.0831 13.466 46.7975 13.2555C46.0817 12.7302 45.4074 12.8546 44.9742 13.4383C44.7185 13.7839 44.4888 14.0742 44.4888 14.0742C44.0849 14.6034 43.6625 15.2132 43.0742 15.5526L42.9098 15.6479C42.3192 15.9881 41.5735 15.813 41.1795 15.2577C40.1251 13.7716 38.8394 12.4261 37.3411 11.2749C36.8165 10.8724 36.6645 10.1497 36.9939 9.57835L37.1383 9.33028C37.477 8.742 38.0868 8.3196 38.6167 7.91563C38.6167 7.91563 38.9063 7.686 39.2519 7.43025C39.8355 6.99787 39.9607 6.32203 39.4346 5.60779C39.2242 5.32132 38.9385 5.07403 38.6167 4.88817C38.2957 4.70308 37.9386 4.57867 37.5853 4.54027C36.7036 4.44196 36.1806 4.88817 36.0977 5.60932C36.0493 6.03633 35.9963 6.4019 35.9963 6.4019C35.9103 7.06315 35.8489 7.80196 35.5102 8.39025L35.4103 8.56228C35.0701 9.15288 34.3374 9.37406 33.7184 9.0899C31.9981 8.29809 30.2087 7.78737 28.4062 7.54622C27.7503 7.45867 27.2572 6.91032 27.2572 6.24984V5.97028C27.2572 5.29137 27.5737 4.62091 27.8302 4.00574C27.8302 4.00574 27.9669 3.66244 28.1381 3.26769C28.4277 2.60184 28.1973 1.95364 27.3847 1.59806C27.0599 1.45521 26.6889 1.38379 26.3172 1.38379C25.9463 1.38379 25.5745 1.45521 25.2497 1.59806C24.4371 1.95364 24.2075 2.60184 24.4963 3.26769C24.6683 3.66244 24.8042 4.00574 24.8042 4.00574C25.0608 4.62091 25.3772 5.29137 25.3772 5.97028V6.16536C25.3772 6.84657 24.8549 7.40414 24.1768 7.46788C22.3297 7.64299 20.5165 8.08996 18.8023 8.79499C18.1925 9.04536 17.4921 8.81649 17.1619 8.2451L17.0206 8.00011C16.6811 7.41182 16.6197 6.67377 16.5344 6.01252C16.5344 6.01252 16.4807 5.64696 16.4323 5.21918C16.3501 4.49803 15.8271 4.05182 14.9447 4.15012C14.5921 4.18929 14.235 4.31294 13.9132 4.4988C13.5922 4.68388 13.3065 4.93118 13.0953 5.21764C12.57 5.93265 12.6952 6.60849 13.2789 7.04011C13.6245 7.29662 13.914 7.52548 13.914 7.52548C14.4432 7.93022 15.0529 8.35262 15.3924 8.94014L15.4884 9.10526C15.8286 9.69585 15.6528 10.4408 15.0975 10.8356C13.6122 11.89 12.2659 13.1757 11.1146 14.674C10.713 15.1978 9.98952 15.3506 9.41813 15.0204L9.17007 14.8768C8.58178 14.5373 8.16015 13.9283 7.75541 13.3984C7.75541 13.3984 7.52578 13.1088 7.27004 12.7632C6.83842 12.1796 6.16258 12.0544 5.44757 12.5805C5.16111 12.7909 4.91381 13.0766 4.72872 13.3976C4.54364 13.7194 4.41922 14.0765 4.38005 14.4298C4.28252 15.3115 4.72796 15.8345 5.44911 15.9167C5.87688 15.9658 6.24245 16.0188 6.24245 16.0188C6.9037 16.1048 7.64252 16.1655 8.23004 16.5049L8.40284 16.6048C8.99266 16.945 9.21461 17.6777 8.92892 18.2967C8.13788 20.017 7.62716 21.8064 7.38677 23.6089C7.29845 24.264 6.75087 24.7571 6.08962 24.7571H5.81007C5.13116 24.7571 4.46069 24.4407 3.84552 24.1842C3.84552 24.1842 3.50223 24.0482 3.10748 23.877C2.44162 23.5874 1.7942 23.8171 1.43784 24.6296C1.295 24.9552 1.22357 25.3262 1.22357 25.6979C1.22357 26.0688 1.295 26.4398 1.43784 26.7654C1.7942 27.578 2.44162 27.8076 3.10748 27.5181C3.50223 27.3468 3.84552 27.2109 3.84552 27.2109C4.46069 26.9543 5.13116 26.6379 5.81007 26.6379H6.00591C6.68636 26.6379 7.24392 27.1602 7.30767 27.8375C7.48354 29.6854 7.93052 31.4978 8.63477 33.2128C8.88591 33.8226 8.65628 34.523 8.08488 34.8532L7.84066 34.9945C7.25237 35.334 6.51356 35.3947 5.85308 35.4807C5.85308 35.4807 5.48674 35.5344 5.05896 35.5828C4.33781 35.6658 3.89237 36.188 3.98991 37.0704C4.02984 37.423 4.15349 37.7801 4.33858 38.1011C4.52444 38.4229 4.77096 38.7086 5.05743 38.919C5.77244 39.4451 6.44828 39.3199 6.88066 38.7362C7.1364 38.3906 7.36527 38.1011 7.36527 38.1011C7.77 37.5712 8.1924 36.9622 8.77992 36.6227L8.94581 36.5275C9.5364 36.1865 10.2806 36.3616 10.6753 36.9176C11.7298 38.4029 13.0154 39.7492 14.5146 40.8997C15.0384 41.3021 15.1904 42.0248 14.8602 42.5962L14.7173 42.845C14.3771 43.4326 13.7681 43.855 13.2389 44.2589C13.2389 44.2589 12.9486 44.4886 12.603 44.7443C12.0193 45.1767 11.8949 45.8525 12.4202 46.5675C12.6307 46.8532 12.9164 47.1005 13.2382 47.2864C13.56 47.4722 13.9171 47.5959 14.2696 47.6343C15.152 47.7326 15.6743 47.2864 15.7564 46.5652C15.8056 46.1382 15.8593 45.7726 15.8593 45.7726C15.9446 45.1114 16.0053 44.3726 16.3455 43.7851L16.4453 43.6123C16.7856 43.0224 17.5175 42.8005 18.1365 43.0854C19.8568 43.8772 21.6462 44.3872 23.4495 44.6283C24.1038 44.7159 24.5977 45.2642 24.5977 45.9255V46.205C24.5977 46.8839 24.2812 47.5544 24.0247 48.1696C24.0247 48.1696 23.888 48.5129 23.7168 48.9076C23.4272 49.5735 23.6568 50.2209 24.4702 50.5773C24.7958 50.7201 25.1667 50.7908 25.5369 50.7908C25.9086 50.7908 26.2796 50.7201 26.6052 50.5773C27.4185 50.2209 27.6481 49.5735 27.3586 48.9076C27.1866 48.5129 27.0506 48.1696 27.0506 48.1696C26.7941 47.5544 26.4777 46.8839 26.4777 46.205V46.0092C26.4777 45.3287 27.0007 44.7704 27.6781 44.7067C29.5251 44.5316 31.3376 44.0846 33.0526 43.3796C33.6631 43.1292 34.3635 43.3588 34.693 43.9295L34.8343 44.1752C35.1738 44.7627 35.2344 45.5015 35.3205 46.162C35.3205 46.162 35.3742 46.5284 35.4234 46.9554C35.5056 47.6765 36.0278 48.1227 36.9102 48.0244C37.2627 47.986 37.6199 47.8616 37.9417 47.6765C38.2627 47.4907 38.5484 47.2434 38.7588 46.9569C39.2849 46.2419 39.1605 45.5668 38.5768 45.1344C38.2312 44.8787 37.9409 44.6491 37.9409 44.6491C37.411 44.2451 36.8019 43.8227 36.4625 43.2344L36.3672 43.0693C36.0263 42.4795 36.2014 41.7337 36.7574 41.3398C38.2427 40.2853 39.589 38.9997 40.7395 37.5005C41.1419 36.9767 41.8646 36.8247 42.436 37.1542L42.6848 37.2978C43.2723 37.6372 43.6947 38.2463 44.0995 38.7762C44.0995 38.7762 44.3283 39.0665 44.5848 39.4113C45.0172 39.9958 45.6923 40.1202 46.4073 39.5941C46.693 39.3837 46.9411 39.098 47.1262 38.7769C47.312 38.4551 47.4357 38.098 47.4748 37.7455C47.5731 36.8631 47.1269 36.3408 46.405 36.2579C45.9788 36.2095 45.6124 36.1558 45.6124 36.1558C44.952 36.0705 44.2131 36.0091 43.6248 35.6696L43.4528 35.5698C42.8622 35.2295 42.6403 34.4969 42.9252 33.8786C43.717 32.1583 44.227 30.3681 44.4681 28.5656C44.5557 27.9105 45.1048 27.4175 45.7653 27.4175H46.0456C46.7237 27.4175 47.3942 27.7339 48.0094 27.9904C48.0094 27.9904 48.3527 28.1271 48.7474 28.2983C49.4133 28.5871 50.0607 28.3575 50.417 27.5449C50.5599 27.2193 50.6305 26.8484 50.6305 26.4774C50.6305 26.1065 50.5599 25.7348 50.417 25.4099Z" fill="#F2F3F7" stroke="#3D3F52"/>
<path fill-rule="evenodd" clip-rule="evenodd" d="M23.8378 18.2512C23.8378 20.5591 21.9662 22.4307 19.6583 22.4307C17.3505 22.4307 15.4789 20.5591 15.4789 18.2512C15.4789 15.9426 17.3505 14.0718 19.6583 14.0718C21.9662 14.0718 23.8378 15.9426 23.8378 18.2512Z" stroke="#3D3F52" stroke-width="0.96"/>
<path fill-rule="evenodd" clip-rule="evenodd" d="M35.5933 35.6287C35.5933 37.1693 34.3446 38.4181 32.804 38.4181C31.2634 38.4181 30.0138 37.1693 30.0138 35.6287C30.0138 34.0881 31.2634 32.8394 32.804 32.8394C34.3446 32.8394 35.5933 34.0881 35.5933 35.6287Z" stroke="#3D3F52" stroke-width="0.96"/>
<path fill-rule="evenodd" clip-rule="evenodd" d="M18.2683 29.4521C18.2683 30.9927 17.0196 32.2415 15.479 32.2415C13.9383 32.2415 12.6896 30.9927 12.6896 29.4521C12.6896 27.9115 13.9383 26.6627 15.479 26.6627C17.0196 26.6627 18.2683 27.9115 18.2683 29.4521Z" stroke="#3D3F52" stroke-width="0.96"/>
<path fill-rule="evenodd" clip-rule="evenodd" d="M29.4171 29.4521C29.4171 30.9927 28.1676 32.2415 26.627 32.2415C25.0864 32.2415 23.8376 30.9927 23.8376 29.4521C23.8376 27.9115 25.0864 26.6627 26.627 26.6627C28.1676 26.6627 29.4171 27.9115 29.4171 29.4521Z" stroke="#3D3F52" stroke-width="0.96"/>
<path fill-rule="evenodd" clip-rule="evenodd" d="M39.8863 27.7117C39.8863 28.8968 38.9256 29.8583 37.7398 29.8583C36.554 29.8583 35.5932 28.8968 35.5932 27.7117C35.5932 26.5267 36.554 25.5652 37.7398 25.5652C38.9256 25.5652 39.8863 26.5267 39.8863 27.7117Z" stroke="#3D3F52" stroke-width="0.96"/>
<path fill-rule="evenodd" clip-rule="evenodd" d="M26.9263 38.6438C26.9263 39.5124 26.2221 40.2166 25.3534 40.2166C24.4848 40.2166 23.7806 39.5124 23.7806 38.6438C23.7806 37.7751 24.4848 37.0717 25.3534 37.0717C26.2221 37.0717 26.9263 37.7751 26.9263 38.6438Z" stroke="#3D3F52" stroke-width="0.96"/>
<path fill-rule="evenodd" clip-rule="evenodd" d="M33.6883 18.9C33.6883 19.7686 32.9841 20.4728 32.1155 20.4728C31.2469 20.4728 30.5434 19.7686 30.5434 18.9C30.5434 18.0314 31.2469 17.3279 32.1155 17.3279C32.9841 17.3279 33.6883 18.0314 33.6883 18.9Z" stroke="#3D3F52" stroke-width="0.96"/>
</svg>
