<svg width="1370" height="935" viewBox="0 0 1370 935" fill="none" xmlns="http://www.w3.org/2000/svg">
<g opacity="0.857073" filter="url(#filter0_d_0_6)">
<g opacity="0.15">
<path fill-rule="evenodd" clip-rule="evenodd" d="M110.537 168.659C110.537 172.477 107.44 175.573 103.622 175.573C99.8038 175.573 96.7073 172.477 96.7073 168.659C96.7073 164.839 99.8038 161.744 103.622 161.744C107.44 161.744 110.537 164.839 110.537 168.659Z" stroke="white"/>
<path fill-rule="evenodd" clip-rule="evenodd" d="M129.305 196.811C129.305 199.266 127.315 201.256 124.86 201.256C122.406 201.256 120.415 199.266 120.415 196.811C120.415 194.356 122.406 192.366 124.86 192.366C127.315 192.366 129.305 194.356 129.305 196.811Z" stroke="white"/>
<path fill-rule="evenodd" clip-rule="evenodd" d="M101.646 186.933C101.646 189.388 99.6563 191.378 97.2012 191.378C94.7461 191.378 92.7561 189.388 92.7561 186.933C92.7561 184.478 94.7461 182.488 97.2012 182.488C99.6563 182.488 101.646 184.478 101.646 186.933Z" stroke="white"/>
<path fill-rule="evenodd" clip-rule="evenodd" d="M119.427 186.933C119.427 189.388 117.436 191.378 114.981 191.378C112.526 191.378 110.537 189.388 110.537 186.933C110.537 184.478 112.526 182.488 114.981 182.488C117.436 182.488 119.427 184.478 119.427 186.933Z" stroke="white"/>
<path fill-rule="evenodd" clip-rule="evenodd" d="M136.22 183.97C136.22 185.878 134.672 187.427 132.762 187.427C130.852 187.427 129.305 185.878 129.305 183.97C129.305 182.061 130.852 180.512 132.762 180.512C134.672 180.512 136.22 182.061 136.22 183.97Z" stroke="white"/>
<path fill-rule="evenodd" clip-rule="evenodd" d="M115.476 202.737C115.476 204.101 114.37 205.207 113.006 205.207C111.642 205.207 110.537 204.101 110.537 202.737C110.537 201.373 111.642 200.268 113.006 200.268C114.37 200.268 115.476 201.373 115.476 202.737Z" stroke="white"/>
<path fill-rule="evenodd" clip-rule="evenodd" d="M126.341 170.14C126.341 171.504 125.235 172.61 123.871 172.61C122.507 172.61 121.402 171.504 121.402 170.14C121.402 168.776 122.507 167.671 123.871 167.671C125.235 167.671 126.341 168.776 126.341 170.14Z" stroke="white"/>
<path fill-rule="evenodd" clip-rule="evenodd" d="M153.65 180.389C153.066 179.056 152.004 178.681 150.913 179.154C150.266 179.435 149.703 179.659 149.703 179.659C148.694 180.08 147.595 180.598 146.483 180.598H146.162C145.045 180.598 144.131 179.741 144.025 178.631C143.74 175.601 143.006 172.63 141.851 169.818C141.441 168.818 141.816 167.67 142.753 167.13L143.154 166.897C144.117 166.342 145.33 166.241 146.413 166.101C146.413 166.101 147.012 166.013 147.712 165.933C148.896 165.798 149.626 164.94 149.466 163.495C149.402 162.916 149.199 162.33 148.894 161.804C148.59 161.276 148.184 160.808 147.716 160.463C146.542 159.602 145.437 159.806 144.727 160.763C144.307 161.329 143.931 161.805 143.931 161.805C143.269 162.673 142.576 163.672 141.612 164.229L141.342 164.385C140.374 164.943 139.152 164.656 138.506 163.746C136.777 161.309 134.669 159.103 132.213 157.216C131.353 156.556 131.103 155.371 131.644 154.435L131.88 154.028C132.436 153.063 133.435 152.371 134.304 151.709C134.304 151.709 134.779 151.332 135.345 150.913C136.302 150.204 136.507 149.096 135.645 147.925C135.3 147.455 134.832 147.05 134.304 146.745C133.778 146.442 133.192 146.238 132.613 146.175C131.168 146.014 130.31 146.745 130.174 147.928C130.095 148.628 130.008 149.227 130.008 149.227C129.867 150.311 129.766 151.522 129.211 152.487L129.047 152.769C128.49 153.737 127.288 154.1 126.274 153.634C123.453 152.336 120.519 151.498 117.564 151.103C116.489 150.959 115.681 150.06 115.681 148.978V148.519C115.681 147.406 116.199 146.307 116.62 145.299C116.62 145.299 116.844 144.736 117.125 144.089C117.6 142.997 117.222 141.934 115.89 141.351C115.357 141.117 114.749 141 114.14 141C113.531 141 112.922 141.117 112.389 141.351C111.057 141.934 110.681 142.997 111.154 144.089C111.436 144.736 111.659 145.299 111.659 145.299C112.08 146.307 112.598 147.406 112.598 148.519V148.839C112.598 149.956 111.742 150.87 110.631 150.975C107.602 151.262 104.63 151.994 101.819 153.15C100.82 153.561 99.6714 153.186 99.13 152.249L98.8983 151.847C98.3418 150.883 98.241 149.673 98.1013 148.589C98.1013 148.589 98.0132 147.989 97.9338 147.288C97.7991 146.106 96.9417 145.374 95.495 145.535C94.917 145.599 94.3316 145.802 93.804 146.107C93.2777 146.41 92.8093 146.816 92.4631 147.285C91.6018 148.458 91.8071 149.566 92.764 150.273C93.3306 150.694 93.8053 151.069 93.8053 151.069C94.6728 151.733 95.6725 152.425 96.229 153.388L96.3864 153.659C96.9442 154.627 96.6558 155.848 95.7455 156.496C93.3104 158.224 91.1032 160.332 89.2159 162.789C88.5574 163.647 87.3713 163.898 86.4345 163.356L86.0278 163.121C85.0634 162.564 84.3721 161.566 83.7086 160.697C83.7086 160.697 83.3321 160.223 82.9128 159.656C82.2052 158.699 81.0972 158.494 79.925 159.356C79.4554 159.701 79.0499 160.17 78.7465 160.696C78.4431 161.224 78.2391 161.809 78.1749 162.388C78.015 163.834 78.7452 164.691 79.9275 164.826C80.6288 164.906 81.2282 164.993 81.2282 164.993C82.3123 165.134 83.5235 165.234 84.4867 165.79L84.77 165.954C85.737 166.512 86.1009 167.713 85.6325 168.728C84.3356 171.548 83.4983 174.482 83.1042 177.437C82.9594 178.511 82.0617 179.319 80.9776 179.319H80.5193C79.4063 179.319 78.3071 178.801 77.2985 178.38C77.2985 178.38 76.7357 178.157 76.0886 177.876C74.9969 177.402 73.9355 177.778 73.3513 179.11C73.1171 179.644 73 180.252 73 180.862C73 181.47 73.1171 182.078 73.3513 182.612C73.9355 183.944 74.9969 184.32 76.0886 183.846C76.7357 183.565 77.2985 183.342 77.2985 183.342C78.3071 182.922 79.4063 182.403 80.5193 182.403H80.8404C81.9559 182.403 82.87 183.259 82.9745 184.369C83.2629 187.399 83.9957 190.37 85.1503 193.182C85.562 194.182 85.1855 195.33 84.2487 195.871L83.8483 196.103C82.8839 196.659 81.6726 196.759 80.5898 196.9C80.5898 196.9 79.9892 196.988 79.2879 197.067C78.1056 197.203 77.3753 198.06 77.5353 199.506C77.6007 200.084 77.8034 200.67 78.1069 201.196C78.4116 201.724 78.8158 202.192 79.2854 202.537C80.4576 203.399 81.5656 203.194 82.2745 202.237C82.6938 201.671 83.069 201.196 83.069 201.196C83.7325 200.327 84.425 199.329 85.3882 198.772L85.6602 198.616C86.6284 198.057 87.8485 198.344 88.4957 199.256C90.2244 201.691 92.3321 203.898 94.7899 205.784C95.6486 206.444 95.8979 207.629 95.3565 208.565L95.1223 208.973C94.5645 209.937 93.566 210.629 92.6985 211.291C92.6985 211.291 92.2226 211.668 91.656 212.087C90.6991 212.796 90.4951 213.904 91.3563 215.076C91.7013 215.545 92.1697 215.95 92.6973 216.255C93.2248 216.559 93.8103 216.762 94.3882 216.825C95.8349 216.986 96.6911 216.255 96.8258 215.072C96.9064 214.372 96.9945 213.773 96.9945 213.773C97.1343 212.689 97.2338 211.478 97.7915 210.515L97.9552 210.231C98.513 209.264 99.7129 208.9 100.728 209.368C103.548 210.666 106.482 211.502 109.438 211.897C110.511 212.041 111.321 212.94 111.321 214.024V214.482C111.321 215.595 110.802 216.694 110.381 217.703C110.381 217.703 110.157 218.266 109.876 218.913C109.402 220.004 109.778 221.066 111.111 221.65C111.645 221.884 112.253 222 112.86 222C113.47 222 114.078 221.884 114.612 221.65C115.945 221.066 116.322 220.004 115.847 218.913C115.565 218.266 115.342 217.703 115.342 217.703C114.922 216.694 114.403 215.595 114.403 214.482V214.161C114.403 213.045 115.26 212.13 116.371 212.025C119.399 211.738 122.37 211.006 125.182 209.85C126.183 209.439 127.331 209.816 127.871 210.751L128.103 211.154C128.659 212.117 128.759 213.329 128.9 214.411C128.9 214.411 128.988 215.012 129.069 215.712C129.203 216.894 130.06 217.626 131.506 217.465C132.084 217.402 132.67 217.198 133.197 216.894C133.724 216.59 134.192 216.184 134.537 215.715C135.399 214.542 135.195 213.436 134.239 212.727C133.672 212.307 133.196 211.931 133.196 211.931C132.327 211.269 131.329 210.576 130.772 209.612L130.616 209.341C130.057 208.374 130.344 207.152 131.256 206.506C133.691 204.777 135.898 202.669 137.784 200.211C138.444 199.353 139.629 199.103 140.565 199.644L140.973 199.879C141.937 200.436 142.629 201.434 143.293 202.303C143.293 202.303 143.668 202.779 144.088 203.344C144.797 204.302 145.904 204.506 147.076 203.644C147.545 203.299 147.951 202.83 148.255 202.304C148.559 201.776 148.762 201.191 148.826 200.613C148.988 199.166 148.256 198.31 147.072 198.174C146.374 198.095 145.773 198.007 145.773 198.007C144.69 197.867 143.479 197.766 142.515 197.21L142.233 197.046C141.264 196.488 140.9 195.287 141.368 194.274C142.666 191.453 143.502 188.518 143.897 185.563C144.041 184.489 144.941 183.681 146.024 183.681H146.483C147.595 183.681 148.694 184.199 149.703 184.62C149.703 184.62 150.266 184.844 150.913 185.125C152.004 185.598 153.066 185.222 153.65 183.89C153.884 183.356 154 182.748 154 182.14C154 181.531 153.884 180.922 153.65 180.389Z" stroke="white"/>
</g>
<g opacity="0.15">
<path fill-rule="evenodd" clip-rule="evenodd" d="M973.131 325.211C971.568 347.56 952.187 364.417 929.851 362.855C907.515 361.293 890.668 341.903 892.231 319.554C893.794 297.199 913.175 280.349 935.511 281.911C957.847 283.472 974.694 302.856 973.131 325.211Z" stroke="white"/>
<path fill-rule="evenodd" clip-rule="evenodd" d="M1069.09 494.971C1068.04 509.964 1055.05 521.268 1040.06 520.22C1025.08 519.173 1013.78 506.17 1014.83 491.177C1015.88 476.184 1028.88 464.88 1043.86 465.928C1058.84 466.976 1070.14 479.978 1069.09 494.971Z" stroke="white"/>
<path fill-rule="evenodd" clip-rule="evenodd" d="M918.765 423.73C917.716 438.723 904.72 450.027 889.735 448.979C874.75 447.931 863.454 434.929 864.502 419.936C865.551 404.943 878.547 393.639 893.532 394.687C908.517 395.735 919.813 408.737 918.765 423.73Z" stroke="white"/>
<path fill-rule="evenodd" clip-rule="evenodd" d="M1019.64 430.653C1018.59 445.646 1005.59 456.949 990.609 455.902C975.626 454.854 964.332 441.852 965.38 426.859C966.428 411.866 979.423 400.562 994.406 401.61C1009.39 402.657 1020.69 415.66 1019.64 430.653Z" stroke="white"/>
<path fill-rule="evenodd" clip-rule="evenodd" d="M1113.61 423.239C1112.83 434.411 1103.15 442.843 1091.97 442.061C1080.8 441.28 1072.38 431.582 1073.16 420.411C1073.95 409.239 1083.63 400.808 1094.8 401.589C1105.98 402.37 1114.4 412.068 1113.61 423.239Z" stroke="white"/>
<path fill-rule="evenodd" clip-rule="evenodd" d="M986.047 522.701C985.532 530.062 979.151 535.614 971.796 535.099C964.44 534.585 958.894 528.2 959.409 520.838C959.924 513.477 966.304 507.933 973.659 508.447C981.015 508.961 986.562 515.34 986.047 522.701Z" stroke="white"/>
<path fill-rule="evenodd" clip-rule="evenodd" d="M1059.24 338.645C1058.72 346.006 1052.34 351.557 1044.99 351.042C1037.63 350.528 1032.09 344.143 1032.6 336.782C1033.12 329.421 1039.49 323.876 1046.85 324.39C1054.21 324.904 1059.75 331.283 1059.24 338.645Z" stroke="white"/>
<path fill-rule="evenodd" clip-rule="evenodd" d="M1215.38 406.823C1212.56 398.935 1206.62 396.356 1200.17 398.635C1196.35 399.987 1193.03 401.048 1193.03 401.048C1187.07 403.057 1180.56 405.594 1174.18 405.148L1172.34 405.019C1165.93 404.571 1161.03 399.283 1160.87 392.866C1160.45 375.363 1157.43 358.012 1151.93 341.411C1149.98 335.508 1152.59 329.067 1158.18 326.342L1160.58 325.166C1166.33 322.366 1173.33 322.274 1179.6 321.906C1179.6 321.906 1183.07 321.64 1187.12 321.459C1193.96 321.16 1198.49 316.531 1198.16 308.171C1198.02 304.82 1197.09 301.378 1195.56 298.235C1194.02 295.085 1191.88 292.234 1189.33 290.065C1182.95 284.651 1176.52 285.379 1172.07 290.586C1169.43 293.67 1167.08 296.251 1167.08 296.251C1162.94 300.965 1158.56 306.426 1152.8 309.233L1151.2 310.021C1145.42 312.834 1138.52 310.696 1135.18 305.212C1126.24 290.534 1115.03 277.026 1101.7 265.207C1097.03 261.075 1096.08 254.175 1099.55 249.014L1101.07 246.775C1104.64 241.462 1110.66 237.888 1115.91 234.435C1115.91 234.435 1118.78 232.464 1122.2 230.285C1127.97 226.6 1129.6 220.322 1125.12 213.255C1123.33 210.421 1120.8 207.906 1117.9 205.945C1115 203.992 1111.72 202.587 1108.43 201.993C1100.2 200.488 1094.99 204.343 1093.73 211.075C1093 215.061 1092.26 218.467 1092.26 218.467C1091.01 224.633 1089.95 231.545 1086.38 236.858L1085.32 238.411C1081.74 243.745 1074.7 245.345 1069.06 242.264C1053.41 233.681 1036.91 227.698 1020.12 224.243C1014.01 222.988 1009.73 217.503 1010.16 211.288L1010.35 208.657C1010.8 202.269 1014.21 196.167 1017.03 190.547C1017.03 190.547 1018.54 187.407 1020.41 183.804C1023.57 177.729 1021.83 171.478 1014.42 167.597C1011.46 166.039 1008.02 165.123 1004.53 164.879C1001.04 164.635 997.494 165.062 994.344 166.193C986.468 169.005 983.882 174.953 986.16 181.409C987.518 185.237 988.571 188.557 988.571 188.557C990.578 194.515 993.113 201.032 992.666 207.421L992.538 209.257C992.09 215.667 986.811 220.571 980.391 220.724C962.904 221.158 945.556 224.171 928.97 229.678C923.07 231.633 916.633 229.019 913.903 223.425L912.735 221.026C909.93 215.267 909.837 208.281 909.471 202.003C909.471 202.003 909.206 198.527 909.032 194.47C908.734 187.63 904.108 183.087 895.744 183.431C892.403 183.568 888.963 184.497 885.814 186.034C882.673 187.565 879.823 189.704 877.648 192.261C872.237 198.644 872.97 205.086 878.175 209.532C881.257 212.173 883.83 214.517 883.83 214.517C888.54 218.674 893.997 223.05 896.803 228.802L897.598 230.419C900.409 236.2 898.264 243.095 892.782 246.444C878.119 255.39 864.611 266.603 852.797 279.946C848.675 284.611 841.77 285.573 836.613 282.09L834.374 280.575C829.065 276.994 825.5 270.986 822.042 265.733C822.042 265.733 820.073 262.857 817.895 259.437C814.22 253.66 807.946 252.038 800.875 256.518C798.042 258.31 795.528 260.836 793.576 263.735C791.624 266.641 790.218 269.92 789.618 273.219C788.12 281.452 791.965 286.666 798.694 287.914C802.685 288.658 806.088 289.397 806.088 289.397C812.251 290.641 819.16 291.698 824.462 295.279L826.021 296.332C831.345 299.921 832.95 306.962 829.856 312.599C821.284 328.268 815.303 344.771 811.856 361.575C810.594 367.682 805.12 371.962 798.901 371.527L796.271 371.343C789.886 370.897 783.788 367.478 778.171 364.66C778.171 364.66 775.032 363.155 771.432 361.283C765.36 358.121 759.12 359.856 755.234 367.268C753.676 370.238 752.76 373.682 752.515 377.18C752.271 380.671 752.699 384.208 753.828 387.367C756.645 395.247 762.583 397.834 769.036 395.547C772.862 394.195 776.18 393.142 776.18 393.142C782.134 391.133 788.648 388.596 795.034 389.042L796.876 389.171C803.275 389.619 808.176 394.9 808.33 401.316C808.768 418.82 811.779 436.17 817.274 452.772C819.235 458.675 816.614 465.116 811.023 467.847L808.633 469.017C802.877 471.824 795.888 471.909 789.619 472.284C789.619 472.284 786.139 472.549 782.083 472.723C775.246 473.029 770.713 477.651 771.05 486.019C771.193 489.363 772.121 492.805 773.651 495.947C775.187 499.098 777.318 501.948 779.874 504.117C786.252 509.538 792.691 508.804 797.142 503.596C799.774 500.512 802.118 497.938 802.118 497.938C806.273 493.217 810.646 487.764 816.395 484.956L818.018 484.169C823.797 481.348 830.681 483.486 834.028 488.978C842.968 503.649 854.174 517.163 867.517 528.976C872.178 533.107 873.133 540.008 869.651 545.168L868.143 547.415C864.557 552.72 858.551 556.295 853.308 559.748C853.308 559.748 850.427 561.718 847.008 563.898C841.234 567.583 839.619 573.861 844.089 580.935C845.881 583.762 848.405 586.277 851.309 588.237C854.213 590.198 857.491 591.596 860.781 592.189C869.016 593.695 874.221 589.839 875.468 583.107C876.212 579.121 876.958 575.716 876.958 575.716C878.195 569.55 879.252 562.637 882.838 557.332L883.891 555.772C887.479 550.445 894.509 548.838 900.143 551.926C915.802 560.509 932.296 566.484 949.098 569.94C955.194 571.194 959.478 576.679 959.043 582.901L958.859 585.532C958.412 591.921 954.995 598.022 952.178 603.642C952.178 603.642 950.666 606.783 948.795 610.385C945.634 616.461 947.368 622.704 954.783 626.593C957.751 628.151 961.194 629.06 964.675 629.303C968.171 629.548 971.707 629.127 974.863 627.997C982.747 625.178 985.333 619.237 983.048 612.78C981.69 608.952 980.637 605.633 980.637 605.633C978.629 599.675 976.094 593.157 976.541 586.769L976.67 584.926C977.118 578.522 982.404 573.612 988.817 573.458C1006.3 573.025 1023.64 570.011 1040.24 564.504C1046.15 562.55 1052.58 565.171 1055.31 570.758L1056.47 573.163C1059.28 578.915 1059.36 585.908 1059.74 592.18C1059.74 592.18 1060 595.662 1060.18 599.713C1060.48 606.553 1065.1 611.096 1073.46 610.751C1076.8 610.622 1080.25 609.686 1083.39 608.155C1086.54 606.618 1089.38 604.478 1091.55 601.921C1096.97 595.539 1096.24 589.104 1091.04 584.651C1087.96 582.017 1085.38 579.665 1085.38 579.665C1080.66 575.515 1075.21 571.14 1072.4 565.381L1071.62 563.764C1068.8 557.99 1070.94 551.087 1076.43 547.745C1091.09 538.799 1104.6 527.586 1116.4 514.236C1120.53 509.571 1127.43 508.616 1132.59 512.092L1134.83 513.607C1140.14 517.188 1143.71 523.197 1147.17 528.45C1147.17 528.45 1149.13 531.332 1151.31 534.746C1154.99 540.53 1161.26 542.145 1168.33 537.664C1171.16 535.872 1173.68 533.347 1175.63 530.448C1177.59 527.542 1178.99 524.262 1179.59 520.971C1181.1 512.731 1177.24 507.523 1170.51 506.268C1166.53 505.532 1163.12 504.786 1163.12 504.786C1156.96 503.549 1150.06 502.485 1144.75 498.904L1143.19 497.851C1137.86 494.261 1136.26 487.22 1139.34 481.59C1147.92 465.922 1153.9 449.411 1157.35 432.607C1158.61 426.5 1164.1 422.221 1170.31 422.656L1172.94 422.84C1179.32 423.286 1185.42 426.704 1191.04 429.523C1191.04 429.523 1194.18 431.035 1197.78 432.906C1203.85 436.062 1210.09 434.327 1213.97 426.915C1215.53 423.944 1216.44 420.5 1216.68 417.009C1216.93 413.519 1216.51 409.974 1215.38 406.823Z" stroke="white"/>
</g>
<g opacity="0.15">
<path fill-rule="evenodd" clip-rule="evenodd" d="M80.0675 726.313C80.0675 733.949 73.875 740.141 66.2392 740.141C58.6035 740.141 52.411 733.949 52.411 726.313C52.411 718.675 58.6035 712.485 66.2392 712.485C73.875 712.485 80.0675 718.675 80.0675 726.313Z" stroke="white"/>
<path fill-rule="evenodd" clip-rule="evenodd" d="M116.613 781.626C116.613 786.536 112.634 790.515 107.725 790.515C102.816 790.515 98.8344 786.536 98.8344 781.626C98.8344 776.716 102.816 772.736 107.725 772.736C112.634 772.736 116.613 776.716 116.613 781.626Z" stroke="white"/>
<path fill-rule="evenodd" clip-rule="evenodd" d="M62.2884 761.871C62.2884 766.781 58.3086 770.761 53.3988 770.761C48.489 770.761 44.5092 766.781 44.5092 761.871C44.5092 756.961 48.489 752.982 53.3988 752.982C58.3086 752.982 62.2884 756.961 62.2884 761.871Z" stroke="white"/>
<path fill-rule="evenodd" clip-rule="evenodd" d="M96.8589 761.871C96.8589 766.781 92.8773 770.761 87.9681 770.761C83.059 770.761 79.0798 766.781 79.0798 761.871C79.0798 756.961 83.059 752.982 87.9681 752.982C92.8773 752.982 96.8589 756.961 96.8589 761.871Z" stroke="white"/>
<path fill-rule="evenodd" clip-rule="evenodd" d="M130.442 755.945C130.442 759.762 127.347 762.859 123.528 762.859C119.708 762.859 116.614 759.762 116.614 755.945C116.614 752.128 119.708 749.031 123.528 749.031C127.347 749.031 130.442 752.128 130.442 755.945Z" stroke="white"/>
<path fill-rule="evenodd" clip-rule="evenodd" d="M89.9448 793.477C89.9448 796.205 87.7335 798.417 85.0062 798.417C82.2788 798.417 80.0675 796.205 80.0675 793.477C80.0675 790.749 82.2788 788.54 85.0062 788.54C87.7335 788.54 89.9448 790.749 89.9448 793.477Z" stroke="white"/>
<path fill-rule="evenodd" clip-rule="evenodd" d="M110.687 729.275C110.687 732.003 108.475 734.215 105.747 734.215C103.019 734.215 100.81 732.003 100.81 729.275C100.81 726.547 103.019 724.337 105.747 724.337C108.475 724.337 110.687 726.547 110.687 729.275Z" stroke="white"/>
<path fill-rule="evenodd" clip-rule="evenodd" d="M165.304 749.293C164.143 746.642 162.033 745.897 159.864 746.838C158.577 747.396 157.458 747.841 157.458 747.841C155.454 748.677 153.269 749.708 151.059 749.708H150.421C148.201 749.708 146.384 748.004 146.174 745.796C145.606 739.775 144.147 733.869 141.852 728.28C141.036 726.293 141.782 724.011 143.644 722.937L144.442 722.474C146.357 721.371 148.767 721.17 150.919 720.893C150.919 720.893 152.11 720.717 153.502 720.557C155.854 720.29 157.306 718.585 156.988 715.712C156.86 714.561 156.457 713.397 155.852 712.351C155.246 711.303 154.44 710.372 153.509 709.686C151.177 707.974 148.98 708.379 147.568 710.281C146.735 711.408 145.986 712.354 145.986 712.354C144.67 714.078 143.294 716.065 141.376 717.171L140.841 717.482C138.916 718.59 136.486 718.02 135.202 716.21C131.766 711.368 127.577 706.983 122.694 703.232C120.985 701.92 120.489 699.565 121.563 697.703L122.034 696.895C123.137 694.978 125.124 693.601 126.851 692.285C126.851 692.285 127.795 691.537 128.921 690.703C130.823 689.294 131.231 687.092 129.516 684.765C128.831 683.831 127.9 683.025 126.851 682.42C125.805 681.816 124.641 681.411 123.49 681.286C120.617 680.966 118.913 682.42 118.642 684.77C118.485 686.161 118.312 687.352 118.312 687.352C118.032 689.507 117.832 691.915 116.728 693.832L116.403 694.392C115.294 696.317 112.906 697.037 110.889 696.112C105.283 693.531 99.4522 691.867 93.5785 691.081C91.4413 690.796 89.8346 689.009 89.8346 686.857V685.946C89.8346 683.733 90.8657 681.549 91.7015 679.544C91.7015 679.544 92.147 678.425 92.7051 677.139C93.6486 674.969 92.8978 672.857 90.25 671.698C89.1914 671.233 87.9826 671 86.7713 671C85.5626 671 84.3513 671.233 83.2927 671.698C80.6449 672.857 79.8966 674.969 80.8376 677.139C81.3982 678.425 81.8411 679.544 81.8411 679.544C82.677 681.549 83.7081 683.733 83.7081 685.946V686.581C83.7081 688.801 82.0063 690.618 79.7965 690.826C73.7776 691.397 67.8689 692.853 62.283 695.151C60.2959 695.966 58.0135 695.221 56.9373 693.359L56.4769 692.56C55.3707 690.643 55.1705 688.238 54.8927 686.083C54.8927 686.083 54.7175 684.892 54.5598 683.498C54.292 681.148 52.5877 679.694 49.7122 680.015C48.5635 680.142 47.3998 680.545 46.3512 681.151C45.3051 681.754 44.3741 682.56 43.6858 683.493C41.974 685.823 42.382 688.025 44.284 689.432C45.4102 690.268 46.3537 691.014 46.3537 691.014C48.078 692.333 50.0651 693.709 51.1713 695.624L51.4841 696.162C52.5928 698.086 52.0196 700.514 50.2102 701.8C45.3701 705.236 40.983 709.426 37.2315 714.308C35.9227 716.015 33.5652 716.513 31.7032 715.437L30.8948 714.969C28.9778 713.863 27.6039 711.878 26.285 710.151C26.285 710.151 25.5367 709.208 24.7033 708.082C23.2968 706.18 21.0945 705.772 18.7645 707.486C17.831 708.172 17.0252 709.103 16.4221 710.149C15.8189 711.197 15.4135 712.361 15.2859 713.512C14.968 716.385 16.4196 718.09 18.7695 718.358C20.1635 718.518 21.3548 718.69 21.3548 718.69C23.5095 718.971 25.9171 719.168 27.8316 720.275L28.3947 720.6C30.3167 721.709 31.04 724.096 30.109 726.113C27.5313 731.719 25.867 737.55 25.0837 743.424C24.7959 745.559 23.0115 747.165 20.8567 747.165H19.9458C17.7334 747.165 15.5486 746.134 13.544 745.298C13.544 745.298 12.4253 744.855 11.139 744.297C8.96919 743.354 6.85946 744.102 5.69824 746.75C5.23275 747.811 5 749.02 5 750.231C5 751.44 5.23275 752.649 5.69824 753.71C6.85946 756.358 8.96919 757.106 11.139 756.162C12.4253 755.604 13.544 755.161 13.544 755.161C15.5486 754.325 17.7334 753.294 19.9458 753.294H20.584C22.8013 753.294 24.6182 754.996 24.8259 757.204C25.399 763.225 26.8556 769.131 29.1505 774.72C29.9689 776.707 29.2206 778.989 27.3586 780.065L26.5628 780.526C24.6457 781.632 22.2382 781.83 20.0859 782.11C20.0859 782.11 18.8922 782.285 17.4982 782.443C15.1482 782.713 13.6967 784.415 14.0145 787.29C14.1447 788.439 14.5476 789.603 15.1507 790.649C15.7564 791.697 16.5597 792.628 17.4932 793.314C19.8232 795.028 22.0255 794.621 23.4345 792.719C24.2678 791.592 25.0136 790.649 25.0136 790.649C26.3325 788.922 27.709 786.937 29.6235 785.831L30.1641 785.521C32.0886 784.41 34.5137 784.98 35.8 786.792C39.2362 791.632 43.4256 796.02 48.3107 799.768C50.0175 801.08 50.5131 803.435 49.4369 805.297L48.9714 806.108C47.8628 808.022 45.8782 809.399 44.1538 810.715C44.1538 810.715 43.2078 811.463 42.0817 812.297C40.1796 813.706 39.7742 815.908 41.486 818.238C42.1718 819.169 43.1027 819.975 44.1513 820.58C45.1999 821.186 46.3637 821.589 47.5124 821.714C50.3879 822.034 52.0897 820.58 52.3575 818.23C52.5177 816.839 52.6929 815.648 52.6929 815.648C52.9707 813.493 53.1684 811.085 54.277 809.171L54.6024 808.608C55.711 806.686 58.0961 805.963 60.1132 806.891C65.7191 809.471 71.5503 811.133 77.4265 811.919C79.5587 812.204 81.1679 813.991 81.1679 816.146V817.057C81.1679 819.269 80.1368 821.454 79.301 823.458C79.301 823.458 78.8555 824.577 78.2974 825.864C77.3539 828.033 78.1022 830.143 80.7525 831.304C81.8136 831.77 83.0224 832 84.2287 832C85.4399 832 86.6487 831.77 87.7098 831.304C90.3601 830.143 91.1084 828.033 90.1649 825.864C89.6043 824.577 89.1614 823.458 89.1614 823.458C88.3255 821.454 87.2944 819.269 87.2944 817.057V816.419C87.2944 814.201 88.9987 812.382 91.206 812.174C97.2249 811.603 103.131 810.147 108.72 807.85C110.709 807.034 112.992 807.782 114.065 809.641L114.526 810.442C115.632 812.357 115.83 814.764 116.11 816.917C116.11 816.917 116.285 818.11 116.445 819.502C116.713 821.852 118.415 823.306 121.29 822.985C122.439 822.86 123.603 822.455 124.651 821.852C125.697 821.246 126.628 820.44 127.314 819.507C129.028 817.177 128.623 814.977 126.721 813.568C125.595 812.735 124.649 811.986 124.649 811.986C122.922 810.67 120.937 809.294 119.831 807.376L119.521 806.838C118.41 804.916 118.98 802.486 120.792 801.202C125.632 797.766 130.02 793.577 133.768 788.692C135.08 786.985 137.435 786.489 139.297 787.563L140.108 788.031C142.022 789.137 143.399 791.122 144.718 792.849C144.718 792.849 145.463 793.795 146.299 794.918C147.708 796.823 149.908 797.228 152.238 795.514C153.169 794.828 153.977 793.897 154.58 792.851C155.186 791.803 155.589 790.639 155.717 789.49C156.037 786.615 154.583 784.913 152.23 784.642C150.841 784.485 149.648 784.31 149.648 784.31C147.495 784.032 145.088 783.832 143.171 782.725L142.61 782.4C140.686 781.291 139.963 778.904 140.891 776.889C143.471 771.283 145.133 765.45 145.919 759.576C146.204 757.441 147.993 755.835 150.146 755.835H151.059C153.269 755.835 155.454 756.866 157.458 757.702C157.458 757.702 158.577 758.147 159.864 758.705C162.033 759.646 164.143 758.898 165.304 756.25C165.77 755.189 166 753.98 166 752.771C166 751.563 165.77 750.351 165.304 749.293Z" stroke="white"/>
</g>
<g opacity="0.15">
<path fill-rule="evenodd" clip-rule="evenodd" d="M789.603 737.965C789.603 751.627 778.524 762.707 764.862 762.707C751.2 762.707 740.121 751.627 740.121 737.965C740.121 724.299 751.2 713.224 764.862 713.224C778.524 713.224 789.603 724.299 789.603 737.965Z" stroke="white"/>
<path fill-rule="evenodd" clip-rule="evenodd" d="M854.921 835.941C854.921 844.687 847.833 851.776 839.088 851.776C830.344 851.776 823.252 844.687 823.252 835.941C823.252 827.196 830.344 820.107 839.088 820.107C847.833 820.107 854.921 827.196 854.921 835.941Z" stroke="white"/>
<path fill-rule="evenodd" clip-rule="evenodd" d="M757.934 801.303C757.934 810.049 750.846 817.138 742.1 817.138C733.354 817.138 726.266 810.049 726.266 801.303C726.266 792.558 733.354 785.469 742.1 785.469C750.846 785.469 757.934 792.558 757.934 801.303Z" stroke="white"/>
<path fill-rule="evenodd" clip-rule="evenodd" d="M819.293 801.303C819.293 810.049 812.201 817.138 803.456 817.138C794.712 817.138 787.624 810.049 787.624 801.303C787.624 792.558 794.712 785.469 803.456 785.469C812.201 785.469 819.293 792.558 819.293 801.303Z" stroke="white"/>
<path fill-rule="evenodd" clip-rule="evenodd" d="M879.662 790.912C879.662 797.741 874.125 803.283 867.291 803.283C860.458 803.283 854.921 797.741 854.921 790.912C854.921 784.083 860.458 778.541 867.291 778.541C874.125 778.541 879.662 784.083 879.662 790.912Z" stroke="white"/>
<path fill-rule="evenodd" clip-rule="evenodd" d="M807.417 857.712C807.417 862.632 803.429 866.621 798.51 866.621C793.592 866.621 789.603 862.632 789.603 857.712C789.603 852.792 793.592 848.807 798.51 848.807C803.429 848.807 807.417 852.792 807.417 857.712Z" stroke="white"/>
<path fill-rule="evenodd" clip-rule="evenodd" d="M844.034 742.912C844.034 747.832 840.045 751.821 835.125 751.821C830.205 751.821 826.221 747.832 826.221 742.912C826.221 737.992 830.205 734.007 835.125 734.007C840.045 734.007 844.034 737.992 844.034 742.912Z" stroke="white"/>
<path fill-rule="evenodd" clip-rule="evenodd" d="M941.76 778.565C939.69 773.841 935.929 772.511 932.061 774.189C929.768 775.184 927.774 775.978 927.774 775.978C924.2 777.468 920.306 779.306 916.366 779.306H915.229C911.272 779.306 908.033 776.268 907.658 772.333C906.645 761.599 904.045 751.071 899.954 741.109C898.499 737.566 899.829 733.498 903.148 731.584L904.571 730.759C907.984 728.791 912.28 728.434 916.117 727.939C916.117 727.939 918.24 727.627 920.721 727.341C924.914 726.864 927.502 723.826 926.935 718.704C926.708 716.652 925.989 714.578 924.91 712.713C923.83 710.844 922.394 709.184 920.734 707.962C916.576 704.91 912.659 705.633 910.143 709.024C908.657 711.031 907.324 712.717 907.324 712.717C904.977 715.791 902.523 719.333 899.106 721.305L898.151 721.858C894.721 723.835 890.389 722.818 888.1 719.592C881.975 710.96 874.507 703.144 865.803 696.456C862.756 694.119 861.872 689.921 863.786 686.601L864.625 685.16C866.592 681.743 870.135 679.289 873.213 676.943C873.213 676.943 874.895 675.609 876.902 674.123C880.293 671.612 881.02 667.686 877.964 663.537C876.742 661.873 875.082 660.436 873.213 659.357C871.348 658.281 869.274 657.559 867.222 657.336C862.1 656.765 859.062 659.357 858.58 663.546C858.299 666.026 857.991 668.15 857.991 668.15C857.492 671.991 857.135 676.283 855.167 679.7L854.587 680.699C852.611 684.13 848.355 685.415 844.759 683.764C834.766 679.164 824.371 676.198 813.901 674.797C810.091 674.288 807.227 671.103 807.227 667.266V665.642C807.227 661.699 809.065 657.804 810.555 654.231C810.555 654.231 811.349 652.236 812.344 649.943C814.026 646.076 812.687 642.31 807.967 640.245C806.08 639.415 803.926 639 801.766 639C799.612 639 797.452 639.415 795.565 640.245C790.845 642.31 789.511 646.076 791.189 649.943C792.188 652.236 792.978 654.231 792.978 654.231C794.468 657.804 796.306 661.699 796.306 665.642V666.776C796.306 670.733 793.272 673.972 789.333 674.342C778.604 675.359 768.071 677.955 758.113 682.051C754.571 683.505 750.502 682.176 748.584 678.857L747.763 677.434C745.791 674.016 745.434 669.729 744.939 665.888C744.939 665.888 744.627 663.764 744.346 661.279C743.868 657.09 740.83 654.498 735.704 655.069C733.657 655.297 731.582 656.015 729.713 657.095C727.848 658.17 726.189 659.606 724.962 661.27C721.91 665.424 722.637 669.35 726.028 671.857C728.036 673.347 729.717 674.676 729.717 674.676C732.791 677.028 736.333 679.481 738.305 682.894L738.863 683.853C740.839 687.284 739.818 691.611 736.592 693.904C727.964 700.03 720.144 707.498 713.456 716.202C711.123 719.244 706.921 720.132 703.601 718.214L702.16 717.379C698.743 715.408 696.294 711.87 693.943 708.792C693.943 708.792 692.609 707.11 691.123 705.102C688.616 701.712 684.69 700.984 680.537 704.04C678.873 705.263 677.436 706.922 676.361 708.787C675.286 710.656 674.563 712.731 674.336 714.783C673.769 719.904 676.357 722.943 680.546 723.42C683.031 723.705 685.154 724.013 685.154 724.013C688.995 724.513 693.287 724.865 696.7 726.837L697.704 727.417C701.13 729.393 702.419 733.65 700.76 737.245C696.164 747.238 693.198 757.633 691.801 768.104C691.288 771.909 688.107 774.773 684.266 774.773H682.642C678.699 774.773 674.804 772.935 671.231 771.445C671.231 771.445 669.236 770.655 666.943 769.661C663.076 767.979 659.315 769.313 657.245 774.033C656.415 775.924 656 778.079 656 780.238C656 782.393 656.415 784.548 657.245 786.439C659.315 791.159 663.076 792.493 666.943 790.811C669.236 789.816 671.231 789.027 671.231 789.027C674.804 787.537 678.699 785.699 682.642 785.699H683.78C687.733 785.699 690.972 788.732 691.342 792.667C692.364 803.401 694.96 813.929 699.051 823.891C700.51 827.434 699.176 831.502 695.857 833.421L694.438 834.241C691.021 836.213 686.729 836.566 682.892 837.065C682.892 837.065 680.764 837.378 678.279 837.659C674.09 838.14 671.503 841.174 672.069 846.3C672.301 848.348 673.02 850.422 674.095 852.287C675.174 854.156 676.606 855.816 678.27 857.038C682.424 860.094 686.35 859.367 688.861 855.977C690.347 853.969 691.676 852.287 691.676 852.287C694.028 849.209 696.481 845.671 699.894 843.699L700.858 843.146C704.288 841.165 708.611 842.182 710.904 845.412C717.03 854.04 724.498 861.861 733.206 868.544C736.249 870.881 737.132 875.079 735.214 878.399L734.384 879.844C732.408 883.257 728.87 885.711 725.796 888.057C725.796 888.057 724.11 889.391 722.102 890.877C718.712 893.388 717.989 897.314 721.04 901.468C722.263 903.127 723.922 904.564 725.792 905.643C727.661 906.723 729.735 907.441 731.783 907.664C736.909 908.235 739.943 905.643 740.42 901.454C740.705 898.974 741.018 896.85 741.018 896.85C741.513 893.009 741.865 888.717 743.842 885.305L744.422 884.301C746.398 880.875 750.65 879.585 754.245 881.24C764.238 885.84 774.633 888.802 785.108 890.203C788.909 890.712 791.778 893.897 791.778 897.738V899.362C791.778 903.306 789.94 907.2 788.45 910.774C788.45 910.774 787.655 912.768 786.661 915.061C784.979 918.929 786.313 922.69 791.037 924.76C792.929 925.59 795.083 926 797.234 926C799.393 926 801.548 925.59 803.439 924.76C808.164 922.69 809.498 918.929 807.816 915.061C806.816 912.768 806.027 910.774 806.027 910.774C804.537 907.2 802.699 903.306 802.699 899.362V898.224C802.699 894.272 805.737 891.028 809.672 890.658C820.401 889.641 830.929 887.045 840.891 882.949C844.438 881.495 848.507 882.829 850.421 886.143L851.241 887.571C853.213 890.984 853.566 895.275 854.065 899.112C854.065 899.112 854.378 901.24 854.663 903.721C855.14 907.91 858.174 910.502 863.3 909.931C865.348 909.708 867.422 908.985 869.292 907.91C871.156 906.83 872.816 905.394 874.038 903.73C877.094 899.576 876.371 895.655 872.981 893.143C870.973 891.657 869.287 890.324 869.287 890.324C866.209 887.977 862.671 885.523 860.699 882.106L860.146 881.147C858.165 877.721 859.182 873.389 862.412 871.1C871.04 864.975 878.861 857.507 885.544 848.798C887.881 845.756 892.079 844.872 895.399 846.786L896.844 847.621C900.257 849.592 902.711 853.13 905.062 856.208C905.062 856.208 906.391 857.895 907.881 859.898C910.393 863.293 914.314 864.016 918.468 860.96C920.127 859.737 921.568 858.078 922.643 856.213C923.723 854.344 924.441 852.269 924.669 850.222C925.24 845.096 922.648 842.062 918.454 841.58C915.978 841.299 913.85 840.987 913.85 840.987C910.014 840.492 905.722 840.135 902.305 838.163L901.305 837.583C897.875 835.607 896.585 831.35 898.24 827.759C902.84 817.766 905.802 807.367 907.203 796.896C907.712 793.091 910.901 790.227 914.738 790.227H916.366C920.306 790.227 924.2 792.065 927.774 793.555C927.774 793.555 929.768 794.349 932.061 795.344C935.929 797.021 939.69 795.687 941.76 790.967C942.59 789.076 943 786.921 943 784.766C943 782.612 942.59 780.452 941.76 778.565Z" stroke="white"/>
</g>
<g opacity="0.15">
<path fill-rule="evenodd" clip-rule="evenodd" d="M789.603 737.965C789.603 751.627 778.524 762.707 764.862 762.707C751.2 762.707 740.121 751.627 740.121 737.965C740.121 724.299 751.2 713.224 764.862 713.224C778.524 713.224 789.603 724.299 789.603 737.965Z" stroke="white"/>
<path fill-rule="evenodd" clip-rule="evenodd" d="M854.921 835.941C854.921 844.687 847.833 851.776 839.088 851.776C830.344 851.776 823.252 844.687 823.252 835.941C823.252 827.196 830.344 820.107 839.088 820.107C847.833 820.107 854.921 827.196 854.921 835.941Z" stroke="white"/>
<path fill-rule="evenodd" clip-rule="evenodd" d="M757.934 801.303C757.934 810.049 750.846 817.138 742.1 817.138C733.354 817.138 726.266 810.049 726.266 801.303C726.266 792.558 733.354 785.469 742.1 785.469C750.846 785.469 757.934 792.558 757.934 801.303Z" stroke="white"/>
<path fill-rule="evenodd" clip-rule="evenodd" d="M819.293 801.303C819.293 810.049 812.201 817.138 803.456 817.138C794.712 817.138 787.624 810.049 787.624 801.303C787.624 792.558 794.712 785.469 803.456 785.469C812.201 785.469 819.293 792.558 819.293 801.303Z" stroke="white"/>
<path fill-rule="evenodd" clip-rule="evenodd" d="M879.662 790.912C879.662 797.741 874.125 803.283 867.291 803.283C860.458 803.283 854.921 797.741 854.921 790.912C854.921 784.083 860.458 778.541 867.291 778.541C874.125 778.541 879.662 784.083 879.662 790.912Z" stroke="white"/>
<path fill-rule="evenodd" clip-rule="evenodd" d="M807.417 857.712C807.417 862.632 803.429 866.621 798.51 866.621C793.592 866.621 789.603 862.632 789.603 857.712C789.603 852.792 793.592 848.807 798.51 848.807C803.429 848.807 807.417 852.792 807.417 857.712Z" stroke="white"/>
<path fill-rule="evenodd" clip-rule="evenodd" d="M844.034 742.912C844.034 747.832 840.045 751.821 835.125 751.821C830.205 751.821 826.221 747.832 826.221 742.912C826.221 737.992 830.205 734.007 835.125 734.007C840.045 734.007 844.034 737.992 844.034 742.912Z" stroke="white"/>
<path fill-rule="evenodd" clip-rule="evenodd" d="M941.76 778.565C939.69 773.841 935.929 772.511 932.061 774.189C929.768 775.184 927.774 775.978 927.774 775.978C924.2 777.468 920.306 779.306 916.366 779.306H915.229C911.272 779.306 908.033 776.268 907.658 772.333C906.645 761.599 904.045 751.071 899.954 741.109C898.499 737.566 899.829 733.498 903.148 731.584L904.571 730.759C907.984 728.791 912.28 728.434 916.117 727.939C916.117 727.939 918.24 727.627 920.721 727.341C924.914 726.864 927.502 723.826 926.935 718.704C926.708 716.652 925.989 714.578 924.91 712.713C923.83 710.844 922.394 709.184 920.734 707.962C916.576 704.91 912.659 705.633 910.143 709.024C908.657 711.031 907.324 712.717 907.324 712.717C904.977 715.791 902.523 719.333 899.106 721.305L898.151 721.858C894.721 723.835 890.389 722.818 888.1 719.592C881.975 710.96 874.507 703.144 865.803 696.456C862.756 694.119 861.872 689.921 863.786 686.601L864.625 685.16C866.592 681.743 870.135 679.289 873.213 676.943C873.213 676.943 874.895 675.609 876.902 674.123C880.293 671.612 881.02 667.686 877.964 663.537C876.742 661.873 875.082 660.436 873.213 659.357C871.348 658.281 869.274 657.559 867.222 657.336C862.1 656.765 859.062 659.357 858.58 663.546C858.299 666.026 857.991 668.15 857.991 668.15C857.492 671.991 857.135 676.283 855.167 679.7L854.587 680.699C852.611 684.13 848.355 685.415 844.759 683.764C834.766 679.164 824.371 676.198 813.901 674.797C810.091 674.288 807.227 671.103 807.227 667.266V665.642C807.227 661.699 809.065 657.804 810.555 654.231C810.555 654.231 811.349 652.236 812.344 649.943C814.026 646.076 812.687 642.31 807.967 640.245C806.08 639.415 803.926 639 801.766 639C799.612 639 797.452 639.415 795.565 640.245C790.845 642.31 789.511 646.076 791.189 649.943C792.188 652.236 792.978 654.231 792.978 654.231C794.468 657.804 796.306 661.699 796.306 665.642V666.776C796.306 670.733 793.272 673.972 789.333 674.342C778.604 675.359 768.071 677.955 758.113 682.051C754.571 683.505 750.502 682.176 748.584 678.857L747.763 677.434C745.791 674.016 745.434 669.729 744.939 665.888C744.939 665.888 744.627 663.764 744.346 661.279C743.868 657.09 740.83 654.498 735.704 655.069C733.657 655.297 731.582 656.015 729.713 657.095C727.848 658.17 726.189 659.606 724.962 661.27C721.91 665.424 722.637 669.35 726.028 671.857C728.036 673.347 729.717 674.676 729.717 674.676C732.791 677.028 736.333 679.481 738.305 682.894L738.863 683.853C740.839 687.284 739.818 691.611 736.592 693.904C727.964 700.03 720.144 707.498 713.456 716.202C711.123 719.244 706.921 720.132 703.601 718.214L702.16 717.379C698.743 715.408 696.294 711.87 693.943 708.792C693.943 708.792 692.609 707.11 691.123 705.102C688.616 701.712 684.69 700.984 680.537 704.04C678.873 705.263 677.436 706.922 676.361 708.787C675.286 710.656 674.563 712.731 674.336 714.783C673.769 719.904 676.357 722.943 680.546 723.42C683.031 723.705 685.154 724.013 685.154 724.013C688.995 724.513 693.287 724.865 696.7 726.837L697.704 727.417C701.13 729.393 702.419 733.65 700.76 737.245C696.164 747.238 693.198 757.633 691.801 768.104C691.288 771.909 688.107 774.773 684.266 774.773H682.642C678.699 774.773 674.804 772.935 671.231 771.445C671.231 771.445 669.236 770.655 666.943 769.661C663.076 767.979 659.315 769.313 657.245 774.033C656.415 775.924 656 778.079 656 780.238C656 782.393 656.415 784.548 657.245 786.439C659.315 791.159 663.076 792.493 666.943 790.811C669.236 789.816 671.231 789.027 671.231 789.027C674.804 787.537 678.699 785.699 682.642 785.699H683.78C687.733 785.699 690.972 788.732 691.342 792.667C692.364 803.401 694.96 813.929 699.051 823.891C700.51 827.434 699.176 831.502 695.857 833.421L694.438 834.241C691.021 836.213 686.729 836.566 682.892 837.065C682.892 837.065 680.764 837.378 678.279 837.659C674.09 838.14 671.503 841.174 672.069 846.3C672.301 848.348 673.02 850.422 674.095 852.287C675.174 854.156 676.606 855.816 678.27 857.038C682.424 860.094 686.35 859.367 688.861 855.977C690.347 853.969 691.676 852.287 691.676 852.287C694.028 849.209 696.481 845.671 699.894 843.699L700.858 843.146C704.288 841.165 708.611 842.182 710.904 845.412C717.03 854.04 724.498 861.861 733.206 868.544C736.249 870.881 737.132 875.079 735.214 878.399L734.384 879.844C732.408 883.257 728.87 885.711 725.796 888.057C725.796 888.057 724.11 889.391 722.102 890.877C718.712 893.388 717.989 897.314 721.04 901.468C722.263 903.127 723.922 904.564 725.792 905.643C727.661 906.723 729.735 907.441 731.783 907.664C736.909 908.235 739.943 905.643 740.42 901.454C740.705 898.974 741.018 896.85 741.018 896.85C741.513 893.009 741.865 888.717 743.842 885.305L744.422 884.301C746.398 880.875 750.65 879.585 754.245 881.24C764.238 885.84 774.633 888.802 785.108 890.203C788.909 890.712 791.778 893.897 791.778 897.738V899.362C791.778 903.306 789.94 907.2 788.45 910.774C788.45 910.774 787.655 912.768 786.661 915.061C784.979 918.929 786.313 922.69 791.037 924.76C792.929 925.59 795.083 926 797.234 926C799.393 926 801.548 925.59 803.439 924.76C808.164 922.69 809.498 918.929 807.816 915.061C806.816 912.768 806.027 910.774 806.027 910.774C804.537 907.2 802.699 903.306 802.699 899.362V898.224C802.699 894.272 805.737 891.028 809.672 890.658C820.401 889.641 830.929 887.045 840.891 882.949C844.438 881.495 848.507 882.829 850.421 886.143L851.241 887.571C853.213 890.984 853.566 895.275 854.065 899.112C854.065 899.112 854.378 901.24 854.663 903.721C855.14 907.91 858.174 910.502 863.3 909.931C865.348 909.708 867.422 908.985 869.292 907.91C871.156 906.83 872.816 905.394 874.038 903.73C877.094 899.576 876.371 895.655 872.981 893.143C870.973 891.657 869.287 890.324 869.287 890.324C866.209 887.977 862.671 885.523 860.699 882.106L860.146 881.147C858.165 877.721 859.182 873.389 862.412 871.1C871.04 864.975 878.861 857.507 885.544 848.798C887.881 845.756 892.079 844.872 895.399 846.786L896.844 847.621C900.257 849.592 902.711 853.13 905.062 856.208C905.062 856.208 906.391 857.895 907.881 859.898C910.393 863.293 914.314 864.016 918.468 860.96C920.127 859.737 921.568 858.078 922.643 856.213C923.723 854.344 924.441 852.269 924.669 850.222C925.24 845.096 922.648 842.062 918.454 841.58C915.978 841.299 913.85 840.987 913.85 840.987C910.014 840.492 905.722 840.135 902.305 838.163L901.305 837.583C897.875 835.607 896.585 831.35 898.24 827.759C902.84 817.766 905.802 807.367 907.203 796.896C907.712 793.091 910.901 790.227 914.738 790.227H916.366C920.306 790.227 924.2 792.065 927.774 793.555C927.774 793.555 929.768 794.349 932.061 795.344C935.929 797.021 939.69 795.687 941.76 790.967C942.59 789.076 943 786.921 943 784.766C943 782.612 942.59 780.452 941.76 778.565Z" stroke="white"/>
</g>
<g opacity="0.15">
<path fill-rule="evenodd" clip-rule="evenodd" d="M1313.6 62.9714C1313.6 74.4253 1304.32 83.7142 1292.86 83.7142C1281.41 83.7142 1272.12 74.4253 1272.12 62.9714C1272.12 51.5136 1281.41 42.2285 1292.86 42.2285C1304.32 42.2285 1313.6 51.5136 1313.6 62.9714Z" stroke="white"/>
<path fill-rule="evenodd" clip-rule="evenodd" d="M1368.92 146.437C1368.92 153.802 1362.95 159.771 1355.59 159.771C1348.22 159.771 1342.25 153.802 1342.25 146.437C1342.25 139.072 1348.22 133.102 1355.59 133.102C1362.95 133.102 1368.92 139.072 1368.92 146.437Z" stroke="white"/>
<path fill-rule="evenodd" clip-rule="evenodd" d="M1286.93 116.804C1286.93 124.169 1280.96 130.139 1273.6 130.139C1266.24 130.139 1260.27 124.169 1260.27 116.804C1260.27 109.439 1266.24 103.469 1273.6 103.469C1280.96 103.469 1286.93 109.439 1286.93 116.804Z" stroke="white"/>
<path fill-rule="evenodd" clip-rule="evenodd" d="M1338.3 116.804C1338.3 124.169 1332.33 130.139 1324.96 130.139C1317.6 130.139 1311.63 124.169 1311.63 116.804C1311.63 109.439 1317.6 103.469 1324.96 103.469C1332.33 103.469 1338.3 109.439 1338.3 116.804Z" stroke="white"/>
<path fill-rule="evenodd" clip-rule="evenodd" d="M1389.66 107.914C1389.66 113.64 1385.02 118.286 1379.29 118.286C1373.56 118.286 1368.92 113.64 1368.92 107.914C1368.92 102.189 1373.56 97.5428 1379.29 97.5428C1385.02 97.5428 1389.66 102.189 1389.66 107.914Z" stroke="white"/>
<path fill-rule="evenodd" clip-rule="evenodd" d="M1328.42 164.214C1328.42 168.307 1325.1 171.624 1321.01 171.624C1316.92 171.624 1313.6 168.307 1313.6 164.214C1313.6 160.122 1316.92 156.808 1321.01 156.808C1325.1 156.808 1328.42 160.122 1328.42 164.214Z" stroke="white"/>
<path fill-rule="evenodd" clip-rule="evenodd" d="M1359.04 67.4145C1359.04 71.5067 1355.72 74.8245 1351.63 74.8245C1347.54 74.8245 1344.22 71.5067 1344.22 67.4145C1344.22 63.3224 1347.54 60.0082 1351.63 60.0082C1355.72 60.0082 1359.04 63.3224 1359.04 67.4145Z" stroke="white"/>
<path fill-rule="evenodd" clip-rule="evenodd" d="M1441.95 97.6822C1440.21 93.6985 1437.04 92.5775 1433.78 93.9919C1431.84 94.8307 1430.16 95.5003 1430.16 95.5003C1427.15 96.7568 1423.86 98.3066 1420.54 98.3066H1419.58C1416.25 98.3066 1413.52 95.7449 1413.2 92.427C1412.35 83.3763 1410.15 74.4986 1406.7 66.0986C1405.48 63.1118 1406.6 59.6811 1409.4 58.0673L1410.6 57.3714C1413.47 55.7125 1417.1 55.4115 1420.33 54.994C1420.33 54.994 1422.12 54.7306 1424.21 54.4899C1427.75 54.0874 1429.93 51.5256 1429.45 47.2072C1429.26 45.4768 1428.66 43.7276 1427.75 42.1552C1426.84 40.579 1425.62 39.1796 1424.23 38.1489C1420.72 35.5759 1417.42 36.1853 1415.29 39.0442C1414.04 40.737 1412.92 42.1589 1412.92 42.1589C1410.94 44.7508 1408.87 47.7376 1405.99 49.4003L1405.18 49.8667C1402.29 51.5332 1398.64 50.6755 1396.71 47.9558C1391.54 40.6768 1385.25 34.0862 1377.91 28.4474C1375.34 26.4762 1374.59 22.9365 1376.21 20.1377L1376.91 18.9227C1378.57 16.0412 1381.56 13.9722 1384.16 11.9936C1384.16 11.9936 1385.57 10.8688 1387.27 9.61615C1390.13 7.49829 1390.74 4.18796 1388.16 0.689548C1387.13 -0.713579 1385.73 -1.92486 1384.16 -2.8352C1382.58 -3.74178 1380.83 -4.35118 1379.1 -4.53926C1374.78 -5.02077 1372.22 -2.8352 1371.82 0.697071C1371.58 2.7886 1371.32 4.57918 1371.32 4.57918C1370.9 7.81804 1370.6 11.4368 1368.94 14.3183L1368.45 15.1609C1366.78 18.0537 1363.19 19.1371 1360.16 17.7453C1351.74 13.8669 1342.97 11.3654 1334.14 10.1842C1330.93 9.75533 1328.52 7.06945 1328.52 3.83436V2.46509C1328.52 -0.860287 1330.07 -4.14428 1331.32 -7.15743C1331.32 -7.15743 1331.99 -8.83893 1332.83 -10.7725C1334.25 -14.0339 1333.12 -17.2088 1329.14 -18.9505C1327.55 -19.6502 1325.73 -20 1323.91 -20C1322.09 -20 1320.27 -19.6502 1318.68 -18.9505C1314.7 -17.2088 1313.58 -14.0339 1314.99 -10.7725C1315.83 -8.83893 1316.5 -7.15743 1316.5 -7.15743C1317.76 -4.14428 1319.31 -0.860287 1319.31 2.46509V3.42057C1319.31 6.75723 1316.75 9.48825 1313.43 9.80047C1304.38 10.6581 1295.5 12.8475 1287.1 16.3008C1284.12 17.5271 1280.68 16.4061 1279.07 13.6073L1278.38 12.4074C1276.71 9.52587 1276.41 5.91084 1275.99 2.67198C1275.99 2.67198 1275.73 0.881397 1275.49 -1.21389C1275.09 -4.74616 1272.53 -6.93173 1268.21 -6.45023C1266.48 -6.25838 1264.73 -5.65274 1263.16 -4.7424C1261.58 -3.83582 1260.18 -2.62454 1259.15 -1.22141C1256.58 2.28076 1257.19 5.59109 1260.05 7.70518C1261.74 8.9616 1263.16 10.0826 1263.16 10.0826C1265.75 12.065 1268.74 14.134 1270.4 17.0117L1270.87 17.8205C1272.54 20.7133 1271.68 24.3622 1268.96 26.2957C1261.68 31.4605 1255.09 37.7577 1249.45 45.0968C1247.48 47.6623 1243.94 48.4109 1241.14 46.7934L1239.92 46.0899C1237.04 44.4273 1234.98 41.4442 1232.99 38.8486C1232.99 38.8486 1231.87 37.4304 1230.62 35.7376C1228.5 32.8787 1225.19 32.2656 1221.69 34.8424C1220.29 35.8731 1219.08 37.2724 1218.17 38.8448C1217.26 40.421 1216.65 42.1702 1216.46 43.9006C1215.98 48.2191 1218.16 50.7808 1221.7 51.1833C1223.79 51.4241 1225.58 51.6836 1225.58 51.6836C1228.82 52.105 1232.44 52.4021 1235.32 54.0648L1236.16 54.5538C1239.05 56.2203 1240.14 59.809 1238.74 62.841C1234.87 71.2672 1232.37 80.0321 1231.19 88.8609C1230.76 92.0696 1228.07 94.4847 1224.83 94.4847H1223.47C1220.14 94.4847 1216.86 92.9348 1213.84 91.6784C1213.84 91.6784 1212.16 91.0126 1210.23 90.1737C1206.97 88.7555 1203.79 89.8803 1202.05 93.8602C1201.35 95.4552 1201 97.2721 1201 99.0928C1201 100.91 1201.35 102.727 1202.05 104.322C1203.79 108.302 1206.97 109.426 1210.23 108.008C1212.16 107.169 1213.84 106.503 1213.84 106.503C1216.86 105.247 1220.14 103.697 1223.47 103.697H1224.42C1227.76 103.697 1230.49 106.255 1230.8 109.573C1231.66 118.624 1233.85 127.501 1237.3 135.901C1238.53 138.888 1237.41 142.319 1234.61 143.936L1233.41 144.629C1230.53 146.291 1226.91 146.588 1223.68 147.01C1223.68 147.01 1221.88 147.273 1219.79 147.51C1216.25 147.916 1214.07 150.474 1214.55 154.797C1214.75 156.523 1215.35 158.272 1216.26 159.845C1217.17 161.421 1218.38 162.82 1219.78 163.851C1223.28 166.428 1226.59 165.815 1228.71 162.956C1229.96 161.263 1231.08 159.845 1231.08 159.845C1233.07 157.249 1235.13 154.266 1238.01 152.604L1238.82 152.137C1241.72 150.467 1245.36 151.325 1247.3 154.048C1252.46 161.323 1258.76 167.918 1266.1 173.553C1268.67 175.524 1269.41 179.064 1267.79 181.862L1267.09 183.081C1265.43 185.959 1262.44 188.028 1259.85 190.006C1259.85 190.006 1258.43 191.131 1256.74 192.384C1253.88 194.502 1253.27 197.812 1255.84 201.314C1256.87 202.714 1258.27 203.925 1259.85 204.835C1261.42 205.746 1263.17 206.351 1264.9 206.539C1269.22 207.021 1271.78 204.835 1272.18 201.303C1272.42 199.211 1272.69 197.421 1272.69 197.421C1273.1 194.182 1273.4 190.563 1275.07 187.685L1275.56 186.839C1277.22 183.95 1280.81 182.863 1283.84 184.258C1292.27 188.137 1301.03 190.635 1309.86 191.816C1313.07 192.245 1315.49 194.931 1315.49 198.169V199.539C1315.49 202.864 1313.94 206.148 1312.68 209.161C1312.68 209.161 1312.01 210.843 1311.17 212.776C1309.76 216.038 1310.88 219.209 1314.86 220.954C1316.46 221.654 1318.28 222 1320.09 222C1321.91 222 1323.73 221.654 1325.32 220.954C1329.31 219.209 1330.43 216.038 1329.01 212.776C1328.17 210.843 1327.5 209.161 1327.5 209.161C1326.25 206.148 1324.7 202.864 1324.7 199.539V198.579C1324.7 195.247 1327.26 192.512 1330.58 192.2C1339.62 191.342 1348.5 189.153 1356.9 185.699C1359.89 184.473 1363.32 185.598 1364.94 188.393L1365.63 189.596C1367.29 192.474 1367.59 196.093 1368.01 199.328C1368.01 199.328 1368.27 201.122 1368.51 203.214C1368.92 206.746 1371.47 208.932 1375.8 208.45C1377.52 208.262 1379.27 207.653 1380.85 206.746C1382.42 205.836 1383.82 204.625 1384.85 203.221C1387.43 199.719 1386.82 196.413 1383.96 194.295C1382.27 193.042 1380.84 191.917 1380.84 191.917C1378.25 189.939 1375.27 187.87 1373.6 184.988L1373.14 184.18C1371.47 181.29 1372.32 177.638 1375.05 175.708C1382.32 170.543 1388.92 164.246 1394.55 156.903C1396.52 154.338 1400.06 153.593 1402.86 155.207L1404.08 155.91C1406.96 157.573 1409.03 160.556 1411.01 163.151C1411.01 163.151 1412.13 164.573 1413.39 166.262C1415.51 169.125 1418.81 169.734 1422.31 167.158C1423.71 166.127 1424.93 164.728 1425.84 163.155C1426.75 161.579 1427.35 159.83 1427.54 158.103C1428.02 153.781 1425.84 151.223 1422.3 150.817C1420.22 150.58 1418.42 150.316 1418.42 150.316C1415.19 149.899 1411.57 149.598 1408.69 147.935L1407.84 147.446C1404.95 145.78 1403.86 142.191 1405.26 139.163C1409.14 130.737 1411.63 121.968 1412.82 113.139C1413.24 109.93 1415.93 107.515 1419.17 107.515H1420.54C1423.86 107.515 1427.15 109.065 1430.16 110.322C1430.16 110.322 1431.84 110.991 1433.78 111.83C1437.04 113.244 1440.21 112.12 1441.95 108.14C1442.65 106.545 1443 104.728 1443 102.911C1443 101.094 1442.65 99.2734 1441.95 97.6822Z" stroke="white"/>
</g>
<g opacity="0.15">
<path fill-rule="evenodd" clip-rule="evenodd" d="M486.536 269.661C486.536 272.372 484.337 274.571 481.625 274.571C478.913 274.571 476.714 272.372 476.714 269.661C476.714 266.948 478.913 264.75 481.625 264.75C484.337 264.75 486.536 266.948 486.536 269.661Z" stroke="white"/>
<path fill-rule="evenodd" clip-rule="evenodd" d="M499.304 289.304C499.304 290.931 497.985 292.25 496.358 292.25C494.73 292.25 493.411 290.931 493.411 289.304C493.411 287.676 494.73 286.357 496.358 286.357C497.985 286.357 499.304 287.676 499.304 289.304Z" stroke="white"/>
<path fill-rule="evenodd" clip-rule="evenodd" d="M480.643 282.429C480.643 284.056 479.324 285.375 477.696 285.375C476.069 285.375 474.75 284.056 474.75 282.429C474.75 280.801 476.069 279.482 477.696 279.482C479.324 279.482 480.643 280.801 480.643 282.429Z" stroke="white"/>
<path fill-rule="evenodd" clip-rule="evenodd" d="M492.429 282.429C492.429 284.056 491.109 285.375 489.482 285.375C487.855 285.375 486.536 284.056 486.536 282.429C486.536 280.801 487.855 279.482 489.482 279.482C491.109 279.482 492.429 280.801 492.429 282.429Z" stroke="white"/>
<path fill-rule="evenodd" clip-rule="evenodd" d="M504.214 279.973C504.214 281.329 503.115 282.429 501.759 282.429C500.403 282.429 499.304 281.329 499.304 279.973C499.304 278.618 500.403 277.518 501.759 277.518C503.115 277.518 504.214 278.618 504.214 279.973Z" stroke="white"/>
<path fill-rule="evenodd" clip-rule="evenodd" d="M489.482 292.741C489.482 293.554 488.823 294.214 488.009 294.214C487.195 294.214 486.536 293.554 486.536 292.741C486.536 291.927 487.195 291.268 488.009 291.268C488.823 291.268 489.482 291.927 489.482 292.741Z" stroke="white"/>
<path fill-rule="evenodd" clip-rule="evenodd" d="M497.339 271.134C497.339 271.947 496.679 272.607 495.866 272.607C495.052 272.607 494.393 271.947 494.393 271.134C494.393 270.32 495.052 269.661 495.866 269.661C496.679 269.661 497.339 270.32 497.339 271.134Z" stroke="white"/>
<path fill-rule="evenodd" clip-rule="evenodd" d="M515.762 277.746C515.366 276.841 514.645 276.586 513.904 276.907C513.464 277.098 513.082 277.25 513.082 277.25C512.397 277.536 511.651 277.888 510.896 277.888H510.678C509.92 277.888 509.299 277.306 509.227 276.552C509.033 274.495 508.535 272.477 507.751 270.568C507.472 269.889 507.727 269.109 508.363 268.743L508.636 268.584C509.29 268.207 510.113 268.139 510.848 268.044C510.848 268.044 511.255 267.984 511.73 267.93C512.534 267.838 513.03 267.256 512.921 266.274C512.878 265.881 512.74 265.484 512.533 265.126C512.326 264.768 512.051 264.45 511.733 264.216C510.936 263.631 510.186 263.769 509.703 264.419C509.419 264.804 509.163 265.127 509.163 265.127C508.713 265.716 508.243 266.395 507.588 266.773L507.405 266.879C506.748 267.258 505.918 267.063 505.479 266.444C504.305 264.79 502.874 263.292 501.206 262.011C500.622 261.563 500.453 260.758 500.82 260.122L500.98 259.846C501.357 259.191 502.036 258.721 502.626 258.271C502.626 258.271 502.948 258.016 503.333 257.731C503.983 257.25 504.122 256.497 503.537 255.702C503.302 255.383 502.984 255.108 502.626 254.901C502.269 254.695 501.871 254.557 501.478 254.514C500.497 254.404 499.914 254.901 499.822 255.704C499.768 256.179 499.709 256.586 499.709 256.586C499.613 257.322 499.545 258.145 499.168 258.8L499.057 258.991C498.678 259.649 497.862 259.895 497.173 259.578C495.258 258.697 493.266 258.128 491.26 257.86C490.53 257.763 489.981 257.152 489.981 256.417V256.106C489.981 255.35 490.333 254.604 490.619 253.919C490.619 253.919 490.771 253.537 490.961 253.097C491.284 252.356 491.027 251.634 490.123 251.239C489.761 251.08 489.348 251 488.934 251C488.521 251 488.108 251.08 487.746 251.239C486.841 251.634 486.586 252.356 486.907 253.097C487.099 253.537 487.25 253.919 487.25 253.919C487.536 254.604 487.888 255.35 487.888 256.106V256.323C487.888 257.081 487.307 257.702 486.552 257.773C484.495 257.968 482.477 258.465 480.569 259.25C479.89 259.529 479.11 259.274 478.743 258.638L478.585 258.365C478.207 257.71 478.139 256.889 478.044 256.153C478.044 256.153 477.984 255.746 477.93 255.27C477.839 254.467 477.257 253.97 476.274 254.079C475.882 254.123 475.484 254.261 475.126 254.468C474.769 254.674 474.451 254.949 474.216 255.268C473.631 256.064 473.77 256.816 474.42 257.297C474.805 257.582 475.127 257.837 475.127 257.837C475.716 258.288 476.395 258.758 476.773 259.412L476.88 259.596C477.258 260.253 477.063 261.082 476.444 261.522C474.791 262.696 473.292 264.127 472.011 265.795C471.564 266.378 470.758 266.548 470.122 266.18L469.846 266.02C469.191 265.643 468.722 264.965 468.271 264.375C468.271 264.375 468.016 264.052 467.731 263.668C467.25 263.018 466.498 262.879 465.702 263.464C465.383 263.698 465.108 264.016 464.902 264.374C464.696 264.732 464.557 265.13 464.514 265.523C464.405 266.504 464.901 267.087 465.704 267.178C466.18 267.233 466.587 267.292 466.587 267.292C467.323 267.387 468.146 267.455 468.8 267.833L468.992 267.944C469.649 268.323 469.896 269.138 469.578 269.827C468.697 271.743 468.128 273.735 467.861 275.741C467.763 276.47 467.153 277.019 466.417 277.019H466.106C465.35 277.019 464.604 276.667 463.919 276.381C463.919 276.381 463.537 276.23 463.097 276.039C462.356 275.717 461.635 275.973 461.239 276.877C461.08 277.24 461 277.653 461 278.067C461 278.479 461.08 278.892 461.239 279.255C461.635 280.159 462.356 280.415 463.097 280.093C463.537 279.902 463.919 279.751 463.919 279.751C464.604 279.465 465.35 279.113 466.106 279.113H466.324C467.081 279.113 467.702 279.694 467.773 280.448C467.969 282.505 468.466 284.523 469.25 286.432C469.53 287.111 469.274 287.891 468.638 288.258L468.366 288.416C467.711 288.793 466.889 288.861 466.154 288.957C466.154 288.957 465.746 289.017 465.27 289.07C464.467 289.163 463.971 289.744 464.079 290.726C464.124 291.119 464.262 291.516 464.468 291.874C464.675 292.232 464.949 292.55 465.268 292.784C466.064 293.37 466.816 293.231 467.297 292.581C467.582 292.196 467.837 291.874 467.837 291.874C468.288 291.284 468.758 290.606 469.412 290.228L469.596 290.122C470.254 289.742 471.082 289.937 471.522 290.556C472.696 292.21 474.127 293.709 475.796 294.989C476.379 295.437 476.548 296.242 476.18 296.878L476.021 297.155C475.643 297.809 474.965 298.279 474.376 298.729C474.376 298.729 474.052 298.984 473.668 299.269C473.018 299.75 472.879 300.503 473.464 301.299C473.698 301.617 474.016 301.892 474.375 302.099C474.733 302.306 475.13 302.443 475.523 302.486C476.505 302.596 477.087 302.099 477.178 301.296C477.233 300.821 477.293 300.414 477.293 300.414C477.387 299.678 477.455 298.855 477.834 298.201L477.945 298.009C478.324 297.352 479.138 297.105 479.827 297.422C481.743 298.304 483.735 298.872 485.742 299.14C486.47 299.237 487.02 299.848 487.02 300.584V300.895C487.02 301.651 486.668 302.397 486.382 303.082C486.382 303.082 486.23 303.464 486.039 303.904C485.717 304.645 485.973 305.366 486.878 305.762C487.241 305.921 487.654 306 488.066 306C488.479 306 488.892 305.921 489.255 305.762C490.16 305.366 490.416 304.645 490.094 303.904C489.902 303.464 489.751 303.082 489.751 303.082C489.465 302.397 489.113 301.651 489.113 300.895V300.677C489.113 299.92 489.695 299.298 490.449 299.227C492.505 299.032 494.523 298.535 496.432 297.75C497.112 297.471 497.892 297.727 498.258 298.362L498.416 298.636C498.793 299.29 498.861 300.112 498.957 300.847C498.957 300.847 499.017 301.255 499.071 301.73C499.163 302.533 499.744 303.03 500.726 302.921C501.119 302.878 501.516 302.739 501.875 302.533C502.232 302.326 502.55 302.051 502.784 301.732C503.37 300.936 503.231 300.185 502.582 299.703C502.197 299.419 501.874 299.163 501.874 299.163C501.284 298.713 500.606 298.243 500.228 297.588L500.122 297.404C499.742 296.748 499.937 295.918 500.556 295.479C502.21 294.305 503.709 292.874 504.989 291.205C505.437 290.622 506.242 290.453 506.878 290.82L507.155 290.98C507.809 291.357 508.279 292.035 508.73 292.625C508.73 292.625 508.984 292.948 509.27 293.332C509.751 293.983 510.503 294.121 511.299 293.536C511.617 293.302 511.893 292.984 512.099 292.626C512.306 292.268 512.443 291.87 512.487 291.478C512.596 290.496 512.1 289.914 511.296 289.822C510.822 289.768 510.414 289.708 510.414 289.708C509.679 289.613 508.856 289.545 508.201 289.167L508.01 289.056C507.352 288.677 507.105 287.862 507.422 287.173C508.304 285.258 508.872 283.265 509.14 281.259C509.237 280.53 509.849 279.981 510.584 279.981H510.896C511.651 279.981 512.397 280.333 513.082 280.619C513.082 280.619 513.464 280.771 513.904 280.961C514.645 281.283 515.366 281.027 515.762 280.123C515.921 279.76 516 279.347 516 278.934C516 278.521 515.921 278.108 515.762 277.746Z" stroke="white"/>
</g>
<g opacity="0.15">
<path fill-rule="evenodd" clip-rule="evenodd" d="M486.536 269.661C486.536 272.372 484.337 274.571 481.625 274.571C478.913 274.571 476.714 272.372 476.714 269.661C476.714 266.948 478.913 264.75 481.625 264.75C484.337 264.75 486.536 266.948 486.536 269.661Z" stroke="white"/>
<path fill-rule="evenodd" clip-rule="evenodd" d="M499.304 289.304C499.304 290.931 497.985 292.25 496.358 292.25C494.73 292.25 493.411 290.931 493.411 289.304C493.411 287.676 494.73 286.357 496.358 286.357C497.985 286.357 499.304 287.676 499.304 289.304Z" stroke="white"/>
<path fill-rule="evenodd" clip-rule="evenodd" d="M480.643 282.429C480.643 284.056 479.324 285.375 477.696 285.375C476.069 285.375 474.75 284.056 474.75 282.429C474.75 280.801 476.069 279.482 477.696 279.482C479.324 279.482 480.643 280.801 480.643 282.429Z" stroke="white"/>
<path fill-rule="evenodd" clip-rule="evenodd" d="M492.429 282.429C492.429 284.056 491.109 285.375 489.482 285.375C487.855 285.375 486.536 284.056 486.536 282.429C486.536 280.801 487.855 279.482 489.482 279.482C491.109 279.482 492.429 280.801 492.429 282.429Z" stroke="white"/>
<path fill-rule="evenodd" clip-rule="evenodd" d="M504.214 279.973C504.214 281.329 503.115 282.429 501.759 282.429C500.403 282.429 499.304 281.329 499.304 279.973C499.304 278.618 500.403 277.518 501.759 277.518C503.115 277.518 504.214 278.618 504.214 279.973Z" stroke="white"/>
<path fill-rule="evenodd" clip-rule="evenodd" d="M489.482 292.741C489.482 293.554 488.823 294.214 488.009 294.214C487.195 294.214 486.536 293.554 486.536 292.741C486.536 291.927 487.195 291.268 488.009 291.268C488.823 291.268 489.482 291.927 489.482 292.741Z" stroke="white"/>
<path fill-rule="evenodd" clip-rule="evenodd" d="M497.339 271.134C497.339 271.947 496.679 272.607 495.866 272.607C495.052 272.607 494.393 271.947 494.393 271.134C494.393 270.32 495.052 269.661 495.866 269.661C496.679 269.661 497.339 270.32 497.339 271.134Z" stroke="white"/>
<path fill-rule="evenodd" clip-rule="evenodd" d="M515.762 277.746C515.366 276.841 514.645 276.586 513.904 276.907C513.464 277.098 513.082 277.25 513.082 277.25C512.397 277.536 511.651 277.888 510.896 277.888H510.678C509.92 277.888 509.299 277.306 509.227 276.552C509.033 274.495 508.535 272.477 507.751 270.568C507.472 269.889 507.727 269.109 508.363 268.743L508.636 268.584C509.29 268.207 510.113 268.139 510.848 268.044C510.848 268.044 511.255 267.984 511.73 267.93C512.534 267.838 513.03 267.256 512.921 266.274C512.878 265.881 512.74 265.484 512.533 265.126C512.326 264.768 512.051 264.45 511.733 264.216C510.936 263.631 510.186 263.769 509.703 264.419C509.419 264.804 509.163 265.127 509.163 265.127C508.713 265.716 508.243 266.395 507.588 266.773L507.405 266.879C506.748 267.258 505.918 267.063 505.479 266.444C504.305 264.79 502.874 263.292 501.206 262.011C500.622 261.563 500.453 260.758 500.82 260.122L500.98 259.846C501.357 259.191 502.036 258.721 502.626 258.271C502.626 258.271 502.948 258.016 503.333 257.731C503.983 257.25 504.122 256.497 503.537 255.702C503.302 255.383 502.984 255.108 502.626 254.901C502.269 254.695 501.871 254.557 501.478 254.514C500.497 254.404 499.914 254.901 499.822 255.704C499.768 256.179 499.709 256.586 499.709 256.586C499.613 257.322 499.545 258.145 499.168 258.8L499.057 258.991C498.678 259.649 497.862 259.895 497.173 259.578C495.258 258.697 493.266 258.128 491.26 257.86C490.53 257.763 489.981 257.152 489.981 256.417V256.106C489.981 255.35 490.333 254.604 490.619 253.919C490.619 253.919 490.771 253.537 490.961 253.097C491.284 252.356 491.027 251.634 490.123 251.239C489.761 251.08 489.348 251 488.934 251C488.521 251 488.108 251.08 487.746 251.239C486.841 251.634 486.586 252.356 486.907 253.097C487.099 253.537 487.25 253.919 487.25 253.919C487.536 254.604 487.888 255.35 487.888 256.106V256.323C487.888 257.081 487.307 257.702 486.552 257.773C484.495 257.968 482.477 258.465 480.569 259.25C479.89 259.529 479.11 259.274 478.743 258.638L478.585 258.365C478.207 257.71 478.139 256.889 478.044 256.153C478.044 256.153 477.984 255.746 477.93 255.27C477.839 254.467 477.257 253.97 476.274 254.079C475.882 254.123 475.484 254.261 475.126 254.468C474.769 254.674 474.451 254.949 474.216 255.268C473.631 256.064 473.77 256.816 474.42 257.297C474.805 257.582 475.127 257.837 475.127 257.837C475.716 258.288 476.395 258.758 476.773 259.412L476.88 259.596C477.258 260.253 477.063 261.082 476.444 261.522C474.791 262.696 473.292 264.127 472.011 265.795C471.564 266.378 470.758 266.548 470.122 266.18L469.846 266.02C469.191 265.643 468.722 264.965 468.271 264.375C468.271 264.375 468.016 264.052 467.731 263.668C467.25 263.018 466.498 262.879 465.702 263.464C465.383 263.698 465.108 264.016 464.902 264.374C464.696 264.732 464.557 265.13 464.514 265.523C464.405 266.504 464.901 267.087 465.704 267.178C466.18 267.233 466.587 267.292 466.587 267.292C467.323 267.387 468.146 267.455 468.8 267.833L468.992 267.944C469.649 268.323 469.896 269.138 469.578 269.827C468.697 271.743 468.128 273.735 467.861 275.741C467.763 276.47 467.153 277.019 466.417 277.019H466.106C465.35 277.019 464.604 276.667 463.919 276.381C463.919 276.381 463.537 276.23 463.097 276.039C462.356 275.717 461.635 275.973 461.239 276.877C461.08 277.24 461 277.653 461 278.067C461 278.479 461.08 278.892 461.239 279.255C461.635 280.159 462.356 280.415 463.097 280.093C463.537 279.902 463.919 279.751 463.919 279.751C464.604 279.465 465.35 279.113 466.106 279.113H466.324C467.081 279.113 467.702 279.694 467.773 280.448C467.969 282.505 468.466 284.523 469.25 286.432C469.53 287.111 469.274 287.891 468.638 288.258L468.366 288.416C467.711 288.793 466.889 288.861 466.154 288.957C466.154 288.957 465.746 289.017 465.27 289.07C464.467 289.163 463.971 289.744 464.079 290.726C464.124 291.119 464.262 291.516 464.468 291.874C464.675 292.232 464.949 292.55 465.268 292.784C466.064 293.37 466.816 293.231 467.297 292.581C467.582 292.196 467.837 291.874 467.837 291.874C468.288 291.284 468.758 290.606 469.412 290.228L469.596 290.122C470.254 289.742 471.082 289.937 471.522 290.556C472.696 292.21 474.127 293.709 475.796 294.989C476.379 295.437 476.548 296.242 476.18 296.878L476.021 297.155C475.643 297.809 474.965 298.279 474.376 298.729C474.376 298.729 474.052 298.984 473.668 299.269C473.018 299.75 472.879 300.503 473.464 301.299C473.698 301.617 474.016 301.892 474.375 302.099C474.733 302.306 475.13 302.443 475.523 302.486C476.505 302.596 477.087 302.099 477.178 301.296C477.233 300.821 477.293 300.414 477.293 300.414C477.387 299.678 477.455 298.855 477.834 298.201L477.945 298.009C478.324 297.352 479.138 297.105 479.827 297.422C481.743 298.304 483.735 298.872 485.742 299.14C486.47 299.237 487.02 299.848 487.02 300.584V300.895C487.02 301.651 486.668 302.397 486.382 303.082C486.382 303.082 486.23 303.464 486.039 303.904C485.717 304.645 485.973 305.366 486.878 305.762C487.241 305.921 487.654 306 488.066 306C488.479 306 488.892 305.921 489.255 305.762C490.16 305.366 490.416 304.645 490.094 303.904C489.902 303.464 489.751 303.082 489.751 303.082C489.465 302.397 489.113 301.651 489.113 300.895V300.677C489.113 299.92 489.695 299.298 490.449 299.227C492.505 299.032 494.523 298.535 496.432 297.75C497.112 297.471 497.892 297.727 498.258 298.362L498.416 298.636C498.793 299.29 498.861 300.112 498.957 300.847C498.957 300.847 499.017 301.255 499.071 301.73C499.163 302.533 499.744 303.03 500.726 302.921C501.119 302.878 501.516 302.739 501.875 302.533C502.232 302.326 502.55 302.051 502.784 301.732C503.37 300.936 503.231 300.185 502.582 299.703C502.197 299.419 501.874 299.163 501.874 299.163C501.284 298.713 500.606 298.243 500.228 297.588L500.122 297.404C499.742 296.748 499.937 295.918 500.556 295.479C502.21 294.305 503.709 292.874 504.989 291.205C505.437 290.622 506.242 290.453 506.878 290.82L507.155 290.98C507.809 291.357 508.279 292.035 508.73 292.625C508.73 292.625 508.984 292.948 509.27 293.332C509.751 293.983 510.503 294.121 511.299 293.536C511.617 293.302 511.893 292.984 512.099 292.626C512.306 292.268 512.443 291.87 512.487 291.478C512.596 290.496 512.1 289.914 511.296 289.822C510.822 289.768 510.414 289.708 510.414 289.708C509.679 289.613 508.856 289.545 508.201 289.167L508.01 289.056C507.352 288.677 507.105 287.862 507.422 287.173C508.304 285.258 508.872 283.265 509.14 281.259C509.237 280.53 509.849 279.981 510.584 279.981H510.896C511.651 279.981 512.397 280.333 513.082 280.619C513.082 280.619 513.464 280.771 513.904 280.961C514.645 281.283 515.366 281.027 515.762 280.123C515.921 279.76 516 279.347 516 278.934C516 278.521 515.921 278.108 515.762 277.746Z" stroke="white"/>
</g>
</g>
<defs>
<filter id="filter0_d_0_6" x="0.5" y="-20.5" width="1447" height="955" filterUnits="userSpaceOnUse" color-interpolation-filters="sRGB">
<feFlood flood-opacity="0" result="BackgroundImageFix"/>
<feColorMatrix in="SourceAlpha" type="matrix" values="0 0 0 0 0 0 0 0 0 0 0 0 0 0 0 0 0 0 127 0" result="hardAlpha"/>
<feOffset dy="4"/>
<feGaussianBlur stdDeviation="2"/>
<feComposite in2="hardAlpha" operator="out"/>
<feColorMatrix type="matrix" values="0 0 0 0 0 0 0 0 0 0 0 0 0 0 0 0 0 0 0.25 0"/>
<feBlend mode="normal" in2="BackgroundImageFix" result="effect1_dropShadow_0_6"/>
<feBlend mode="normal" in="SourceGraphic" in2="effect1_dropShadow_0_6" result="shape"/>
</filter>
</defs>
</svg>
