<svg width="108" height="109" viewBox="0 0 108 109" fill="none" xmlns="http://www.w3.org/2000/svg">
<mask id="mask0_0_577" style="mask-type:alpha" maskUnits="userSpaceOnUse" x="0" y="0" width="108" height="109">
<path fill-rule="evenodd" clip-rule="evenodd" d="M0.236416 54.4224C0.236416 84.3296 24.2997 108.574 53.984 108.574C83.6674 108.574 107.731 84.3296 107.731 54.4224C107.731 24.5155 83.6674 0.270691 53.984 0.270691C24.2997 0.270691 0.236416 24.5155 0.236416 54.4224Z" fill="white"/>
</mask>
<g mask="url(#mask0_0_577)">
<path fill-rule="evenodd" clip-rule="evenodd" d="M123.058 54.4224C123.058 92.8578 92.1323 124.016 53.984 124.016C15.8351 124.016 -15.0904 92.8578 -15.0904 54.4224C-15.0904 15.9868 15.8351 -15.1711 53.984 -15.1711C92.1323 -15.1711 123.058 15.9868 123.058 54.4224Z" fill="#E4E5F7"/>
</g>
<path fill-rule="evenodd" clip-rule="evenodd" d="M34.6837 64.6492C32.8847 61.714 24.087 53.8679 25.0672 42.4703C25.343 39.2626 26.1884 29.4349 33.7288 22.0879C35.3598 20.4989 39.4901 16.5826 46.0651 15.4775C54.2707 14.0984 63.6505 20.16 63.6505 20.16C63.6505 20.16 65.8158 22.2143 66.2756 22.6388C68.8262 24.993 71.4868 25.7103 72.8373 26.4949C78.2062 29.6147 77.2963 42.1913 77.0368 45.7752C76.4066 54.4838 70.0278 60.1811 67.4731 64.5052C68.641 61.5855 73.7309 57.021 73.0997 49.9068C72.7488 45.949 71.9425 36.8607 65.4879 32.5544C60.8102 29.4335 55.5318 30.4029 51.3145 31.1774C41.1086 33.0514 34.1064 39.4364 30.5791 43.2964C29.589 46.0647 32.3941 50.1644 32.8465 56.1106C33.1125 59.6123 33.9096 62.5126 34.6837 64.6492Z" fill="#262C7C"/>
<mask id="mask1_0_577" style="mask-type:alpha" maskUnits="userSpaceOnUse" x="0" y="0" width="108" height="109">
<path fill-rule="evenodd" clip-rule="evenodd" d="M0.236416 54.4224C0.236416 84.3296 24.2997 108.574 53.984 108.574C83.6674 108.574 107.731 84.3296 107.731 54.4224C107.731 24.5155 83.6674 0.270691 53.984 0.270691C24.2997 0.270691 0.236416 24.5155 0.236416 54.4224Z" fill="white"/>
</mask>
<g mask="url(#mask1_0_577)">
<path fill-rule="evenodd" clip-rule="evenodd" d="M35.7085 29.6748C35.5481 29.4077 38.5221 26.6105 42.7589 24.4524C46.554 22.5191 49.4733 22.0606 49.394 21.5512C49.3224 21.0879 46.8268 20.918 44.4177 21.406C41.0419 22.0901 39.0423 23.8219 38.8881 23.5822C38.7301 23.3363 40.6058 21.1782 43.4501 19.8102C46.3431 18.4189 48.9777 18.452 51.1915 18.5047C53.3246 18.5557 56.6782 18.909 60.5917 20.5358C58.5435 20.7269 55.5382 21.1383 52.0206 22.1313C42.2331 24.8942 35.9366 30.0546 35.7085 29.6748Z" fill="#8591FF"/>
<path fill-rule="evenodd" clip-rule="evenodd" d="M59.2674 74.9877C57.7182 76.0388 55.7114 77.2072 53.2573 78.213C50.3972 79.3846 47.7952 79.9749 45.7497 80.2867L46.2586 70.5097H58.9035L59.2674 74.9877Z" fill="#9195CB"/>
<path fill-rule="evenodd" clip-rule="evenodd" d="M60.0404 84.5053H45.5308L45.7498 80.2869C47.795 79.9751 50.3973 79.3845 53.2574 78.2132C55.7115 77.2074 57.718 76.0391 59.2675 74.9876L60.0404 84.5053Z" fill="#E4E5F7"/>
<path fill-rule="evenodd" clip-rule="evenodd" d="M29.9778 55.2906C27.2819 54.5408 25.3012 52.0522 25.3012 49.0961C25.3012 45.9092 27.6041 43.2646 30.6219 42.7587" fill="#9195CB"/>
<path fill-rule="evenodd" clip-rule="evenodd" d="M74.2021 51.9289C76.55 50.9812 78.2088 48.6646 78.2088 45.9612C78.2088 42.4113 75.352 39.533 71.8285 39.533C71.7672 39.533 71.7093 39.533 71.648 39.5392" fill="#9195CB"/>
<path fill-rule="evenodd" clip-rule="evenodd" d="M74.2694 50.1466C74.2694 62.6317 64.224 72.7527 51.8321 72.7527C39.4405 72.7527 29.3947 62.6317 29.3947 50.1466C29.3947 37.6616 39.4405 27.5406 51.8321 27.5406C64.224 27.5406 74.2694 37.6616 74.2694 50.1466Z" fill="#BEC1E0"/>
<path fill-rule="evenodd" clip-rule="evenodd" d="M55.3573 60.3658C54.4137 61.1901 53.1801 61.6897 51.8306 61.6897C50.4843 61.6897 49.2507 61.1901 48.3071 60.3658C49.1927 59.4312 50.4455 58.8505 51.8306 58.8505C53.2186 58.8505 54.4717 59.4312 55.3573 60.3658Z" fill="#E4E5F7"/>
<path fill-rule="evenodd" clip-rule="evenodd" d="M55.9531 66.4437C55.0838 67.8097 53.5635 68.715 51.8305 68.715C50.1013 68.715 48.5807 67.8097 47.7114 66.4437C48.5807 65.0774 50.1013 64.1721 51.8305 64.1721C53.5635 64.1721 55.0838 65.0774 55.9531 66.4437Z" fill="#6468A1"/>
<path fill-rule="evenodd" clip-rule="evenodd" d="M56.7261 63.7828C56.7261 64.7627 56.4429 65.6776 55.9532 66.4438C55.0836 65.0775 53.5636 64.1721 51.8306 64.1721C50.1011 64.1721 48.5808 65.0775 47.7112 66.4438C47.2218 65.6776 46.9383 64.7627 46.9383 63.7828C46.9383 62.4556 47.4567 61.2518 48.3071 60.3658C49.2507 61.1901 50.4843 61.6897 51.8306 61.6897C53.1801 61.6897 54.4137 61.1901 55.3573 60.3658C56.2077 61.2518 56.7261 62.4556 56.7261 63.7828Z" fill="#131856"/>
<path d="M36.9721 37.4936C37.8086 37.5494 39.6457 37.5568 41.6406 36.5531C43.979 35.3761 45.1307 33.5162 45.5307 32.7903" stroke="#262C7C" stroke-width="1.4" stroke-linecap="round"/>
<path d="M56.5796 32.1631C57.2483 33.0708 58.4413 34.4529 60.314 35.6123C62.437 36.9267 64.4443 37.3425 65.6051 37.4937" stroke="#262C7C" stroke-width="1.4" stroke-linecap="round"/>
<path d="M56.1126 41.4134C56.4526 41.7473 57.3465 42.5358 58.7579 42.8244C60.2512 43.1299 61.4378 42.6944 61.8704 42.5111" stroke="#262C7C" stroke-width="1.4" stroke-linecap="round"/>
<path d="M39.6176 43.138C39.9567 43.2307 40.9808 43.4627 42.1072 42.9812C43.7219 42.2911 44.2184 40.7024 44.2859 40.4729" stroke="#262C7C" stroke-width="1.4" stroke-linecap="round"/>
<path d="M49.2655 41.8839C47.0147 47.7302 46.7117 52.7165 48.4874 54.2696C49.5966 55.24 50.8216 55.3673 50.8216 55.3673C52.1895 55.5092 53.2485 54.845 53.6228 54.5833" stroke="#262C7C" stroke-width="1.4" stroke-linecap="round"/>
<path fill-rule="evenodd" clip-rule="evenodd" d="M95.3776 110.611C69.207 110.624 42.0322 110.611 15.436 110.611C16.6664 100.347 21.0884 94.9928 23.3171 92.7441C26.0097 90.0279 28.9147 88.3958 34.2292 85.414C37.8364 83.3889 41.1247 81.8119 43.8785 80.6048C45.8915 82.993 48.8965 84.5054 52.2525 84.5054C55.8209 84.5054 58.9935 82.7948 61.0067 80.1407C63.7925 80.6403 68.2084 81.6464 73.3323 83.7329C79.6934 86.3257 84.0125 88.0845 87.8839 92.2865C92.6765 97.4817 94.8202 106.315 95.3776 110.611Z" fill="#262C7C"/>
<path d="M43.9303 87.2462C45.4497 88.0464 48.9598 89.6315 53.6304 89.384C58.8209 89.1092 62.4172 86.7317 63.7854 85.7193" stroke="#1B1464" stroke-width="8" stroke-linecap="round"/>
<path fill-rule="evenodd" clip-rule="evenodd" d="M39.6555 72.2872C39.6555 72.2872 37.2407 77.2529 33.8389 80.334C33.0533 81.0456 31.8614 81.033 31.1347 80.2603C30.4083 79.4876 30.4974 78.3235 31.2078 77.5358C33.8389 74.6188 39.6555 72.2872 39.6555 72.2872Z" fill="#EB0065"/>
<path fill-rule="evenodd" clip-rule="evenodd" d="M39.2896 70.5809C39.2896 70.5809 34.0971 72.3717 29.5294 72.1269C28.4742 72.0703 27.6401 71.2123 27.6688 70.1483C27.6972 69.0841 28.5772 68.3248 29.6327 68.2738C33.5402 68.0857 39.2896 70.5809 39.2896 70.5809Z" fill="#EB0065"/>
<path fill-rule="evenodd" clip-rule="evenodd" d="M41.2826 72.6657C41.2826 72.6657 43.0603 77.897 42.8171 82.4993C42.7608 83.5624 41.9093 84.4025 40.8532 84.3736C39.7972 84.3452 39.0433 83.4583 38.993 82.3953C38.806 78.4584 41.2826 72.6657 41.2826 72.6657Z" fill="#EB0065"/>
</g>
</svg>
