<svg width="51" height="52" viewBox="0 0 51 52" fill="none" xmlns="http://www.w3.org/2000/svg">
<path fill-rule="evenodd" clip-rule="evenodd" d="M49.7771 25.4099C49.4207 24.5966 48.7733 24.3677 48.1075 24.6565C47.7127 24.8278 47.3694 24.9645 47.3694 24.9645C46.7543 25.221 46.0838 25.5374 45.4056 25.5374H45.2098C44.5286 25.5374 43.971 25.0144 43.9065 24.337C43.7322 22.4892 43.2844 20.6767 42.5802 18.9618C42.3298 18.352 42.5587 17.6516 43.1301 17.3221L43.3751 17.18C43.9626 16.8413 44.7022 16.7799 45.3626 16.6946C45.3626 16.6946 45.7282 16.6409 46.1552 16.5917C46.8771 16.5095 47.3226 15.9865 47.225 15.1049C47.1859 14.7516 47.0622 14.3945 46.8764 14.0735C46.6905 13.7517 46.4432 13.466 46.1575 13.2555C45.4417 12.7302 44.7674 12.8546 44.3343 13.4383C44.0785 13.7839 43.8489 14.0742 43.8489 14.0742C43.4449 14.6034 43.0225 15.2132 42.4343 15.5526L42.2699 15.6479C41.6793 15.9881 40.9336 15.813 40.5396 15.2577C39.4851 13.7716 38.1995 12.4261 36.7011 11.2749C36.1766 10.8724 36.0245 10.1497 36.354 9.57835L36.4984 9.33028C36.8371 8.742 37.4469 8.3196 37.9768 7.91563C37.9768 7.91563 38.2663 7.686 38.6119 7.43025C39.1956 6.99787 39.3208 6.32203 38.7947 5.60779C38.5843 5.32132 38.2986 5.07403 37.9768 4.88817C37.6558 4.70308 37.2986 4.57867 36.9454 4.54027C36.0637 4.44196 35.5407 4.88817 35.4577 5.60932C35.4094 6.03633 35.3564 6.4019 35.3564 6.4019C35.2703 7.06315 35.2089 7.80196 34.8702 8.39025L34.7704 8.56228C34.4302 9.15288 33.6975 9.37406 33.0785 9.0899C31.3582 8.29809 29.5687 7.78737 27.7662 7.54622C27.1104 7.45867 26.6173 6.91032 26.6173 6.24984V5.97028C26.6173 5.29137 26.9337 4.62091 27.1902 4.00574C27.1902 4.00574 27.3269 3.66244 27.4982 3.26769C27.7877 2.60184 27.5573 1.95364 26.7448 1.59806C26.4199 1.45521 26.049 1.38379 25.6773 1.38379C25.3063 1.38379 24.9346 1.45521 24.6097 1.59806C23.7972 1.95364 23.5676 2.60184 23.8563 3.26769C24.0284 3.66244 24.1643 4.00574 24.1643 4.00574C24.4208 4.62091 24.7372 5.29137 24.7372 5.97028V6.16536C24.7372 6.84657 24.215 7.40414 23.5368 7.46788C21.6898 7.64299 19.8766 8.08996 18.1624 8.79499C17.5526 9.04536 16.8522 8.81649 16.5219 8.2451L16.3806 8.00011C16.0412 7.41182 15.9797 6.67377 15.8945 6.01252C15.8945 6.01252 15.8407 5.64696 15.7923 5.21918C15.7102 4.49803 15.1872 4.05182 14.3047 4.15012C13.9522 4.18929 13.5951 4.31294 13.2733 4.4988C12.9523 4.68388 12.6666 4.93118 12.4554 5.21764C11.9301 5.93265 12.0552 6.60849 12.6389 7.04011C12.9845 7.29662 13.2741 7.52548 13.2741 7.52548C13.8032 7.93022 14.413 8.35262 14.7525 8.94014L14.8485 9.10526C15.1887 9.69585 15.0128 10.4408 14.4576 10.8356C12.9722 11.89 11.6259 13.1757 10.4747 14.674C10.073 15.1978 9.34958 15.3506 8.77819 15.0204L8.53013 14.8768C7.94184 14.5373 7.52021 13.9283 7.11547 13.3984C7.11547 13.3984 6.88584 13.1088 6.6301 12.7632C6.19848 12.1796 5.52264 12.0544 4.80763 12.5805C4.52117 12.7909 4.27387 13.0766 4.08879 13.3976C3.9037 13.7194 3.77928 14.0765 3.74011 14.4298C3.64258 15.3115 4.08802 15.8345 4.80917 15.9167C5.23695 15.9658 5.60251 16.0188 5.60251 16.0188C6.26376 16.1048 7.00258 16.1655 7.5901 16.5049L7.7629 16.6048C8.35272 16.945 8.57467 17.6777 8.28898 18.2967C7.49794 20.017 6.98722 21.8064 6.74683 23.6089C6.65851 24.264 6.11093 24.7571 5.44968 24.7571H5.17013C4.49122 24.7571 3.82075 24.4407 3.20559 24.1842C3.20559 24.1842 2.86229 24.0482 2.46754 23.877C1.80168 23.5874 1.15426 23.8171 0.797905 24.6296C0.655057 24.9552 0.583633 25.3262 0.583633 25.6979C0.583633 26.0688 0.655057 26.4398 0.797905 26.7654C1.15426 27.578 1.80168 27.8076 2.46754 27.5181C2.86229 27.3468 3.20559 27.2109 3.20559 27.2109C3.82075 26.9543 4.49122 26.6379 5.17013 26.6379H5.36597C6.04642 26.6379 6.60398 27.1602 6.66773 27.8375C6.8436 29.6854 7.29058 31.4978 7.99483 33.2128C8.24597 33.8226 8.01634 34.523 7.44494 34.8532L7.20072 34.9945C6.61243 35.334 5.87362 35.3947 5.21314 35.4807C5.21314 35.4807 4.8468 35.5344 4.41903 35.5828C3.69787 35.6658 3.25243 36.188 3.34997 37.0704C3.38991 37.423 3.51355 37.7801 3.69864 38.1011C3.8845 38.4229 4.13103 38.7086 4.41749 38.919C5.1325 39.4451 5.80834 39.3199 6.24072 38.7362C6.49646 38.3906 6.72533 38.1011 6.72533 38.1011C7.13006 37.5712 7.55246 36.9622 8.13998 36.6227L8.30587 36.5275C8.89647 36.1865 9.64066 36.3616 10.0354 36.9176C11.0899 38.4029 12.3755 39.7492 13.8746 40.8997C14.3984 41.3021 14.5505 42.0248 14.2202 42.5962L14.0774 42.845C13.7372 43.4326 13.1281 43.855 12.599 44.2589C12.599 44.2589 12.3087 44.4886 11.9631 44.7443C11.3794 45.1767 11.255 45.8525 11.7803 46.5675C11.9907 46.8532 12.2764 47.1005 12.5982 47.2864C12.92 47.4722 13.2771 47.5959 13.6296 47.6343C14.5121 47.7326 15.0343 47.2864 15.1165 46.5652C15.1656 46.1382 15.2194 45.7726 15.2194 45.7726C15.3047 45.1114 15.3653 44.3726 15.7056 43.7851L15.8054 43.6123C16.1456 43.0224 16.8775 42.8005 17.4965 43.0854C19.2168 43.8772 21.0063 44.3872 22.8096 44.6283C23.4639 44.7159 23.9577 45.2642 23.9577 45.9255V46.205C23.9577 46.8839 23.6413 47.5544 23.3848 48.1696C23.3848 48.1696 23.2481 48.5129 23.0768 48.9076C22.7873 49.5735 23.0169 50.2209 23.8302 50.5773C24.1559 50.7201 24.5268 50.7908 24.897 50.7908C25.2687 50.7908 25.6396 50.7201 25.9653 50.5773C26.7786 50.2209 27.0082 49.5735 26.7187 48.9076C26.5466 48.5129 26.4107 48.1696 26.4107 48.1696C26.1542 47.5544 25.8378 46.8839 25.8378 46.205V46.0092C25.8378 45.3287 26.3608 44.7704 27.0382 44.7067C28.8852 44.5316 30.6977 44.0846 32.4126 43.3796C33.0232 43.1292 33.7236 43.3588 34.0531 43.9295L34.1944 44.1752C34.5338 44.7627 34.5945 45.5015 34.6805 46.162C34.6805 46.162 34.7343 46.5284 34.7834 46.9554C34.8656 47.6765 35.3879 48.1227 36.2703 48.0244C36.6228 47.986 36.9799 47.8616 37.3017 47.6765C37.6227 47.4907 37.9084 47.2434 38.1189 46.9569C38.6449 46.2419 38.5205 45.5668 37.9368 45.1344C37.5912 44.8787 37.3009 44.6491 37.3009 44.6491C36.771 44.2451 36.162 43.8227 35.8225 43.2344L35.7273 43.0693C35.3863 42.4795 35.5614 41.7337 36.1175 41.3398C37.6028 40.2853 38.9491 38.9997 40.0995 37.5005C40.502 36.9767 41.2247 36.8247 41.796 37.1542L42.0449 37.2978C42.6324 37.6372 43.0548 38.2463 43.4595 38.7762C43.4595 38.7762 43.6884 39.0665 43.9449 39.4113C44.3773 39.9958 45.0524 40.1202 45.7674 39.5941C46.0531 39.3837 46.3011 39.098 46.4862 38.7769C46.6721 38.4551 46.7957 38.098 46.8349 37.7455C46.9332 36.8631 46.487 36.3408 45.7651 36.2579C45.3388 36.2095 44.9725 36.1558 44.9725 36.1558C44.312 36.0705 43.5732 36.0091 42.9849 35.6696L42.8129 35.5698C42.2223 35.2295 42.0003 34.4969 42.2853 33.8786C43.0771 32.1583 43.587 30.3681 43.8282 28.5656C43.9157 27.9105 44.4648 27.4175 45.1253 27.4175H45.4056C46.0838 27.4175 46.7543 27.7339 47.3694 27.9904C47.3694 27.9904 47.7127 28.1271 48.1075 28.2983C48.7733 28.5871 49.4207 28.3575 49.7771 27.5449C49.9199 27.2193 49.9906 26.8484 49.9906 26.4774C49.9906 26.1065 49.9199 25.7348 49.7771 25.4099Z" fill="#FFEDEB"/>
<path fill-rule="evenodd" clip-rule="evenodd" d="M23.1978 18.2512C23.1978 20.5591 21.3262 22.4307 19.0184 22.4307C16.7105 22.4307 14.8389 20.5591 14.8389 18.2512C14.8389 15.9426 16.7105 14.0718 19.0184 14.0718C21.3262 14.0718 23.1978 15.9426 23.1978 18.2512Z" stroke="#FF3E29"/>
<path fill-rule="evenodd" clip-rule="evenodd" d="M34.9534 35.6287C34.9534 37.1693 33.7046 38.4181 32.164 38.4181C30.6234 38.4181 29.3739 37.1693 29.3739 35.6287C29.3739 34.0881 30.6234 32.8394 32.164 32.8394C33.7046 32.8394 34.9534 34.0881 34.9534 35.6287Z" stroke="#FF3E29"/>
<path fill-rule="evenodd" clip-rule="evenodd" d="M17.6284 29.4521C17.6284 30.9927 16.3796 32.2415 14.839 32.2415C13.2984 32.2415 12.0496 30.9927 12.0496 29.4521C12.0496 27.9115 13.2984 26.6627 14.839 26.6627C16.3796 26.6627 17.6284 27.9115 17.6284 29.4521Z" stroke="#FF3E29"/>
<path fill-rule="evenodd" clip-rule="evenodd" d="M28.7771 29.4521C28.7771 30.9927 27.5276 32.2415 25.987 32.2415C24.4464 32.2415 23.1976 30.9927 23.1976 29.4521C23.1976 27.9115 24.4464 26.6627 25.987 26.6627C27.5276 26.6627 28.7771 27.9115 28.7771 29.4521Z" stroke="#FF3E29"/>
<path fill-rule="evenodd" clip-rule="evenodd" d="M39.2464 27.7117C39.2464 28.8968 38.2856 29.8583 37.0998 29.8583C35.914 29.8583 34.9532 28.8968 34.9532 27.7117C34.9532 26.5267 35.914 25.5652 37.0998 25.5652C38.2856 25.5652 39.2464 26.5267 39.2464 27.7117Z" stroke="#FF3E29"/>
<path fill-rule="evenodd" clip-rule="evenodd" d="M26.2864 38.6438C26.2864 39.5124 25.5821 40.2166 24.7135 40.2166C23.8449 40.2166 23.1406 39.5124 23.1406 38.6438C23.1406 37.7751 23.8449 37.0717 24.7135 37.0717C25.5821 37.0717 26.2864 37.7751 26.2864 38.6438Z" stroke="#FF3E29"/>
<path fill-rule="evenodd" clip-rule="evenodd" d="M33.0484 18.9C33.0484 19.7686 32.3441 20.4728 31.4755 20.4728C30.6069 20.4728 29.9034 19.7686 29.9034 18.9C29.9034 18.0314 30.6069 17.3279 31.4755 17.3279C32.3441 17.3279 33.0484 18.0314 33.0484 18.9Z" stroke="#FF3E29"/>
<path fill-rule="evenodd" clip-rule="evenodd" d="M49.7771 25.4099C49.4207 24.5966 48.7733 24.3677 48.1075 24.6565C47.7127 24.8278 47.3694 24.9645 47.3694 24.9645C46.7543 25.221 46.0838 25.5374 45.4056 25.5374H45.2098C44.5286 25.5374 43.971 25.0144 43.9065 24.337C43.7322 22.4892 43.2844 20.6767 42.5802 18.9618C42.3298 18.352 42.5587 17.6516 43.1301 17.3221L43.3751 17.18C43.9626 16.8413 44.7022 16.7799 45.3626 16.6946C45.3626 16.6946 45.7282 16.6409 46.1552 16.5917C46.8771 16.5095 47.3226 15.9865 47.225 15.1049C47.1859 14.7516 47.0622 14.3945 46.8764 14.0735C46.6905 13.7517 46.4432 13.466 46.1575 13.2555C45.4417 12.7302 44.7674 12.8546 44.3343 13.4383C44.0785 13.7839 43.8489 14.0742 43.8489 14.0742C43.4449 14.6034 43.0225 15.2132 42.4343 15.5526L42.2699 15.6479C41.6793 15.9881 40.9336 15.813 40.5396 15.2577C39.4851 13.7716 38.1995 12.4261 36.7011 11.2749C36.1766 10.8724 36.0245 10.1497 36.354 9.57835L36.4984 9.33028C36.8371 8.742 37.4469 8.3196 37.9768 7.91563C37.9768 7.91563 38.2663 7.686 38.6119 7.43025C39.1956 6.99787 39.3208 6.32203 38.7947 5.60779C38.5843 5.32132 38.2986 5.07403 37.9768 4.88817C37.6558 4.70308 37.2986 4.57867 36.9454 4.54027C36.0637 4.44196 35.5407 4.88817 35.4577 5.60932C35.4094 6.03633 35.3564 6.4019 35.3564 6.4019C35.2703 7.06315 35.2089 7.80196 34.8702 8.39025L34.7704 8.56228C34.4302 9.15288 33.6975 9.37406 33.0785 9.0899C31.3582 8.29809 29.5687 7.78737 27.7662 7.54622C27.1104 7.45867 26.6173 6.91032 26.6173 6.24984V5.97028C26.6173 5.29137 26.9337 4.62091 27.1902 4.00574C27.1902 4.00574 27.3269 3.66244 27.4982 3.26769C27.7877 2.60184 27.5573 1.95365 26.7448 1.59806C26.4199 1.45521 26.049 1.38379 25.6773 1.38379C25.3063 1.38379 24.9346 1.45521 24.6097 1.59806C23.7972 1.95365 23.5676 2.60184 23.8563 3.26769C24.0284 3.66244 24.1643 4.00574 24.1643 4.00574C24.4208 4.62091 24.7372 5.29137 24.7372 5.97028V6.16536C24.7372 6.84657 24.215 7.40414 23.5368 7.46788C21.6898 7.64299 19.8766 8.08996 18.1624 8.79499C17.5526 9.04536 16.8522 8.81649 16.5219 8.2451L16.3806 8.00011C16.0412 7.41182 15.9797 6.67377 15.8945 6.01252C15.8945 6.01252 15.8407 5.64696 15.7923 5.21918C15.7102 4.49803 15.1872 4.05182 14.3047 4.15012C13.9522 4.18929 13.5951 4.31294 13.2733 4.4988C12.9523 4.68388 12.6666 4.93118 12.4554 5.21764C11.9301 5.93265 12.0552 6.60849 12.6389 7.04011C12.9845 7.29662 13.2741 7.52548 13.2741 7.52548C13.8032 7.93022 14.413 8.35262 14.7525 8.94014L14.8485 9.10526C15.1887 9.69585 15.0128 10.4408 14.4576 10.8356C12.9722 11.89 11.6259 13.1757 10.4747 14.674C10.073 15.1978 9.34958 15.3506 8.77819 15.0204L8.53013 14.8768C7.94184 14.5373 7.52021 13.9283 7.11547 13.3984C7.11547 13.3984 6.88584 13.1088 6.6301 12.7632C6.19848 12.1796 5.52264 12.0544 4.80763 12.5805C4.52117 12.7909 4.27387 13.0766 4.08879 13.3976C3.9037 13.7194 3.77928 14.0765 3.74011 14.4298C3.64258 15.3115 4.08802 15.8345 4.80917 15.9167C5.23695 15.9658 5.60251 16.0188 5.60251 16.0188C6.26376 16.1048 7.00258 16.1655 7.5901 16.5049L7.7629 16.6048C8.35272 16.945 8.57467 17.6777 8.28898 18.2967C7.49794 20.017 6.98722 21.8064 6.74683 23.6089C6.65851 24.264 6.11093 24.7571 5.44968 24.7571H5.17013C4.49122 24.7571 3.82075 24.4407 3.20559 24.1842C3.20559 24.1842 2.86229 24.0482 2.46754 23.877C1.80168 23.5874 1.15426 23.8171 0.797905 24.6296C0.655057 24.9552 0.583633 25.3262 0.583633 25.6979C0.583633 26.0688 0.655057 26.4398 0.797905 26.7654C1.15426 27.578 1.80168 27.8076 2.46754 27.5181C2.86229 27.3468 3.20559 27.2109 3.20559 27.2109C3.82075 26.9543 4.49122 26.6379 5.17013 26.6379H5.36597C6.04642 26.6379 6.60398 27.1602 6.66773 27.8375C6.8436 29.6854 7.29058 31.4978 7.99483 33.2128C8.24597 33.8226 8.01634 34.523 7.44494 34.8532L7.20072 34.9945C6.61243 35.334 5.87362 35.3947 5.21314 35.4807C5.21314 35.4807 4.8468 35.5344 4.41903 35.5828C3.69787 35.6658 3.25243 36.188 3.34997 37.0704C3.38991 37.423 3.51355 37.7801 3.69864 38.1011C3.8845 38.4229 4.13103 38.7086 4.41749 38.919C5.1325 39.4451 5.80834 39.3199 6.24072 38.7362C6.49646 38.3906 6.72533 38.1011 6.72533 38.1011C7.13006 37.5712 7.55246 36.9622 8.13998 36.6227L8.30587 36.5275C8.89646 36.1865 9.64066 36.3616 10.0354 36.9176C11.0899 38.4029 12.3755 39.7492 13.8746 40.8997C14.3984 41.3021 14.5505 42.0248 14.2202 42.5962L14.0774 42.845C13.7372 43.4326 13.1281 43.855 12.599 44.2589C12.599 44.2589 12.3087 44.4886 11.9631 44.7443C11.3794 45.1767 11.255 45.8525 11.7803 46.5675C11.9907 46.8532 12.2764 47.1005 12.5982 47.2864C12.92 47.4722 13.2771 47.5959 13.6296 47.6343C14.5121 47.7326 15.0343 47.2864 15.1165 46.5652C15.1656 46.1382 15.2194 45.7726 15.2194 45.7726C15.3047 45.1114 15.3653 44.3726 15.7056 43.7851L15.8054 43.6123C16.1456 43.0224 16.8775 42.8005 17.4965 43.0854C19.2168 43.8772 21.0063 44.3872 22.8096 44.6283C23.4639 44.7159 23.9577 45.2642 23.9577 45.9255V46.205C23.9577 46.8839 23.6413 47.5544 23.3848 48.1696C23.3848 48.1696 23.2481 48.5129 23.0768 48.9076C22.7873 49.5735 23.0169 50.2209 23.8302 50.5773C24.1559 50.7201 24.5268 50.7908 24.897 50.7908C25.2687 50.7908 25.6396 50.7201 25.9653 50.5773C26.7786 50.2209 27.0082 49.5735 26.7187 48.9076C26.5466 48.5129 26.4107 48.1696 26.4107 48.1696C26.1542 47.5544 25.8378 46.8839 25.8378 46.205V46.0092C25.8378 45.3287 26.3608 44.7704 27.0382 44.7067C28.8852 44.5316 30.6977 44.0846 32.4126 43.3796C33.0232 43.1292 33.7236 43.3588 34.0531 43.9295L34.1944 44.1752C34.5338 44.7627 34.5945 45.5015 34.6805 46.162C34.6805 46.162 34.7343 46.5284 34.7834 46.9554C34.8656 47.6765 35.3879 48.1227 36.2703 48.0244C36.6228 47.986 36.9799 47.8616 37.3017 47.6765C37.6227 47.4907 37.9084 47.2434 38.1189 46.9569C38.6449 46.2419 38.5205 45.5668 37.9368 45.1344C37.5912 44.8787 37.3009 44.6491 37.3009 44.6491C36.771 44.2451 36.162 43.8227 35.8225 43.2344L35.7273 43.0693C35.3863 42.4795 35.5614 41.7337 36.1175 41.3398C37.6028 40.2853 38.9491 38.9997 40.0995 37.5005C40.502 36.9767 41.2247 36.8247 41.796 37.1542L42.0449 37.2978C42.6324 37.6372 43.0548 38.2462 43.4595 38.7762C43.4595 38.7762 43.6884 39.0665 43.9449 39.4113C44.3773 39.9958 45.0524 40.1202 45.7674 39.5941C46.0531 39.3837 46.3011 39.098 46.4862 38.7769C46.6721 38.4551 46.7957 38.098 46.8349 37.7455C46.9332 36.8631 46.487 36.3408 45.7651 36.2579C45.3388 36.2095 44.9725 36.1558 44.9725 36.1558C44.312 36.0705 43.5732 36.0091 42.9849 35.6696L42.8129 35.5698C42.2223 35.2295 42.0003 34.4969 42.2853 33.8786C43.0771 32.1583 43.587 30.3681 43.8282 28.5656C43.9157 27.9105 44.4648 27.4175 45.1253 27.4175H45.4056C46.0838 27.4175 46.7543 27.7339 47.3694 27.9904C47.3694 27.9904 47.7127 28.1271 48.1075 28.2983C48.7733 28.5871 49.4207 28.3575 49.7771 27.5449C49.9199 27.2193 49.9906 26.8484 49.9906 26.4774C49.9906 26.1065 49.9199 25.7348 49.7771 25.4099Z" stroke="#FF3E29"/>
</svg>
