<svg width="108" height="108" viewBox="0 0 108 108" fill="none" xmlns="http://www.w3.org/2000/svg">
<mask id="mask0_0_469" style="mask-type:alpha" maskUnits="userSpaceOnUse" x="0" y="0" width="108" height="108">
<path fill-rule="evenodd" clip-rule="evenodd" d="M0.146664 54.0623C0.146664 83.8392 24.2855 107.978 54.0623 107.978C83.8394 107.978 107.978 83.8392 107.978 54.0623C107.978 24.2855 83.8394 0.146667 54.0623 0.146667C24.2855 0.146667 0.146664 24.2855 0.146664 54.0623Z" fill="white"/>
</mask>
<g mask="url(#mask0_0_469)">
<path fill-rule="evenodd" clip-rule="evenodd" d="M130.088 60.2337C130.088 101.119 96.9439 134.263 56.0589 134.263C15.1741 134.263 -17.9697 101.119 -17.9697 60.2337C-17.9697 19.3487 15.1741 -13.7949 56.0589 -13.7949C96.9439 -13.7949 130.088 19.3487 130.088 60.2337Z" fill="#E4E5F7"/>
</g>
<mask id="mask1_0_469" style="mask-type:alpha" maskUnits="userSpaceOnUse" x="0" y="0" width="108" height="108">
<path fill-rule="evenodd" clip-rule="evenodd" d="M0.146664 54.0623C0.146664 83.8392 24.2855 107.978 54.0623 107.978C83.8394 107.978 107.978 83.8392 107.978 54.0623C107.978 24.2855 83.8394 0.146667 54.0623 0.146667C24.2855 0.146667 0.146664 24.2855 0.146664 54.0623Z" fill="white"/>
</mask>
<g mask="url(#mask1_0_469)">
<path fill-rule="evenodd" clip-rule="evenodd" d="M76.1902 108.342C75.9833 108.347 75.7745 108.353 75.5676 108.36C74.9959 108.374 74.4243 108.391 73.8523 108.407C61.2136 108.757 48.5767 109.109 35.938 109.46C35.8835 108.85 35.8291 108.24 35.7764 107.63C35.6022 108.237 35.4279 108.841 35.2537 109.447C31.2059 109.001 27.1582 108.556 23.1105 108.109C23.8547 104.879 24.5971 99.8198 25.3395 96.5887C26.1236 92.904 26.9077 89.2211 27.692 85.5382C27.8988 84.9194 28.8229 82.3891 31.3893 81.1511C31.8884 80.9116 33.729 80.0239 35.5878 80.6501C36.4083 80.9262 36.419 81.222 37.1559 81.527C38.441 82.0586 42.6705 80.5885 42.6705 80.5885C43.91 80.091 45.5073 79.3958 47.3315 78.4574C50.6786 78.285 54.0257 78.1127 57.373 77.9403C56.674 80.5702 56.0841 82.4144 56.0841 82.4144C55.7973 83.3147 55.4923 84.2513 55.1729 85.2206C55.3362 85.2679 55.5052 85.3151 55.6757 85.3567C56.3981 85.5382 57.0987 85.6417 57.7667 85.6889C58.4002 83.2366 58.9774 80.5702 59.384 77.835C60.6927 77.7678 62.0032 77.7005 63.3139 77.6333C63.7856 77.6081 64.2577 77.5845 64.7313 77.5609C67.9043 77.3957 71.077 77.2322 74.25 77.069C74.5475 81.5996 74.8472 86.1319 75.1465 90.6625C75.2393 92.0765 75.3318 93.4921 75.426 94.9061C75.4333 95.0188 75.4406 95.133 75.4478 95.2457C75.6949 99.001 75.9435 104.586 76.1902 108.342Z" fill="#262C7C"/>
<path fill-rule="evenodd" clip-rule="evenodd" d="M58.8576 71.5129C58.4238 73.7999 57.8702 76.0688 57.3728 77.9402C56.674 80.5701 56.0841 82.4145 56.0841 82.4145C55.7973 83.3148 55.4924 84.2514 55.1729 85.2207C49.9671 83.6796 47.6746 79.1691 47.3316 78.4575C47.3298 78.4539 47.3298 78.4519 47.3279 78.4484C48.4061 75.9327 49.4843 73.4169 50.5625 70.9012C53.3287 71.1044 56.0932 71.3096 58.8576 71.5129Z" fill="#E4E5F7"/>
<path fill-rule="evenodd" clip-rule="evenodd" d="M48.6942 71.3925C48.1901 74.8458 50.6634 77.999 53.9059 78.3744C57.2884 78.7659 60.5135 76.0196 60.5928 72.3759C56.6266 72.0479 52.6604 71.7203 48.6942 71.3925Z" fill="#9195CB"/>
<path fill-rule="evenodd" clip-rule="evenodd" d="M81.2763 51.5193C81.2763 64.3467 70.8776 74.7453 58.0503 74.7453C45.2232 74.7453 34.8245 64.3467 34.8245 51.5193C34.8245 38.6922 45.2232 28.2935 58.0503 28.2935C70.8776 28.2935 81.2763 38.6922 81.2763 51.5193Z" fill="#BEC1E0"/>
<path fill-rule="evenodd" clip-rule="evenodd" d="M65.2142 71.9829C65.0545 73.8416 64.8929 75.7021 64.7314 77.5608C64.5317 79.8642 64.332 82.1676 64.1324 84.471C63.5316 84.756 62.0976 85.3804 60.1681 85.62C59.433 85.7125 58.6271 85.747 57.7667 85.689C58.4002 83.2367 58.9774 80.5703 59.384 77.8349C59.6327 76.1523 59.8178 74.4442 59.9122 72.7398C59.934 72.3423 59.9558 71.963 59.9757 71.5963C61.4278 71.7034 62.8799 71.8105 64.332 71.9176L65.2142 71.9829Z" fill="#FFD6B0"/>
<path fill-rule="evenodd" clip-rule="evenodd" d="M87.6147 86.6165C87.337 87.6312 86.8433 88.7711 86.168 89.891C85.6035 90.4864 85.0753 90.9438 84.7214 91.2487C84.6994 91.2669 84.6778 91.285 84.656 91.3032C84.6994 91.4792 84.7414 91.6571 84.7849 91.8332C83.3165 93.5848 81.4015 95.0278 79.2216 95.4542C77.8546 95.723 76.615 95.5449 75.4479 95.2456C75.3935 95.2311 75.3408 95.2184 75.2882 95.2021C74.711 95.0496 74.1501 94.8681 73.6019 94.7011C73.2879 94.6049 72.9775 94.5123 72.669 94.4324C72.6635 94.4306 72.6599 94.4288 72.6562 94.4288C71.2931 94.0785 69.9771 93.9567 68.6013 94.712C67.1655 95.4979 67.4686 96.2494 64.5916 99.9105C61.8653 103.377 60.504 105.113 58.7252 105.405C54.7391 106.064 50.7749 99.3315 50.3611 98.6127C52.2742 93.6737 53.8642 89.1704 55.173 85.2207C55.3363 85.2679 55.5051 85.3151 55.6757 85.3568C56.3982 85.5383 57.0988 85.6418 57.7668 85.689C58.4002 83.2367 58.9775 80.5701 59.384 77.8349C59.6327 76.1523 59.8179 74.4441 59.9122 72.7399C59.934 72.3424 59.9558 71.963 59.9758 71.5963C60.1936 67.5649 60.2753 65.3051 59.9122 62.2374C59.4439 58.2679 58.638 56.1079 58.8123 54.8609C58.9212 54.7647 59.0864 54.7102 59.3024 54.6993C63.5298 54.496 87.3314 70.3711 87.9469 83.4872V83.489C87.9959 84.5527 87.8924 85.5982 87.6147 86.6165Z" fill="#E4E5F7"/>
<path fill-rule="evenodd" clip-rule="evenodd" d="M43.5811 59.0156C45.9226 67.0328 52.1599 73.409 49.4457 77.9352C48.7525 79.0912 47.8179 79.7598 46.13 80.5708C41.0793 82.9976 35.8989 82.3853 33.7178 82.1011C28.5235 81.4239 24.4257 79.4773 21.6456 77.7653C17.2251 52.1649 21.5736 30.4951 31.0325 21.0107C37.9485 14.076 45.6381 11.9456 45.6381 11.9456C47.4177 11.4526 53.2025 10.3666 60.1212 11.5197C65.7263 13.1806 70.3217 17.0548 73.7739 21.7716C75.0294 23.487 78.2382 27.7453 80.5679 37.078C84.9563 54.6576 82.4157 73.8962 79.1098 74.2262C78.6976 74.2672 78.0343 74.0381 77.0914 72.4827C76.3219 62.0027 75.5525 51.5227 74.7831 41.0426C73.3805 40.7204 71.2893 40.2998 68.7271 40.0143C64.0499 39.4932 61.3564 39.8114 58.466 39.7277C55.4307 39.64 51.1336 39.0766 45.8788 36.8948C41.6458 47.0525 42.1834 54.2302 43.5811 59.0156Z" fill="#262C7C"/>
<path d="M59.3289 48.9954C58.0666 51.4019 58.1274 54.1523 59.5354 56.0832C60.5234 57.4384 61.8887 57.9969 62.5632 58.2166" stroke="#262C7C" stroke-width="1.4" stroke-linecap="round" stroke-linejoin="round"/>
<path fill-rule="evenodd" clip-rule="evenodd" d="M88.2463 108.008C84.2276 108.118 80.2091 108.231 76.1902 108.342L75.2881 95.202L75.2629 94.9027L74.9162 90.5516L73.7345 75.7438C75.958 75.8092 78.3665 75.9056 80.9714 76.0344C82.115 80.7755 83.2601 85.5165 84.4036 90.2576C84.4891 90.6061 84.5726 90.9548 84.6561 91.3033C84.6995 91.4792 84.7413 91.657 84.785 91.8333C85.9374 96.6142 87.092 103.227 88.2463 108.008Z" fill="#E4E5F7"/>
<path fill-rule="evenodd" clip-rule="evenodd" d="M88.9234 84.2912C88.751 86.7055 87.3767 88.6149 86.168 89.8911C85.6035 90.4864 85.0753 90.9437 84.7214 91.2486C84.6994 91.2669 84.6778 91.2849 84.656 91.3032C82.2873 93.3269 78.7351 94.948 75.4261 94.9061C75.3717 94.9061 75.3172 94.9044 75.2628 94.9026C74.6982 94.8861 74.141 94.8228 73.6019 94.7012C73.2861 94.6304 72.9739 94.5414 72.6689 94.4323C72.6635 94.4305 72.6599 94.4289 72.6562 94.4289C72.5201 94.3779 72.384 94.3252 72.2515 94.2673C70.5725 93.5447 70.0316 92.5573 68.5758 92.6916C66.8714 92.8495 66.412 94.3127 63.5879 96.7611C61.3661 98.6872 59.5165 100.292 57.6814 99.9124C57.2404 99.8216 55.6176 99.3713 54.3997 96.2368C55.231 94.0366 56.5942 90.2249 57.7668 85.6889C58.4002 83.2366 58.9774 80.5702 59.384 77.835C59.6327 76.1522 59.8178 74.4442 59.9122 72.7398C59.934 72.3424 59.9558 71.9629 59.9758 71.5964C60.1936 67.565 60.2753 65.305 59.9122 62.2374C59.4439 58.2679 58.638 56.1078 58.8123 54.8608C58.8468 54.5903 58.9302 54.3654 59.0718 54.1712C59.0954 54.2238 59.1172 54.2765 59.1426 54.3308C59.168 54.3908 59.1953 54.4507 59.2225 54.5141C59.2479 54.574 59.2751 54.6357 59.3023 54.6994C59.4113 54.9515 59.5292 55.2238 59.6545 55.5253C59.6726 55.5689 59.6908 55.6122 59.7089 55.6558C59.7271 55.6994 59.7471 55.7447 59.7652 55.7901C59.8215 55.9246 59.8777 56.0642 59.9376 56.2094C60.0175 56.402 60.0992 56.6053 60.1827 56.8193C60.2408 56.9645 60.2989 57.1135 60.3606 57.2676C60.4785 57.5673 60.6002 57.8831 60.7272 58.2188C60.7744 58.3476 60.8234 58.4765 60.8742 58.611C60.9069 58.6999 60.9414 58.7907 60.9741 58.8833C61.0939 59.2009 61.2155 59.5365 61.3407 59.887C63.223 65.1273 64.1633 67.7482 64.3103 70.1443C64.3484 70.7685 64.3538 71.384 64.3284 71.9885C64.3266 72.0591 64.323 72.1299 64.3194 72.2009C64.3175 72.2589 64.3139 72.3152 64.3103 72.3733C64.3048 72.4675 64.2976 72.5601 64.2903 72.6546C64.274 72.8888 64.2522 73.1229 64.2268 73.3533C64.2268 73.3643 64.225 73.3734 64.2232 73.3823C64.1977 73.6003 64.1705 73.8181 64.1378 74.0339C64.1179 74.1773 64.0961 74.3207 64.0707 74.4625C64.0562 74.5587 64.0398 74.6529 64.0217 74.7475C63.9836 74.9617 63.9418 75.174 63.8964 75.3862C63.8728 75.5006 63.8474 75.6149 63.822 75.7293C63.704 76.2522 63.5679 76.7695 63.4172 77.2848C63.3846 77.401 63.3483 77.5174 63.3138 77.6333C63.2793 77.7459 63.2448 77.8586 63.2085 77.9711C63.105 78.3033 62.9943 78.6335 62.8781 78.9656C62.8328 79.0965 62.7856 79.2288 62.7384 79.3615C62.5569 79.8641 62.3663 80.3689 62.1666 80.8753C62.0595 81.1476 61.9506 81.4181 61.8399 81.6921C61.7237 81.9769 61.6057 82.2637 61.4878 82.5505C61.377 82.8137 61.2663 83.0771 61.1556 83.3421C61.0394 83.6198 60.9214 83.8993 60.8016 84.1807C60.533 84.8142 60.2698 85.4059 60.0139 85.9577C59.914 86.1717 59.816 86.3806 59.7198 86.5819C59.6726 86.6837 59.6254 86.7852 59.5764 86.885C59.4802 87.0831 59.3858 87.2753 59.2951 87.4624C59.2406 87.575 59.1862 87.6855 59.1317 87.7946C59.05 87.956 58.972 88.1122 58.8958 88.2647C58.8758 88.3045 58.8576 88.3426 58.8377 88.3807C58.7288 88.5931 58.6253 88.7964 58.5273 88.9908C58.4075 89.2284 58.2931 89.4534 58.186 89.6658C58.1207 89.7965 58.0572 89.9219 57.9973 90.0434C57.9864 90.0653 57.9755 90.0887 57.9646 90.1107C57.9301 90.1813 57.8956 90.2503 57.8648 90.3174C57.7668 90.5226 57.6778 90.7113 57.6016 90.8894C57.5816 90.931 57.5653 90.9711 57.5489 91.011C57.4854 91.1617 57.4328 91.3012 57.3874 91.4301C57.3765 91.461 57.3674 91.49 57.3583 91.5191C57.3475 91.5517 57.3384 91.5828 57.3311 91.6116C57.3184 91.6536 57.3075 91.6933 57.2984 91.7314C57.2876 91.7715 57.2803 91.8097 57.273 91.8458C57.2658 91.8748 57.2621 91.9022 57.2585 91.9275C57.2513 91.9674 57.2458 92.0075 57.244 92.0456C57.2404 92.0837 57.2385 92.12 57.2385 92.1562C57.2385 92.3723 57.2984 92.5464 57.4273 92.6826C58.589 93.9096 62.5641 89.2413 69.0332 89.1739C69.2402 89.1723 69.4435 89.1739 69.6413 89.183C69.7175 89.185 69.7938 89.1884 69.8682 89.1921C70.282 89.2138 70.6759 89.2558 71.0535 89.3139C71.1261 89.3246 71.1987 89.3355 71.2695 89.3482C71.3312 89.3592 71.3911 89.3699 71.4528 89.3808C71.5327 89.3954 71.6143 89.4119 71.6924 89.4282C71.7614 89.4427 71.8303 89.4573 71.8975 89.4736C71.9447 89.4827 71.9901 89.4934 72.0355 89.5061C72.6072 89.6406 73.1354 89.811 73.6346 90.0018C73.7253 90.0361 73.8143 90.0726 73.9032 90.1069C74.1519 90.2069 74.3915 90.3102 74.6238 90.4173C74.7001 90.4518 74.7745 90.4864 74.8471 90.5191C74.8707 90.5318 74.8943 90.5409 74.9161 90.5516C75.2174 90.695 75.5096 90.8402 75.7928 90.9818C75.8454 91.0092 75.898 91.0344 75.9507 91.0618C76.2774 91.227 76.5951 91.3885 76.9073 91.5374C76.9944 91.579 77.0815 91.6209 77.1686 91.6608C77.4681 91.7986 77.7622 91.924 78.058 92.0311C78.1071 92.0491 78.1561 92.0674 78.2069 92.0837C78.4537 92.1689 78.7024 92.2417 78.9529 92.2943C79.0019 92.305 79.0527 92.3161 79.1036 92.3252C79.2143 92.3469 79.3268 92.3649 79.4394 92.3778C79.5319 92.3885 79.6263 92.3976 79.7189 92.403C79.757 92.4068 79.7969 92.4086 79.8369 92.4103C80.2652 92.4284 80.7099 92.3885 81.1801 92.2778C81.3089 92.2469 81.4342 92.2126 81.5594 92.1745C81.6137 92.1562 81.6701 92.138 81.7246 92.118C81.7827 92.0983 81.8406 92.0765 81.897 92.0547C81.9569 92.0311 82.015 92.0075 82.0731 91.9819C82.1312 91.9583 82.1875 91.9331 82.2437 91.9057C82.3454 91.8585 82.447 91.8077 82.5469 91.7532C82.948 91.5354 83.3237 91.2704 83.6777 90.9673C83.7194 90.931 83.7612 90.8948 83.8029 90.8567C84.0117 90.6698 84.2113 90.4699 84.4037 90.2575C84.4055 90.2557 84.4074 90.2541 84.4074 90.2523C84.4673 90.1868 84.5272 90.1196 84.5852 90.0506C85.0009 89.5678 85.3821 89.0251 85.7342 88.4444C85.7869 88.3571 85.8395 88.2702 85.8903 88.1812C85.9121 88.1466 85.9321 88.1122 85.9502 88.0776C86.0029 87.9868 86.0537 87.8926 86.1045 87.7999C86.1553 87.7091 86.2043 87.6165 86.2515 87.5258C86.2933 87.4495 86.333 87.3717 86.3731 87.2916C86.5401 86.9649 86.698 86.6311 86.8487 86.2917C86.9013 86.1755 86.9522 86.0592 87.003 85.9414C87.1827 85.5275 87.3515 85.1044 87.5129 84.6798C87.5675 84.5381 87.6201 84.3965 87.6728 84.2551C87.7672 83.9992 87.8579 83.7449 87.9469 83.4889V83.4871C88.1556 82.8883 88.3516 82.291 88.5368 81.7067C88.8054 82.3964 88.9996 83.2021 88.9234 84.2912Z" fill="#C50558"/>
<path fill-rule="evenodd" clip-rule="evenodd" d="M92.2052 70.6379C92.3159 73.5421 88.3751 74.4115 87.6093 77.728C87.2117 79.4503 88.014 80.3599 88.5368 81.7065C87.1246 86.1572 85.1461 91.3394 81.1801 92.2778C77.263 93.2054 75.1375 89.1106 69.0333 89.174C62.5641 89.2411 58.589 93.9096 57.4273 92.6826C56.6178 91.8259 58.5364 89.5335 60.8017 84.1805C62.8092 79.434 64.6171 75.1594 64.3103 70.1442C64.1633 67.7482 63.223 65.1274 61.3408 59.8871C60.3334 57.0789 59.5837 55.3346 59.0718 54.1711C59.1227 54.0985 59.1844 54.0313 59.2552 53.9678C61.1955 52.2198 67.4359 55.9789 71.0698 58.168C78.0181 62.3537 81.5829 65.1417 81.5829 65.1417C82.3672 65.7554 83.8574 66.9497 86.166 67.75C88.25 68.4743 90.1287 68.5741 91.4174 68.538C91.7278 68.9643 92.1689 69.7033 92.2052 70.6379Z" fill="#EB0065"/>
<path fill-rule="evenodd" clip-rule="evenodd" d="M62.3781 55.7264C62.0154 56.2286 68.0207 60.4065 75.7401 68.3716C80.2955 73.0719 83.6762 77.2628 85.8433 80.1042C85.7999 79.1916 85.7565 78.2791 85.713 77.3667C86.2996 76.5194 86.8861 75.6721 87.4729 74.8246C84.992 72.036 81.1864 68.1155 76.0009 64.0696C69.5366 59.0259 62.7509 55.21 62.3781 55.7264Z" fill="#FD99C4"/>
<path fill-rule="evenodd" clip-rule="evenodd" d="M66.1567 65.0273C66.6756 65.6829 67.4048 66.7116 68.0361 68.0853C68.3886 68.8521 69.6831 71.8429 69.1311 78.8676C68.9422 81.2736 68.5007 84.6082 67.397 88.5127C67.703 88.2491 68.6385 87.5131 70.0042 87.4699C72.2089 87.4 73.5388 89.1979 73.6544 89.3602C73.2251 85.008 72.5624 80.2036 71.5512 75.139C70.9698 72.2281 70.2229 68.9787 67.5596 66.2611C67.0096 65.6998 66.5035 65.2894 66.1567 65.0273Z" fill="#FD99C4"/>
<path d="M48.5582 50.5056C48.9619 50.1611 49.7259 49.6018 50.834 49.3007C52.2199 48.9241 53.3819 49.1582 53.9128 49.3007C53.418 48.8161 52.4879 48.0361 51.1017 47.5604C50.1414 47.2311 49.2881 47.1596 48.6922 47.159" stroke="#262C7C" stroke-width="1.4" stroke-linecap="round" stroke-linejoin="round"/>
<path d="M69.4413 46.3556C68.704 46.5972 67.9445 46.8641 67.1657 47.159C66.0258 47.5906 64.9543 48.0412 63.9529 48.4977C64.8492 48.6189 65.9539 48.8505 67.1657 49.3009C68.0543 49.631 68.8143 50.0095 69.4413 50.3718" stroke="#262C7C" stroke-width="1.4" stroke-linecap="round" stroke-linejoin="round"/>
<path fill-rule="evenodd" clip-rule="evenodd" d="M58.7451 63.7386C57.9591 64.1779 57.0552 64.4266 56.0914 64.4266C54.0312 64.4266 52.2378 63.2849 51.3121 61.6004C52.4557 61.0886 53.9749 61.0069 55.4996 61.4788C56.9227 61.9197 58.068 62.7585 58.7451 63.7386Z" fill="#E4E5F7"/>
<path fill-rule="evenodd" clip-rule="evenodd" d="M59.2969 66.5466C58.6888 68.5051 56.0042 69.4145 53.2997 68.5761C50.5952 67.7375 48.8944 65.4686 49.5024 63.5081C49.7675 62.6532 50.4282 61.9979 51.3121 61.6004C52.2378 63.2848 54.0312 64.4265 56.0914 64.4265C57.0552 64.4265 57.9591 64.1779 58.7451 63.7386C59.3549 64.6209 59.5855 65.6173 59.2969 66.5466Z" fill="#131856"/>
<path d="M47.3489 44.4596C48.0434 44.3158 49.5786 44.0958 51.3729 44.6863C53.3343 45.3317 54.4922 46.5793 54.9434 47.1233" stroke="#262C7C" stroke-width="1.4" stroke-linecap="round" stroke-linejoin="round"/>
<path d="M62.6513 46.0464C63.2171 45.5516 64.2189 44.8056 65.655 44.3462C67.5492 43.7401 69.1772 43.9595 69.9625 44.1195" stroke="#262C7C" stroke-width="1.4" stroke-linecap="round" stroke-linejoin="round"/>
<path fill-rule="evenodd" clip-rule="evenodd" d="M30.4204 45.4741C29.7613 43.7096 28.1021 38.569 29.7769 32.2841C31.4862 25.8704 35.6184 22.2029 37.069 21.0244C35.3875 23.6077 33.2235 27.5643 31.8144 32.7666C30.4159 37.9301 30.2794 42.4064 30.4204 45.4741Z" fill="#8591FF"/>
<path fill-rule="evenodd" clip-rule="evenodd" d="M44.0004 29.1096C43.3985 27.4836 42.8049 25.4496 42.4546 23.0673C41.9398 19.5657 42.1335 16.5546 42.4546 14.3548C42.8058 14.5657 43.1572 14.7765 43.5085 14.9872C43.4671 16.794 43.464 18.6692 43.5085 20.6081C43.5771 23.5962 43.7521 26.435 44.0004 29.1096Z" fill="#8591FF"/>
<path fill-rule="evenodd" clip-rule="evenodd" d="M75.5677 108.36C74.9959 108.374 74.4242 108.391 73.8524 108.407C73.4168 106.743 73.0174 103.109 72.6871 101.172C72.3114 98.9703 72.079 96.9046 71.9447 95.0077C72.3694 98.5564 73.2861 101.203 74.0974 103.029C74.6129 104.191 75.2918 107.316 75.5677 108.36Z" fill="#6468A1"/>
<path fill-rule="evenodd" clip-rule="evenodd" d="M38.7161 95.048C38.142 96.9127 37.5793 98.8292 37.0322 100.797C36.3859 103.121 35.7947 107.226 35.2538 109.447C35.428 108.841 35.6023 108.236 35.7765 107.63C35.8304 108.24 35.8842 108.85 35.9381 109.46C37.1685 109.428 38.399 109.396 39.6295 109.364C39.7068 107.484 39.6966 103.549 39.5291 101.261C39.3618 98.9759 39.0657 96.8945 38.7161 95.048Z" fill="#6468A1"/>
<path fill-rule="evenodd" clip-rule="evenodd" d="M59.9758 71.5963C59.9558 71.963 59.934 72.3424 59.9122 72.7399C59.8179 74.4441 59.6327 76.1523 59.384 77.8349C58.9775 80.5701 58.4002 83.2367 57.7668 85.689C57.0988 85.6418 56.3982 85.5383 55.6757 85.3568C55.5051 85.3151 55.3363 85.2679 55.173 85.2207C55.4924 84.2514 55.7974 83.3148 56.0841 82.4145C56.0841 82.4145 56.6741 80.5701 57.3729 77.9402C57.8702 76.0688 58.4238 73.7999 58.8577 71.5128C59.5692 67.77 59.9667 63.9801 59.2915 61.8092C59.2225 61.5859 58.8286 60.3841 58.6562 58.718C58.5055 57.2514 58.3059 55.3165 58.8123 54.8609C58.638 56.1079 59.4439 58.2679 59.9122 62.2374C60.2753 65.3051 60.1936 67.5649 59.9758 71.5963Z" fill="#E4E5F7"/>
</g>
</svg>
