<svg width="108" height="109" viewBox="0 0 108 109" fill="none" xmlns="http://www.w3.org/2000/svg">
<mask id="mask0_0_435" style="mask-type:alpha" maskUnits="userSpaceOnUse" x="0" y="0" width="108" height="108">
<path fill-rule="evenodd" clip-rule="evenodd" d="M0.0689697 54.0624C0.0689697 83.8392 24.2078 107.978 53.9847 107.978C83.7615 107.978 107.901 83.8392 107.901 54.0624C107.901 24.2856 83.7615 0.146469 53.9847 0.146469C24.2078 0.146469 0.0689697 24.2856 0.0689697 54.0624Z" fill="white"/>
</mask>
<g mask="url(#mask0_0_435)">
<path fill-rule="evenodd" clip-rule="evenodd" d="M128.636 54.0624C128.636 94.9473 95.4918 128.091 54.6068 128.091C13.722 128.091 -19.4218 94.9473 -19.4218 54.0624C-19.4218 13.1774 13.722 -19.9665 54.6068 -19.9665C95.4918 -19.9665 128.636 13.1774 128.636 54.0624Z" fill="#E4E5F7"/>
</g>
<mask id="mask1_0_435" style="mask-type:alpha" maskUnits="userSpaceOnUse" x="0" y="0" width="108" height="108">
<path fill-rule="evenodd" clip-rule="evenodd" d="M0.0689697 54.0624C0.0689697 83.8392 24.2078 107.978 53.9847 107.978C83.7615 107.978 107.901 83.8392 107.901 54.0624C107.901 24.2857 83.7615 0.146484 53.9847 0.146484C24.2078 0.146484 0.0689697 24.2857 0.0689697 54.0624Z" fill="white"/>
</mask>
<g mask="url(#mask1_0_435)">
<path fill-rule="evenodd" clip-rule="evenodd" d="M83.3575 64.7601V64.7619C83.3575 65.3046 83.2467 65.8183 83.0235 66.2721C82.4971 67.3394 81.4407 67.8676 80.7927 68.109C80.7366 68.4357 80.3244 70.5957 78.2987 71.7846C76.8883 72.6123 75.4961 72.5016 75.017 72.4417C75.0333 72.5306 75.3836 74.6925 73.7046 76.1173C72.6155 77.0394 71.1017 77.2917 69.7658 76.7726C69.7004 76.9759 69.2993 78.1829 68.0596 78.742C66.9596 79.2375 65.6327 79.0324 64.6453 78.2174C60.7228 77.1429 56.784 76.0484 52.8307 74.9357C44.4157 72.5669 36.1006 70.1583 27.889 67.7151C26.9996 61.3713 26.5549 51.3336 32.091 47.3676C32.6446 46.9719 34.3926 46.3547 37.8668 45.1368C48.1636 41.5277 50.6404 41.148 51.7966 41.1749C51.9923 41.1792 52.1754 41.1979 52.1754 41.1979C55.2078 41.4221 57.4483 42.4497 58.9019 43.3209C66.1123 45.7374 80.3727 51.6516 83.0658 63.1702C83.1867 63.6875 83.2847 64.2174 83.3575 64.7601Z" fill="#BEC1E0"/>
<path fill-rule="evenodd" clip-rule="evenodd" d="M34.322 44.8739C33.3608 49.0411 32.3947 53.2075 31.4237 57.3731C30.426 61.6526 29.4229 65.9314 28.4148 70.2096C26.0517 70.0782 23.689 69.947 21.326 69.8157C23.3826 60.8891 25.4391 51.9627 27.4958 43.0361L34.322 44.8739Z" fill="#9195CB"/>
<path fill-rule="evenodd" clip-rule="evenodd" d="M90.5072 59.8392C88.124 61.4801 85.7407 63.121 83.3574 64.76C83.3574 63.1155 82.3464 61.1988 80.399 59.8392C74.9518 55.8605 69.5044 51.8799 64.0572 47.9011C64.422 47.765 64.7923 47.6325 65.1719 47.5C64.6527 47.5309 64.1643 47.5799 63.7071 47.6452H63.7051C62.3274 47.834 61.2347 48.1462 60.4451 48.4185C58.6846 49.0265 57.679 49.7017 52.9633 51.9634C51.5457 52.6423 50.6216 53.067 49.4182 52.8818C48.0423 52.6695 47.0658 51.7764 46.5303 51.1756C47.5323 50.2844 49.0953 48.8813 50.9939 47.1061C53.3552 44.8953 53.742 44.4451 54.8 43.8244C55.6005 43.3561 56.3611 43.0421 57.2541 42.7825C58.2488 42.4957 59.4087 42.2761 60.9698 41.9856C64.0628 41.4121 65.6073 41.1235 67.0086 41.1979C71.6662 41.4447 76.1715 44.0458 77.3804 44.7428C78.4058 45.3346 79.5821 46.1005 81.3172 46.1858C82.9147 46.2639 84.2488 45.7303 85.1255 45.2674C86.9187 50.1247 88.7121 54.982 90.5072 59.8392Z" fill="#9195CB"/>
<path fill-rule="evenodd" clip-rule="evenodd" d="M29.4649 42.1172C28.6844 45.3029 26.8341 52.8468 26.0517 56.0321C25.0576 60.0802 23.1103 67.9998 22.1136 72.0473C8.5924 71.4785 -4.92865 70.9096 -18.4497 70.3408C-18.2747 55.8134 -18.0996 41.2857 -17.9246 26.7581C-2.12809 31.8779 13.6684 36.9974 29.4649 42.1172Z" fill="#262C7C"/>
<path fill-rule="evenodd" clip-rule="evenodd" d="M63.413 71.3242C64.0388 71.6984 64.6019 72.0959 65.1704 72.5053C65.7347 72.9157 66.289 73.3362 66.8299 73.7757C67.3679 74.2175 67.9049 74.6658 68.3924 75.1695C68.8734 75.6745 69.3236 76.2043 69.7434 76.7534C69.2413 76.2782 68.7168 75.8307 68.1713 75.4165C67.6333 74.9985 67.0659 74.6188 66.4871 74.2541C65.9082 73.8902 65.3165 73.5448 64.7197 73.2128C64.1243 72.8844 63.5132 72.5579 62.9174 72.294L62.9116 72.2914C62.6361 72.1693 62.5118 71.8469 62.6339 71.5714C62.7561 71.2958 63.0784 71.1713 63.354 71.2937C63.3736 71.3022 63.395 71.3134 63.413 71.3242Z" fill="#6468A1"/>
<path fill-rule="evenodd" clip-rule="evenodd" d="M83.4181 44.2175C84.0176 47.0007 84.7123 49.8936 85.5184 52.8815C86.5465 56.6922 87.6548 60.2832 88.8001 63.6459C103.328 61.6769 117.855 59.7076 132.383 57.7386C131.945 47.8932 131.508 38.0477 131.07 28.2023C115.186 33.5406 99.3021 38.8791 83.4181 44.2175Z" fill="#EB0065"/>
<path fill-rule="evenodd" clip-rule="evenodd" d="M63.1896 79.8982C63.0626 80.1215 62.6124 80.8602 61.6867 81.2015C60.5141 81.6335 59.4904 81.0944 59.2635 80.9746C57.9076 80.2576 57.5991 78.8182 57.5573 78.6113C56.6243 80.1414 54.7711 80.7804 53.2246 80.1868C51.9213 79.6858 51.0319 78.3826 50.9938 76.9051C49.6361 78.0867 47.7465 78.3408 46.2672 77.5603C44.5429 76.651 44.2034 74.7687 44.1671 74.5418C43.5391 74.6362 41.2121 74.9139 39.8362 73.4908C39.1338 72.7648 38.8851 71.8082 38.8506 70.8607C43.4629 67.9765 46.2854 67.0163 47.3182 67.9783C47.9916 68.6045 47.9045 70.0493 47.055 72.3092C52.0557 67.8494 55.0742 66.0125 56.1125 66.7966C56.9002 67.3902 56.5499 69.4921 55.0633 73.0969C58.2616 69.9441 61.144 68.3849 62.1514 69.1599C63.4002 70.1201 61.556 74.4891 61.3636 74.9357C64.7688 72.8464 65.6673 73.0733 65.9595 73.3601C66.8199 74.2114 64.5891 77.8108 63.1896 79.8982Z" fill="#9195CB"/>
<path d="M83.3575 64.7619V64.76" stroke="black"/>
<path d="M90.2986 41.9058C91.1497 45.5088 92.13 49.2625 93.2627 53.1433C94.2281 56.4468 95.2375 59.6106 96.2701 62.6327" stroke="#FFE6F1" stroke-width="5" stroke-linecap="round"/>
<path d="M93.7836 40.7332C95.1468 44.3199 96.5043 47.932 97.8584 51.5695C99.1455 55.0292 100.412 58.4725 101.661 61.9031" stroke="#FFE6F1" stroke-width="5" stroke-linecap="round"/>
<path fill-rule="evenodd" clip-rule="evenodd" d="M53.4447 67.5353C52.5409 68.5212 52.3404 69.8083 52.9969 70.4101C53.6532 71.0119 54.9182 70.7005 55.8221 69.7145C56.7259 68.7285 56.9265 67.4412 56.2699 66.8395C55.6134 66.2378 54.3484 66.5493 53.4447 67.5353Z" fill="#262C7C"/>
<path fill-rule="evenodd" clip-rule="evenodd" d="M61.7837 72.067C62.7659 71.0849 63.1022 69.8288 62.535 69.2616C61.9677 68.6944 60.7117 69.0307 59.7295 70.0129C58.7473 70.995 58.411 72.2509 58.9782 72.8183C59.5455 73.3856 60.8015 73.0492 61.7837 72.067Z" fill="#262C7C"/>
<path fill-rule="evenodd" clip-rule="evenodd" d="M66.2513 73.1863C65.805 72.7772 64.8462 73.0969 64.1098 73.9002C63.3734 74.7036 63.1384 75.6863 63.5847 76.0954C64.0309 76.5046 64.9898 76.1851 65.726 75.3817C66.4624 74.5784 66.6977 73.5955 66.2513 73.1863Z" fill="#262C7C"/>
<path fill-rule="evenodd" clip-rule="evenodd" d="M48.0755 67.8228C48.5447 68.4166 48.1144 69.5388 47.1141 70.3295C46.1137 71.1202 44.9223 71.2797 44.4531 70.686C43.9839 70.0923 44.4142 68.97 45.4145 68.1793C46.415 67.3887 47.6063 67.2291 48.0755 67.8228Z" fill="#262C7C"/>
<path fill-rule="evenodd" clip-rule="evenodd" d="M51.082 48.7181C51.082 50.3354 49.7715 51.6459 48.1542 51.6459C47.5788 51.6459 47.0433 51.4807 46.5914 51.1939L50.7589 47.3822C50.9658 47.7815 51.082 48.2371 51.082 48.7181Z" fill="#262C7C"/>
<path fill-rule="evenodd" clip-rule="evenodd" d="M60.466 61.8771C61.6796 62.7383 62.9237 63.5791 64.1612 64.4255C65.4 65.2721 66.6412 66.1165 67.8663 66.9928C68.4827 67.4294 69.0691 67.8935 69.671 68.3435L71.4656 69.7026L75.0532 72.4199L67.5263 67.494C66.2666 66.6915 64.984 65.9161 63.7027 65.1378C62.4207 64.3587 61.1358 63.5878 59.8577 62.7805C59.6034 62.6198 59.5276 62.2833 59.6882 62.029C59.8488 61.7747 60.1854 61.6986 60.4397 61.8593C60.4475 61.8644 60.4551 61.8694 60.4625 61.8745L60.466 61.8771Z" fill="#6468A1"/>
<path fill-rule="evenodd" clip-rule="evenodd" d="M65.3546 56.3602L73.1244 62.1973C74.4222 63.1705 75.6914 64.1776 76.9728 65.1695L80.8095 68.1547L72.7739 62.6859L64.7178 57.2438C64.4686 57.0753 64.4031 56.7366 64.5715 56.4874C64.7398 56.238 65.0785 56.1725 65.3279 56.3409C65.335 56.3457 65.3419 56.3506 65.3486 56.3556L65.3546 56.3602Z" fill="#6468A1"/>
<path fill-rule="evenodd" clip-rule="evenodd" d="M41.6153 29.8335C41.5359 29.8195 41.4514 29.882 41.3789 29.9931L40.7139 29.8758C40.7161 29.8268 40.7173 29.7774 40.7173 29.7279C40.7173 29.6783 40.7161 29.6289 40.7139 29.5799L41.3789 29.4627C41.4514 29.574 41.5359 29.6364 41.6153 29.6222C41.771 29.5948 41.8465 29.2839 41.7837 28.9278C41.7209 28.5716 41.5436 28.3052 41.3878 28.3326C41.3087 28.3466 41.2504 28.4342 41.2203 28.5635L40.5563 28.6805C40.5264 28.586 40.4924 28.493 40.4549 28.4021L41.039 28.065C41.145 28.1449 41.2459 28.1745 41.3158 28.1342C41.4526 28.0551 41.4172 27.737 41.2363 27.4239C41.0555 27.1108 40.7979 26.921 40.6609 27.0001C40.5912 27.0402 40.5663 27.1426 40.5825 27.2744L39.9978 27.612C39.9375 27.5336 39.874 27.4579 39.8076 27.3851L40.2414 26.868C40.3685 26.9066 40.4734 26.8999 40.5251 26.8384C40.6267 26.7171 40.4846 26.4305 40.2076 26.198C39.9306 25.9655 39.6235 25.8753 39.5219 25.9965C39.4701 26.0582 39.4819 26.1628 39.542 26.2811L39.1084 26.7979C39.0253 26.7449 38.9396 26.6955 38.8519 26.6496L39.0826 26.0159C39.2151 26.0089 39.3115 25.9666 39.3391 25.8909C39.3932 25.7422 39.1616 25.5215 38.8218 25.3979C38.4818 25.2741 38.1625 25.2944 38.1084 25.4431C38.0809 25.5188 38.1277 25.613 38.2246 25.7037L37.9939 26.3374C37.8981 26.3163 37.8008 26.2991 37.7022 26.2862V25.6115C37.8244 25.5594 37.9006 25.4868 37.9006 25.4064C37.9006 25.2481 37.6073 25.12 37.2457 25.12C36.8841 25.12 36.591 25.2481 36.591 25.4064C36.591 25.4868 36.667 25.5594 36.7892 25.6115V26.2862C36.6906 26.2991 36.5934 26.3163 36.4975 26.3374L36.2668 25.7037C36.3637 25.613 36.4106 25.5188 36.383 25.4431C36.3289 25.2944 36.0096 25.2741 35.6698 25.3979C35.3298 25.5215 35.0982 25.7422 35.1523 25.8909C35.1799 25.9666 35.2763 26.0089 35.4088 26.0159L35.6395 26.6496C35.5518 26.6955 35.4663 26.7449 35.3832 26.7979L34.9494 26.2811C35.0095 26.1628 35.0213 26.0582 34.9695 25.9965C34.8679 25.8753 34.5608 25.9655 34.2838 26.198C34.0068 26.4305 33.8647 26.7171 33.9663 26.8384C34.0181 26.8999 34.123 26.9066 34.25 26.868L34.684 27.3851C34.6174 27.4579 34.5539 27.5336 34.4936 27.612L33.909 27.2744C33.9251 27.1426 33.9003 27.0402 33.8306 27.0001C33.6935 26.921 33.4359 27.1108 33.2552 27.4239C33.0744 27.737 33.0388 28.0551 33.1758 28.1342C33.2455 28.1745 33.3465 28.1449 33.4526 28.065L34.0366 28.4021C33.999 28.493 33.9651 28.586 33.9351 28.6805L33.2711 28.5635C33.2412 28.4342 33.1827 28.3466 33.1036 28.3326C32.9479 28.3052 32.7705 28.5716 32.7077 28.9278C32.6451 29.2839 32.7204 29.5948 32.8762 29.6222C32.9555 29.6364 33.0401 29.574 33.1127 29.4627L33.7776 29.5799C33.7756 29.6289 33.7741 29.6783 33.7741 29.7279C33.7741 29.7774 33.7756 29.8268 33.7776 29.8758L33.1127 29.9931C33.0401 29.882 32.9555 29.8195 32.8762 29.8335C32.7204 29.8609 32.6451 30.1719 32.7077 30.5282C32.7705 30.8843 32.9479 31.1506 33.1036 31.1232C33.1827 31.1092 33.2412 31.0215 33.2711 30.8923L33.9351 30.7752C33.9651 30.8698 33.999 30.9627 34.0366 31.0536L33.4526 31.3907C33.3465 31.311 33.2455 31.2814 33.1758 31.3216C33.0388 31.4007 33.0744 31.7187 33.2552 32.0318C33.4359 32.3451 33.6935 32.5348 33.8306 32.4556C33.9003 32.4155 33.9251 32.3133 33.909 32.1814L34.4936 31.8439C34.5539 31.9222 34.6174 31.9979 34.684 32.0707L34.25 32.5878C34.123 32.5491 34.0181 32.5558 33.9663 32.6174C33.8647 32.7386 34.0068 33.0252 34.2838 33.2577C34.5608 33.4903 34.8679 33.5805 34.9695 33.4592C35.0213 33.3977 35.0095 33.2931 34.9494 33.1746L35.3832 32.6579C35.4663 32.7109 35.5518 32.7602 35.6395 32.8061L35.409 33.44C35.2763 33.4471 35.1799 33.4892 35.1523 33.5649C35.0982 33.7135 35.3298 33.9342 35.6698 34.0579C36.0096 34.1816 36.3289 34.1613 36.383 34.0127C36.4106 33.9372 36.3637 33.8428 36.2668 33.7522L36.4975 33.1183C36.5934 33.1394 36.6906 33.1566 36.7892 33.1695V33.8442C36.667 33.8963 36.591 33.9689 36.591 34.0495C36.591 34.2076 36.8841 34.3359 37.2457 34.3359C37.6073 34.3359 37.9006 34.2076 37.9006 34.0495C37.9006 33.9689 37.8244 33.8963 37.7022 33.8442V33.1695C37.8008 33.1566 37.8981 33.1394 37.9939 33.1183L38.2246 33.7522C38.1277 33.8428 38.0809 33.9372 38.1084 34.0127C38.1625 34.1613 38.4818 34.1816 38.8218 34.0579C39.1616 33.9342 39.3932 33.7135 39.3391 33.5649C39.3115 33.4892 39.2151 33.4471 39.0826 33.44L38.8519 32.8061C38.9396 32.7602 39.0253 32.7109 39.1084 32.6579L39.542 33.1746C39.4819 33.2931 39.4701 33.3977 39.5219 33.4592C39.6235 33.5805 39.9306 33.4903 40.2076 33.2577C40.4846 33.0252 40.6267 32.7386 40.5251 32.6174C40.4734 32.5558 40.3685 32.5491 40.2414 32.5878L39.8076 32.0707C39.874 31.9979 39.9375 31.9222 39.9978 31.8439L40.5825 32.1814C40.5663 32.3133 40.5912 32.4155 40.6609 32.4556C40.7979 32.5348 41.0555 32.3451 41.2363 32.0318C41.4172 31.7187 41.4526 31.4007 41.3158 31.3216C41.2459 31.2814 41.145 31.311 41.039 31.3907L40.4549 31.0536C40.4924 30.9627 40.5264 30.8698 40.5563 30.7752L41.2203 30.8923C41.2504 31.0215 41.3087 31.1092 41.3878 31.1232C41.5436 31.1506 41.7209 30.8843 41.7837 30.5282C41.8465 30.1719 41.771 29.8609 41.6153 29.8335Z" fill="#EB0065"/>
<path fill-rule="evenodd" clip-rule="evenodd" d="M49.0507 41.9466C49.0202 41.9411 48.9873 41.9653 48.9594 42.0081L48.7027 41.9629C48.7036 41.9441 48.704 41.925 48.704 41.9058C48.704 41.8867 48.7036 41.8676 48.7027 41.8486L48.9594 41.8034C48.9873 41.8464 49.0202 41.8705 49.0507 41.8651C49.1108 41.8546 49.14 41.7344 49.1157 41.597C49.0915 41.4596 49.0231 41.3567 48.963 41.3674C48.9324 41.3726 48.9098 41.4064 48.8982 41.4563L48.6419 41.5015C48.6305 41.465 48.6174 41.4293 48.6029 41.3942L48.8282 41.2641C48.8692 41.2948 48.9082 41.3062 48.9351 41.2908C48.9879 41.2601 48.9743 41.1374 48.9044 41.0165C48.8347 40.8956 48.7352 40.8225 48.6824 40.853C48.6554 40.8686 48.6459 40.908 48.6521 40.9588L48.4265 41.0891C48.4032 41.0588 48.3786 41.0298 48.353 41.0016L48.5205 40.802C48.5695 40.8169 48.61 40.8143 48.63 40.7905C48.6692 40.7439 48.6143 40.6332 48.5074 40.5435C48.4005 40.4537 48.282 40.4188 48.2428 40.4656C48.2228 40.4894 48.2272 40.5299 48.2504 40.5754L48.0831 40.7749C48.0511 40.7546 48.0181 40.7355 47.9841 40.7178L48.0733 40.4731C48.1243 40.4703 48.1616 40.454 48.1722 40.425C48.193 40.3676 48.1037 40.2823 47.9725 40.2346C47.8413 40.1868 47.718 40.1946 47.6972 40.2522C47.6866 40.2812 47.7046 40.3175 47.7422 40.3525L47.653 40.5972C47.616 40.5891 47.5784 40.5825 47.5405 40.5774V40.317C47.5875 40.297 47.6169 40.2689 47.6169 40.2378C47.6169 40.1768 47.5038 40.1275 47.3643 40.1275C47.2247 40.1275 47.1114 40.1768 47.1114 40.2378C47.1114 40.2689 47.141 40.297 47.188 40.317V40.5774C47.1499 40.5825 47.1125 40.5891 47.0755 40.5972L46.9864 40.3525C47.0237 40.3175 47.0419 40.2812 47.0314 40.2522C47.0103 40.1946 46.8871 40.1868 46.756 40.2346C46.6248 40.2823 46.5355 40.3676 46.5564 40.425C46.5669 40.454 46.6041 40.4703 46.6553 40.4731L46.7442 40.7178C46.7105 40.7355 46.6774 40.7546 46.6453 40.7749L46.4779 40.5754C46.5012 40.5299 46.5057 40.4894 46.4857 40.4656C46.4465 40.4188 46.328 40.4537 46.2211 40.5435C46.1142 40.6332 46.0594 40.7439 46.0986 40.7905C46.1185 40.8143 46.159 40.8169 46.208 40.802L46.3756 41.0016C46.3498 41.0298 46.3253 41.0588 46.3021 41.0891L46.0764 40.9588C46.0826 40.908 46.073 40.8686 46.0461 40.853C45.9933 40.8225 45.8938 40.8956 45.8241 41.0165C45.7542 41.1374 45.7406 41.2601 45.7935 41.2908C45.8203 41.3062 45.8592 41.2948 45.9004 41.2641L46.1256 41.3942C46.1111 41.4293 46.098 41.465 46.0864 41.5015L45.8301 41.4563C45.8187 41.4064 45.7962 41.3726 45.7655 41.3674C45.7054 41.3567 45.637 41.4596 45.6128 41.597C45.5885 41.7344 45.6176 41.8546 45.6776 41.8651C45.7083 41.8705 45.741 41.8464 45.7689 41.8034L46.0256 41.8486C46.0249 41.8676 46.0243 41.8867 46.0243 41.9058C46.0243 41.925 46.0249 41.9441 46.0256 41.9629L45.7689 42.0081C45.741 41.9653 45.7083 41.9411 45.6776 41.9466C45.6176 41.9571 45.5885 42.0773 45.6128 42.2147C45.637 42.3521 45.7054 42.455 45.7655 42.4443C45.7962 42.4389 45.8187 42.4051 45.8301 42.3552L46.0864 42.31C46.098 42.3466 46.1111 42.3824 46.1256 42.4174L45.9004 42.5476C45.8592 42.5169 45.8203 42.5055 45.7935 42.5209C45.7406 42.5514 45.7542 42.6741 45.8241 42.795C45.8938 42.9159 45.9933 42.9892 46.0461 42.9587C46.073 42.9431 46.0826 42.9035 46.0764 42.8527L46.3021 42.7226C46.3253 42.7527 46.3498 42.7819 46.3756 42.81L46.208 43.0095C46.159 42.9946 46.1185 42.9974 46.0986 43.021C46.0594 43.0678 46.1142 43.1785 46.2211 43.2682C46.328 43.3579 46.4465 43.3927 46.4857 43.3459C46.5057 43.3221 46.5012 43.2818 46.4779 43.2361L46.6453 43.0366C46.6774 43.0571 46.7105 43.0761 46.7442 43.0939L46.6553 43.3384C46.6041 43.3413 46.5669 43.3575 46.5564 43.3867C46.5355 43.4441 46.6248 43.5292 46.756 43.5769C46.8871 43.6249 47.0103 43.6171 47.0314 43.5595C47.0419 43.5305 47.0237 43.494 46.9864 43.459L47.0755 43.2143C47.1125 43.2224 47.1499 43.2292 47.188 43.2341V43.4945C47.141 43.5147 47.1114 43.5426 47.1114 43.5737C47.1114 43.6348 47.2247 43.6842 47.3643 43.6842C47.5038 43.6842 47.6169 43.6348 47.6169 43.5737C47.6169 43.5426 47.5875 43.5147 47.5405 43.4945V43.2341C47.5784 43.2292 47.616 43.2224 47.653 43.2143L47.7422 43.459C47.7046 43.494 47.6866 43.5305 47.6972 43.5595C47.718 43.6171 47.8413 43.6249 47.9725 43.5769C48.1037 43.5292 48.193 43.4441 48.1722 43.3867C48.1616 43.3575 48.1243 43.3413 48.0733 43.3384L47.9841 43.0939C48.0181 43.0761 48.0511 43.0571 48.0831 43.0366L48.2504 43.2361C48.2272 43.2818 48.2228 43.3221 48.2428 43.3459C48.282 43.3927 48.4005 43.3579 48.5074 43.2682C48.6143 43.1785 48.6692 43.0678 48.63 43.021C48.61 42.9974 48.5695 42.9946 48.5205 43.0095L48.353 42.81C48.3786 42.7819 48.4032 42.7527 48.4265 42.7226L48.6521 42.8527C48.6459 42.9035 48.6554 42.9431 48.6824 42.9587C48.7352 42.9892 48.8347 42.9159 48.9044 42.795C48.9743 42.6741 48.9879 42.5514 48.9351 42.5209C48.9082 42.5055 48.8692 42.5169 48.8282 42.5476L48.6029 42.4174C48.6174 42.3824 48.6305 42.3466 48.6419 42.31L48.8982 42.3552C48.9098 42.4051 48.9324 42.4389 48.963 42.4443C49.0231 42.455 49.0915 42.3521 49.1157 42.2147C49.14 42.0773 49.1108 41.9571 49.0507 41.9466Z" fill="#EB0065"/>
<path fill-rule="evenodd" clip-rule="evenodd" d="M49.6184 35.7936C49.5879 35.7881 49.555 35.8123 49.5273 35.8553L49.2704 35.8099C49.2713 35.791 49.2719 35.772 49.2719 35.7529C49.2719 35.7337 49.2713 35.7146 49.2704 35.6957L49.5273 35.6504C49.555 35.6934 49.5879 35.7175 49.6184 35.7121C49.6786 35.7015 49.7077 35.5816 49.6834 35.444C49.6592 35.3066 49.5908 35.2037 49.5307 35.2144C49.5 35.2196 49.4775 35.2536 49.4659 35.3035L49.2098 35.3487C49.1982 35.3122 49.1851 35.2763 49.1706 35.2412L49.3958 35.1111C49.4369 35.1419 49.4759 35.1534 49.5028 35.1378C49.5556 35.1073 49.542 34.9844 49.4721 34.8635C49.4024 34.7428 49.3029 34.6695 49.2501 34.7001C49.2232 34.7156 49.2136 34.755 49.2198 34.806L48.9942 34.9361C48.9709 34.906 48.9464 34.8768 48.9206 34.8486L49.0882 34.649C49.1372 34.664 49.1777 34.6615 49.1976 34.6375C49.2368 34.5909 49.182 34.4802 49.0751 34.3905C48.9682 34.3008 48.8497 34.266 48.8105 34.3126C48.7905 34.3366 48.795 34.3769 48.8183 34.4226L48.6507 34.6219C48.6188 34.6016 48.5858 34.5825 48.5518 34.5647L48.6409 34.3202C48.6919 34.3175 48.7293 34.3012 48.7399 34.272C48.7607 34.2146 48.6714 34.1295 48.5402 34.0815C48.409 34.034 48.2859 34.0418 48.2648 34.0992C48.2543 34.1284 48.2723 34.1647 48.3099 34.1997L48.2207 34.4442C48.1837 34.436 48.1461 34.4295 48.1082 34.4244V34.1641C48.1552 34.144 48.1846 34.116 48.1846 34.085C48.1846 34.0238 48.0715 33.9745 47.9319 33.9745C47.7924 33.9745 47.6793 34.0238 47.6793 34.085C47.6793 34.116 47.7087 34.144 47.7557 34.1641V34.4244C47.7178 34.4295 47.6802 34.436 47.6432 34.4442L47.554 34.1997C47.5916 34.1647 47.6096 34.1284 47.5991 34.0992C47.578 34.0418 47.4549 34.034 47.3237 34.0815C47.1925 34.1295 47.1032 34.2146 47.124 34.272C47.1346 34.3012 47.1718 34.3175 47.223 34.3202L47.3121 34.5647C47.2781 34.5825 47.2451 34.6016 47.2132 34.6219L47.0456 34.4226C47.0689 34.3769 47.0734 34.3366 47.0534 34.3126C47.0142 34.266 46.8957 34.3008 46.7888 34.3905C46.6819 34.4802 46.6271 34.5909 46.6663 34.6375C46.6862 34.6615 46.7267 34.664 46.7757 34.649L46.9432 34.8486C46.9175 34.8768 46.893 34.906 46.8697 34.9361L46.6441 34.806C46.6503 34.755 46.6408 34.7156 46.6138 34.7001C46.561 34.6695 46.4615 34.7428 46.3918 34.8635C46.3219 34.9844 46.3083 35.1073 46.3611 35.1378C46.388 35.1534 46.427 35.1419 46.468 35.1111L46.6933 35.2412C46.6788 35.2763 46.6657 35.3122 46.6541 35.3487L46.398 35.3035C46.3864 35.2536 46.3639 35.2196 46.3332 35.2144C46.2731 35.2037 46.2047 35.3066 46.1805 35.444C46.1562 35.5816 46.1853 35.7015 46.2455 35.7121C46.276 35.7175 46.3089 35.6934 46.3366 35.6504L46.5933 35.6957C46.5926 35.7146 46.592 35.7337 46.592 35.7529C46.592 35.772 46.5926 35.791 46.5933 35.8099L46.3366 35.8553C46.3089 35.8123 46.276 35.7881 46.2455 35.7936C46.1853 35.8043 46.1562 35.9243 46.1805 36.0617C46.2047 36.1991 46.2731 36.302 46.3332 36.2913C46.3639 36.286 46.3864 36.2521 46.398 36.2022L46.6541 36.157C46.6657 36.1936 46.6788 36.2294 46.6933 36.2646L46.468 36.3947C46.427 36.3639 46.388 36.3525 46.3611 36.3681C46.3083 36.3986 46.3219 36.5213 46.3918 36.6421C46.4615 36.7629 46.561 36.8362 46.6138 36.8057C46.6408 36.7901 46.6503 36.7507 46.6441 36.6999L46.8697 36.5695C46.893 36.5997 46.9175 36.6291 46.9432 36.657L46.7757 36.8567C46.7267 36.8416 46.6862 36.8444 46.6663 36.8681C46.6271 36.915 46.6819 37.0255 46.7888 37.1152C46.8957 37.2048 47.0142 37.2397 47.0534 37.193C47.0734 37.1693 47.0689 37.1288 47.0456 37.083L47.2132 36.8837C47.2451 36.9041 47.2781 36.9231 47.3121 36.9409L47.223 37.1854C47.1718 37.1883 47.1346 37.2045 47.124 37.2337C47.1032 37.2911 47.1925 37.3764 47.3237 37.4241C47.4549 37.4718 47.578 37.464 47.5991 37.4067C47.6096 37.3775 47.5916 37.341 47.554 37.3061L47.6432 37.0614C47.6802 37.0696 47.7178 37.0761 47.7557 37.0812V37.3415C47.7087 37.3617 47.6793 37.3896 47.6793 37.4207C47.6793 37.4818 47.7924 37.5314 47.9319 37.5314C48.0715 37.5314 48.1846 37.4818 48.1846 37.4207C48.1846 37.3896 48.1552 37.3617 48.1082 37.3415V37.0812C48.1461 37.0761 48.1837 37.0696 48.2207 37.0614L48.3099 37.3061C48.2723 37.341 48.2543 37.3775 48.2648 37.4067C48.2859 37.464 48.409 37.4718 48.5402 37.4241C48.6714 37.3764 48.7607 37.2911 48.7399 37.2337C48.7293 37.2045 48.6919 37.1883 48.6409 37.1854L48.5518 36.9409C48.5858 36.9231 48.6188 36.9041 48.6507 36.8837L48.8183 37.083C48.795 37.1288 48.7905 37.1693 48.8105 37.193C48.8497 37.2397 48.9682 37.2048 49.0751 37.1152C49.182 37.0255 49.2368 36.915 49.1976 36.8681C49.1777 36.8444 49.1372 36.8416 49.0882 36.8567L48.9206 36.657C48.9464 36.6291 48.9709 36.5997 48.9942 36.5695L49.2198 36.6999C49.2136 36.7507 49.2232 36.7901 49.2501 36.8057C49.3029 36.8362 49.4024 36.7629 49.4721 36.6421C49.542 36.5213 49.5556 36.3986 49.5028 36.3681C49.4759 36.3525 49.4369 36.3639 49.3958 36.3947L49.1706 36.2646C49.1851 36.2294 49.1982 36.1936 49.2098 36.157L49.4659 36.2022C49.4775 36.2521 49.5 36.286 49.5307 36.2913C49.5908 36.302 49.6592 36.1991 49.6834 36.0617C49.7077 35.9243 49.6786 35.8043 49.6184 35.7936Z" fill="#EB0065"/>
<path fill-rule="evenodd" clip-rule="evenodd" d="M68.4827 38.668C68.4522 38.6626 68.4193 38.6867 68.3914 38.7295L68.1349 38.6843C68.1356 38.6655 68.1362 38.6464 68.1362 38.6272C68.1362 38.6081 68.1356 38.5891 68.1349 38.57L68.3914 38.5248C68.4193 38.5678 68.4522 38.592 68.4827 38.5865C68.5427 38.576 68.572 38.4558 68.5476 38.3184C68.5235 38.181 68.4551 38.0781 68.395 38.0888C68.3643 38.0941 68.342 38.1278 68.3302 38.1777L68.0739 38.2229C68.0625 38.1865 68.0494 38.1507 68.0349 38.1157L68.2601 37.9855C68.3011 38.0162 68.3402 38.0276 68.367 38.0122C68.4199 37.9815 68.4062 37.8588 68.3364 37.7379C68.2667 37.6171 68.1672 37.5439 68.1144 37.5744C68.0873 37.59 68.0779 37.6294 68.0841 37.6802L67.8584 37.8105C67.8352 37.7802 67.8107 37.7512 67.7849 37.7231L67.9525 37.5234C68.0015 37.5383 68.0419 37.5357 68.0621 37.512C68.1011 37.4653 68.0463 37.3546 67.9394 37.2649C67.8325 37.1751 67.7141 37.1402 67.6747 37.1871C67.6548 37.2108 67.6593 37.2513 67.6826 37.2969L67.5152 37.4963C67.4831 37.476 67.45 37.457 67.4161 37.4392L67.5052 37.1945C67.5562 37.1918 67.5936 37.1754 67.6041 37.1464C67.625 37.089 67.5357 37.0037 67.4047 36.956C67.2734 36.9082 67.15 36.9161 67.1293 36.9736C67.1186 37.0026 67.1366 37.0389 67.1741 37.074L67.085 37.3186C67.0482 37.3105 67.0106 37.3039 66.9725 37.2989V37.0384C67.0195 37.0184 67.0491 36.9903 67.0491 36.9593C67.0491 36.8983 66.9358 36.8489 66.7962 36.8489C66.6566 36.8489 66.5434 36.8983 66.5434 36.9593C66.5434 36.9903 66.573 37.0184 66.62 37.0384V37.2989C66.5819 37.3039 66.5445 37.3105 66.5074 37.3186L66.4185 37.074C66.4559 37.0389 66.4739 37.0026 66.4633 36.9736C66.4425 36.9161 66.319 36.9082 66.188 36.956C66.0569 37.0037 65.9674 37.089 65.9883 37.1464C65.9988 37.1754 66.0361 37.1918 66.0874 37.1945L66.1764 37.4392C66.1424 37.457 66.1094 37.476 66.0773 37.4963L65.9099 37.2969C65.9331 37.2513 65.9377 37.2108 65.9177 37.1871C65.8785 37.1402 65.76 37.1751 65.6531 37.2649C65.5462 37.3546 65.4913 37.4653 65.5305 37.512C65.5505 37.5357 65.591 37.5383 65.64 37.5234L65.8075 37.7231C65.7818 37.7512 65.7573 37.7802 65.734 37.8105L65.5084 37.6802C65.5146 37.6294 65.5051 37.59 65.4781 37.5744C65.4253 37.5439 65.3258 37.6171 65.2561 37.7379C65.1862 37.8588 65.1726 37.9815 65.2254 38.0122C65.2523 38.0276 65.2913 38.0162 65.3323 37.9855L65.5576 38.1157C65.5432 38.1507 65.53 38.1865 65.5186 38.2229L65.2623 38.1777C65.2506 38.1278 65.2281 38.0941 65.1975 38.0888C65.1374 38.0781 65.069 38.181 65.0448 38.3184C65.0207 38.4558 65.0497 38.576 65.1098 38.5865C65.1405 38.592 65.1731 38.5678 65.2011 38.5248L65.4578 38.57C65.4568 38.5891 65.4563 38.6081 65.4563 38.6272C65.4563 38.6464 65.4568 38.6655 65.4578 38.6843L65.2011 38.7295C65.1731 38.6867 65.1405 38.6626 65.1098 38.668C65.0497 38.6785 65.0207 38.7987 65.0448 38.9361C65.069 39.0735 65.1374 39.1764 65.1975 39.1657C65.2281 39.1603 65.2506 39.1265 65.2623 39.0766L65.5186 39.0314C65.53 39.0681 65.5432 39.1038 65.5576 39.1389L65.3323 39.269C65.2913 39.2383 65.2523 39.2269 65.2254 39.2423C65.1726 39.2728 65.1862 39.3955 65.2561 39.5164C65.3258 39.6373 65.4253 39.7106 65.4781 39.6801C65.5051 39.6645 65.5146 39.6249 65.5084 39.5741L65.734 39.444C65.7573 39.4741 65.7818 39.5033 65.8075 39.5315L65.64 39.7309C65.591 39.7161 65.5505 39.7188 65.5305 39.7424C65.4913 39.7892 65.5462 39.8999 65.6531 39.9896C65.76 40.0793 65.8785 40.1141 65.9177 40.0673C65.9377 40.0437 65.9331 40.0032 65.9099 39.9575L66.0773 39.758C66.1094 39.7785 66.1424 39.7976 66.1764 39.8154L66.0874 40.0599C66.0361 40.0628 65.9988 40.0789 65.9883 40.1081C65.9674 40.1655 66.0569 40.2506 66.188 40.2984C66.319 40.3463 66.4425 40.3385 66.4633 40.2809C66.4739 40.2519 66.4559 40.2154 66.4185 40.1806L66.5074 39.9357C66.5445 39.9439 66.5819 39.9506 66.62 39.9555V40.216C66.573 40.2361 66.5434 40.2641 66.5434 40.2951C66.5434 40.3563 66.6566 40.4056 66.7962 40.4056C66.9358 40.4056 67.0491 40.3563 67.0491 40.2951C67.0491 40.2641 67.0195 40.2361 66.9725 40.216V39.9555C67.0106 39.9506 67.0482 39.9439 67.085 39.9357L67.1741 40.1806C67.1366 40.2154 67.1186 40.2519 67.1293 40.2809C67.15 40.3385 67.2734 40.3463 67.4047 40.2984C67.5357 40.2506 67.625 40.1655 67.6041 40.1081C67.5936 40.0789 67.5562 40.0628 67.5052 40.0599L67.4161 39.8154C67.45 39.7976 67.4831 39.7785 67.5152 39.758L67.6826 39.9575C67.6593 40.0032 67.6548 40.0437 67.6747 40.0673C67.7141 40.1141 67.8325 40.0793 67.9394 39.9896C68.0463 39.8999 68.1011 39.7892 68.0621 39.7424C68.0419 39.7188 68.0015 39.7161 67.9525 39.7309L67.7849 39.5315C67.8107 39.5033 67.8352 39.4741 67.8584 39.444L68.0841 39.5741C68.0779 39.6249 68.0873 39.6645 68.1144 39.6801C68.1672 39.7106 68.2667 39.6373 68.3364 39.5164C68.4062 39.3955 68.4199 39.2728 68.367 39.2423C68.3402 39.2269 68.3011 39.2383 68.2601 39.269L68.0349 39.1389C68.0494 39.1038 68.0625 39.0681 68.0739 39.0314L68.3302 39.0766C68.342 39.1265 68.3643 39.1603 68.395 39.1657C68.4551 39.1764 68.5235 39.0735 68.5476 38.9361C68.572 38.7987 68.5427 38.6785 68.4827 38.668Z" fill="#EB0065"/>
<path fill-rule="evenodd" clip-rule="evenodd" d="M72.8492 33.7501C72.8187 33.7447 72.7859 33.7688 72.7579 33.8117L72.5015 33.7665C72.5022 33.7476 72.5027 33.7285 72.5027 33.7093C72.5027 33.6903 72.5022 33.6712 72.5015 33.6521L72.7579 33.6069C72.7859 33.65 72.8187 33.6741 72.8492 33.6687C72.9093 33.6581 72.9384 33.538 72.9142 33.4006C72.8901 33.2632 72.8216 33.1602 72.7616 33.1709C72.7309 33.1762 72.7084 33.21 72.6968 33.2599L72.4405 33.3051C72.429 33.2686 72.4158 33.2328 72.4014 33.1978L72.6267 33.0677C72.6677 33.0983 72.7068 33.1098 72.7336 33.0943C72.7864 33.0637 72.7728 32.941 72.7029 32.8201C72.6332 32.6992 72.5338 32.626 72.481 32.6565C72.4539 32.6721 72.4445 32.7115 72.4506 32.7625L72.225 32.8927C72.2018 32.8624 72.1773 32.8333 72.1515 32.8052L72.319 32.6055C72.368 32.6204 72.4085 32.6179 72.4285 32.5941C72.4677 32.5474 72.4129 32.4367 72.306 32.3471C72.1991 32.2572 72.0807 32.2224 72.0413 32.2692C72.0212 32.293 72.0259 32.3334 72.0491 32.379L71.8818 32.5785C71.8496 32.5582 71.8166 32.5391 71.7827 32.5213L71.8716 32.2766C71.9228 32.2739 71.9602 32.2576 71.9707 32.2285C71.9916 32.1712 71.9021 32.0859 71.7712 32.0381C71.64 31.9904 71.5166 31.9982 71.4957 32.0557C71.4852 32.0848 71.5031 32.1213 71.5405 32.1561L71.4516 32.4008C71.4146 32.3926 71.3772 32.3861 71.3391 32.381V32.1205C71.3861 32.1006 71.4157 32.0724 71.4157 32.0414C71.4157 31.9804 71.3024 31.931 71.1628 31.931C71.0232 31.931 70.91 31.9804 70.91 32.0414C70.91 32.0724 70.9395 32.1006 70.9866 32.1205V32.381C70.9484 32.3861 70.9109 32.3926 70.874 32.4008L70.7851 32.1561C70.8225 32.1213 70.8404 32.0848 70.8297 32.0557C70.809 31.9982 70.6856 31.9904 70.5544 32.0381C70.4235 32.0859 70.334 32.1712 70.3549 32.2285C70.3654 32.2576 70.4026 32.2739 70.4538 32.2766L70.5429 32.5213C70.509 32.5391 70.476 32.5582 70.4438 32.5785L70.2765 32.379C70.2997 32.3334 70.3043 32.293 70.2843 32.2692C70.2449 32.2224 70.1266 32.2572 70.0196 32.3471C69.9127 32.4367 69.8579 32.5474 69.8971 32.5941C69.9171 32.6179 69.9576 32.6204 70.0066 32.6055L70.1741 32.8052C70.1483 32.8333 70.1238 32.8624 70.1006 32.8927L69.875 32.7625C69.8811 32.7115 69.8717 32.6721 69.8447 32.6565C69.7918 32.626 69.6924 32.6992 69.6227 32.8201C69.5528 32.941 69.5392 33.0637 69.592 33.0943C69.6189 33.1098 69.6579 33.0983 69.6989 33.0677L69.9242 33.1978C69.9098 33.2328 69.8966 33.2686 69.8851 33.3051L69.6288 33.2599C69.6172 33.21 69.5947 33.1762 69.564 33.1709C69.504 33.1602 69.4355 33.2632 69.4114 33.4006C69.3872 33.538 69.4163 33.6581 69.4764 33.6687C69.5069 33.6741 69.5397 33.65 69.5677 33.6069L69.8242 33.6521C69.8234 33.6712 69.8229 33.6903 69.8229 33.7093C69.8229 33.7285 69.8234 33.7476 69.8242 33.7665L69.5677 33.8117C69.5397 33.7688 69.5069 33.7447 69.4764 33.7501C69.4163 33.7607 69.3872 33.8808 69.4114 34.0182C69.4355 34.1556 69.504 34.2586 69.564 34.2479C69.5947 34.2424 69.6172 34.2087 69.6288 34.1587L69.8851 34.1135C69.8966 34.1502 69.9098 34.186 69.9242 34.221L69.6989 34.3511C69.6579 34.3205 69.6189 34.309 69.592 34.3245C69.5392 34.3549 69.5528 34.4777 69.6227 34.5985C69.6924 34.7194 69.7918 34.7928 69.8447 34.7623C69.8717 34.7467 69.8811 34.7071 69.875 34.6563L70.1006 34.5261C70.1238 34.5562 70.1483 34.5855 70.1741 34.6136L70.0066 34.8131C69.9576 34.7982 69.9171 34.8009 69.8971 34.8245C69.8579 34.8714 69.9127 34.9821 70.0196 35.0717C70.1266 35.1614 70.2449 35.1963 70.2843 35.1494C70.3043 35.1258 70.2997 35.0854 70.2765 35.0396L70.4438 34.8401C70.476 34.8606 70.509 34.8797 70.5429 34.8975L70.454 35.142C70.4026 35.1449 70.3654 35.161 70.3549 35.1903C70.334 35.2476 70.4235 35.3329 70.5544 35.3805C70.6856 35.4284 70.809 35.4206 70.8297 35.3631C70.8404 35.334 70.8225 35.2975 70.7851 35.2627L70.874 35.0178C70.9109 35.026 70.9484 35.0327 70.9866 35.0376V35.2981C70.9395 35.3182 70.91 35.3462 70.91 35.3772C70.91 35.4384 71.0232 35.4878 71.1628 35.4878C71.3024 35.4878 71.4157 35.4384 71.4157 35.3772C71.4157 35.3462 71.3861 35.3182 71.3391 35.2981V35.0376C71.3772 35.0327 71.4146 35.026 71.4516 35.0178L71.5405 35.2627C71.5031 35.2975 71.4852 35.334 71.4957 35.3631C71.5166 35.4206 71.64 35.4284 71.7712 35.3805C71.9021 35.3329 71.9916 35.2476 71.9707 35.1903C71.9602 35.161 71.9228 35.1449 71.8716 35.142L71.7827 34.8975C71.8166 34.8797 71.8496 34.8606 71.8818 34.8401L72.0491 35.0396C72.0259 35.0854 72.0212 35.1258 72.0413 35.1494C72.0807 35.1963 72.1991 35.1614 72.306 35.0717C72.4129 34.9821 72.4677 34.8714 72.4285 34.8245C72.4085 34.8009 72.368 34.7982 72.319 34.8131L72.1515 34.6136C72.1773 34.5855 72.2018 34.5562 72.225 34.5261L72.4506 34.6563C72.4445 34.7071 72.4539 34.7467 72.481 34.7623C72.5338 34.7928 72.6332 34.7194 72.7029 34.5985C72.7728 34.4777 72.7864 34.3549 72.7336 34.3245C72.7068 34.309 72.6677 34.3205 72.6267 34.3511L72.4014 34.221C72.4158 34.186 72.429 34.1502 72.4405 34.1135L72.6968 34.1587C72.7084 34.2087 72.7309 34.2424 72.7616 34.2479C72.8216 34.2586 72.8901 34.1556 72.9142 34.0182C72.9384 33.8808 72.9093 33.7607 72.8492 33.7501Z" fill="#EB0065"/>
<path fill-rule="evenodd" clip-rule="evenodd" d="M78.8278 40.774C78.7973 40.7686 78.7645 40.7927 78.7365 40.8355L78.48 40.7904C78.4808 40.7715 78.4813 40.7524 78.4813 40.7332C78.4813 40.7141 78.4808 40.6951 78.48 40.676L78.7365 40.6308C78.7645 40.6738 78.7973 40.698 78.8278 40.6925C78.8879 40.6818 78.9169 40.5618 78.8928 40.4244C78.8687 40.2868 78.8002 40.1841 78.7401 40.1948C78.7095 40.2001 78.687 40.2338 78.6753 40.2837L78.419 40.3289C78.4076 40.2925 78.3944 40.2567 78.38 40.2217L78.6053 40.0915C78.6463 40.1222 78.6853 40.1336 78.7122 40.1182C78.765 40.0875 78.7514 39.9648 78.6815 39.8439C78.6118 39.7231 78.5123 39.6499 78.4595 39.6804C78.4325 39.696 78.423 39.7354 78.4292 39.7862L78.2036 39.9165C78.1804 39.8862 78.1559 39.8572 78.1301 39.8291L78.2976 39.6294C78.3466 39.6443 78.3871 39.6417 78.4071 39.618C78.4463 39.5713 78.3915 39.4606 78.2845 39.3709C78.1776 39.2811 78.0593 39.2462 78.0199 39.2931C77.9998 39.3168 78.0045 39.3573 78.0277 39.4029L77.8604 39.6024C77.8282 39.582 77.7952 39.563 77.7612 39.5452L77.8502 39.3005C77.9014 39.2978 77.9388 39.2814 77.9493 39.2524C77.9702 39.195 77.8807 39.1097 77.7498 39.062C77.6186 39.0142 77.4952 39.0221 77.4743 39.0796C77.4637 39.1086 77.4817 39.1449 77.5191 39.18L77.4302 39.4246C77.3931 39.4165 77.3557 39.4099 77.3176 39.4049V39.1444C77.3646 39.1244 77.3942 39.0963 77.3942 39.0653C77.3942 39.0043 77.281 38.9549 77.1414 38.9549C77.0018 38.9549 76.8885 39.0043 76.8885 39.0653C76.8885 39.0963 76.9181 39.1244 76.9651 39.1444V39.4049C76.927 39.4099 76.8894 39.4165 76.8526 39.4246L76.7637 39.18C76.801 39.1449 76.819 39.1086 76.8083 39.0796C76.7876 39.0221 76.6642 39.0142 76.533 39.062C76.4021 39.1097 76.3126 39.195 76.3335 39.2524C76.344 39.2814 76.3812 39.2978 76.4324 39.3005L76.5215 39.5452C76.4876 39.563 76.4545 39.582 76.4224 39.6024L76.2551 39.4029C76.2783 39.3573 76.2828 39.3168 76.2629 39.2931C76.2235 39.2462 76.1051 39.2811 75.9982 39.3709C75.8913 39.4606 75.8365 39.5713 75.8757 39.618C75.8957 39.6417 75.9361 39.6443 75.9851 39.6294L76.1527 39.8291C76.1269 39.8572 76.1024 39.8862 76.0792 39.9165L75.8536 39.7862C75.8597 39.7354 75.8503 39.696 75.8232 39.6804C75.7704 39.6499 75.6709 39.7231 75.6012 39.8439C75.5314 39.9648 75.5178 40.0875 75.5706 40.1182C75.5974 40.1336 75.6365 40.1222 75.6775 40.0915L75.9027 40.2217C75.8884 40.2567 75.8752 40.2925 75.8637 40.3289L75.6074 40.2837C75.5956 40.2338 75.5733 40.2001 75.5426 40.1948C75.4825 40.1841 75.4141 40.2868 75.39 40.4244C75.3658 40.5618 75.3949 40.6818 75.4549 40.6925C75.4854 40.698 75.5183 40.6738 75.5462 40.6308L75.8027 40.676C75.802 40.6951 75.8015 40.7141 75.8015 40.7332C75.8015 40.7524 75.802 40.7715 75.8027 40.7904L75.5462 40.8355C75.5183 40.7927 75.4854 40.7686 75.4549 40.774C75.3949 40.7845 75.3658 40.9045 75.39 41.0421C75.4141 41.1795 75.4825 41.2822 75.5426 41.2717C75.5733 41.2663 75.5956 41.2325 75.6074 41.1826L75.8637 41.1374C75.8752 41.1741 75.8884 41.2098 75.9027 41.2449L75.6775 41.375C75.6365 41.3443 75.5974 41.3329 75.5706 41.3483C75.5178 41.3788 75.5314 41.5015 75.6012 41.6224C75.6709 41.7433 75.7704 41.8166 75.8232 41.7861C75.8503 41.7705 75.8597 41.7309 75.8536 41.6801L76.0792 41.5498C76.1024 41.5801 76.1269 41.6093 76.1527 41.6375L75.9851 41.837C75.9361 41.8221 75.8957 41.8248 75.8757 41.8484C75.8365 41.8952 75.8913 42.0059 75.9982 42.0956C76.1051 42.1853 76.2235 42.2201 76.2629 42.1733C76.2828 42.1495 76.2783 42.1092 76.2551 42.0635L76.4224 41.864C76.4545 41.8845 76.4876 41.9036 76.5215 41.9214L76.4324 42.1659C76.3812 42.1688 76.344 42.1849 76.3335 42.2141C76.3126 42.2715 76.4021 42.3566 76.533 42.4044C76.6642 42.4523 76.7876 42.4443 76.8083 42.3869C76.819 42.3579 76.801 42.3214 76.7637 42.2864L76.8526 42.0417C76.8894 42.0499 76.927 42.0566 76.9651 42.0615V42.322C76.9181 42.3421 76.8885 42.3701 76.8885 42.4011C76.8885 42.4623 77.0018 42.5116 77.1414 42.5116C77.281 42.5116 77.3942 42.4623 77.3942 42.4011C77.3942 42.3701 77.3646 42.3421 77.3176 42.322V42.0615C77.3557 42.0566 77.3931 42.0499 77.4302 42.0417L77.5191 42.2864C77.4817 42.3214 77.4637 42.3579 77.4743 42.3869C77.4952 42.4443 77.6186 42.4523 77.7498 42.4044C77.8807 42.3566 77.9702 42.2715 77.9493 42.2141C77.9388 42.1849 77.9014 42.1688 77.8502 42.1659L77.7612 41.9214C77.7952 41.9036 77.8282 41.8845 77.8604 41.864L78.0277 42.0635C78.0045 42.1092 77.9998 42.1495 78.0199 42.1733C78.0593 42.2201 78.1776 42.1853 78.2845 42.0956C78.3915 42.0059 78.4463 41.8952 78.4071 41.8484C78.3871 41.8248 78.3466 41.8221 78.2976 41.837L78.1301 41.6375C78.1559 41.6093 78.1804 41.5801 78.2036 41.5498L78.4292 41.6801C78.423 41.7309 78.4325 41.7705 78.4595 41.7861C78.5123 41.8166 78.6118 41.7433 78.6815 41.6224C78.7514 41.5015 78.765 41.3788 78.7122 41.3483C78.6853 41.3329 78.6463 41.3443 78.6053 41.375L78.38 41.2449C78.3944 41.2098 78.4076 41.1741 78.419 41.1374L78.6753 41.1826C78.687 41.2325 78.7095 41.2663 78.7401 41.2717C78.8002 41.2822 78.8687 41.1795 78.8928 41.0421C78.9169 40.9045 78.8879 40.7845 78.8278 40.774Z" fill="#EB0065"/>
<path fill-rule="evenodd" clip-rule="evenodd" d="M66.1042 26.9523C65.9584 26.9265 65.8027 27.0412 65.6695 27.2458L64.4475 27.0303C64.4513 26.9399 64.4537 26.8494 64.4537 26.7582C64.4537 26.6671 64.4513 26.5764 64.4475 26.4862L65.6695 26.2707C65.8027 26.4753 65.9584 26.5898 66.1042 26.5642C66.3904 26.5136 66.5291 25.9422 66.4137 25.2876C66.2982 24.6331 65.9724 24.1432 65.6862 24.1938C65.5406 24.2194 65.4335 24.3804 65.3781 24.6182L64.1578 24.8333C64.103 24.6594 64.0406 24.4888 63.9714 24.3216L65.0447 23.7019C65.2398 23.8486 65.4253 23.9031 65.5535 23.829C65.8054 23.6838 65.7399 23.0991 65.4075 22.5237C65.0754 21.948 64.6018 21.5993 64.3501 21.7447C64.2219 21.8186 64.1763 22.0064 64.2058 22.2487L63.1312 22.869C63.0205 22.7252 62.9039 22.586 62.7814 22.4522L63.579 21.5018C63.8126 21.573 64.0054 21.5606 64.1005 21.4474C64.2874 21.2245 64.0261 20.6977 63.5171 20.2704C63.0078 19.8432 62.4436 19.6774 62.2567 19.9002C62.1616 20.0134 62.183 20.2056 62.2935 20.4233L61.4965 21.3731C61.3437 21.2758 61.1865 21.1849 61.0253 21.1007L61.4491 19.9357C61.6929 19.9227 61.87 19.8452 61.9205 19.7061C62.02 19.4329 61.5943 19.0271 60.9697 18.7998C60.3452 18.5724 59.7583 18.6098 59.6589 18.8828C59.6082 19.0218 59.6941 19.1952 59.8723 19.3618L59.4483 20.5267C59.2722 20.4881 59.0933 20.4563 58.9121 20.4327V19.1926C59.1366 19.0968 59.2766 18.9634 59.2766 18.8154C59.2766 18.5247 58.7379 18.289 58.0732 18.289C57.4085 18.289 56.8697 18.5247 56.8697 18.8154C56.8697 18.9634 57.0095 19.0968 57.234 19.1926V20.4327C57.0529 20.4563 56.8741 20.4881 56.6978 20.5267L56.2738 19.3618C56.4523 19.1952 56.5379 19.0218 56.4875 18.8828C56.388 18.6098 55.801 18.5724 55.1764 18.7998C54.5518 19.0271 54.1262 19.4329 54.2256 19.7061C54.2763 19.8452 54.4533 19.9227 54.697 19.9357L55.121 21.1007C54.9599 21.1849 54.8025 21.2758 54.6497 21.3731L53.8526 20.4233C53.9632 20.2056 53.9846 20.0134 53.8895 19.9002C53.7027 19.6774 53.1384 19.8432 52.6292 20.2704C52.1201 20.6977 51.8589 21.2245 52.0457 21.4474C52.1408 21.5606 52.3337 21.573 52.5672 21.5018L53.3647 22.4522C53.2424 22.586 53.1259 22.7252 53.015 22.869L51.9406 22.2487C51.97 22.0064 51.9242 21.8186 51.7963 21.7447C51.5445 21.5993 51.071 21.948 50.7386 22.5237C50.4063 23.0991 50.3409 23.6838 50.5927 23.829C50.7208 23.9031 50.9063 23.8486 51.1014 23.7019L52.1747 24.3216C52.1056 24.4888 52.0433 24.6594 51.9883 24.8333L50.768 24.6182C50.7128 24.3804 50.6057 24.2194 50.46 24.1938C50.1737 24.1432 49.8479 24.6331 49.7327 25.2876C49.6172 25.9422 49.7557 26.5136 50.042 26.5642C50.1877 26.5898 50.3435 26.4753 50.4767 26.2707L51.6986 26.4862C51.695 26.5764 51.6926 26.6671 51.6926 26.7582C51.6926 26.8494 51.695 26.9399 51.6986 27.0303L50.4767 27.2458C50.3435 27.0412 50.1877 26.9265 50.042 26.9523C49.7557 27.0027 49.6172 27.5743 49.7327 28.2289C49.8479 28.8834 50.1737 29.3731 50.46 29.3227C50.6057 29.2969 50.7128 29.1361 50.768 28.8983L51.9883 28.6832C52.0433 28.8571 52.1056 29.0277 52.1747 29.1947L51.1014 29.8146C50.9063 29.6677 50.7208 29.6134 50.5927 29.6873C50.3409 29.8327 50.4063 30.4172 50.7386 30.9928C51.071 31.5685 51.5445 31.9172 51.7963 31.7718C51.9242 31.6979 51.97 31.5099 51.9406 31.2677L53.015 30.6473C53.1259 30.7913 53.2424 30.9303 53.3647 31.0641L52.5672 32.0147C52.3337 31.9435 52.1408 31.9559 52.0457 32.0691C51.8589 32.2918 52.1201 32.8188 52.6292 33.246C53.1384 33.6731 53.7027 33.8391 53.8895 33.6163C53.9846 33.5029 53.9632 33.3108 53.8526 33.0932L54.6497 32.1434C54.8025 32.2407 54.9599 32.3314 55.121 32.4158L54.697 33.5808C54.4533 33.5938 54.2763 33.6713 54.2256 33.8104C54.1262 34.0835 54.5518 34.4892 55.1764 34.7167C55.801 34.9439 56.388 34.9067 56.4875 34.6335C56.5379 34.4945 56.4523 34.3213 56.2738 34.1547L56.6978 32.9898C56.8741 33.0284 57.0529 33.06 57.234 33.0838V34.3239C57.0095 34.4195 56.8697 34.5531 56.8697 34.7009C56.8697 34.9917 57.4085 35.2274 58.0732 35.2274C58.7379 35.2274 59.2766 34.9917 59.2766 34.7009C59.2766 34.5531 59.1366 34.4195 58.9121 34.3239V33.0838C59.0933 33.06 59.2722 33.0284 59.4483 32.9898L59.8723 34.1547C59.6941 34.3213 59.6082 34.4945 59.6589 34.6335C59.7583 34.9067 60.3452 34.9439 60.9697 34.7167C61.5943 34.4892 62.02 34.0835 61.9205 33.8104C61.87 33.6713 61.6929 33.5938 61.4491 33.5808L61.0253 32.4158C61.1865 32.3314 61.3437 32.2407 61.4965 32.1434L62.2935 33.0932C62.183 33.3108 62.1616 33.5029 62.2567 33.6163C62.4436 33.8391 63.0078 33.6731 63.5171 33.246C64.0261 32.8188 64.2874 32.2918 64.1005 32.0691C64.0054 31.9559 63.8126 31.9435 63.579 32.0147L62.7814 31.0641C62.9039 30.9303 63.0205 30.7913 63.1312 30.6473L64.2058 31.2677C64.1763 31.5099 64.2219 31.6979 64.3501 31.7718C64.6018 31.9172 65.0754 31.5685 65.4075 30.9928C65.7399 30.4172 65.8054 29.8327 65.5535 29.6873C65.4253 29.6134 65.2398 29.6677 65.0447 29.8146L63.9714 29.1947C64.0406 29.0277 64.103 28.8571 64.1578 28.6832L65.3781 28.8983C65.4335 29.1361 65.5406 29.2969 65.6862 29.3227C65.9724 29.3731 66.2982 28.8834 66.4137 28.2289C66.5291 27.5743 66.3904 27.0027 66.1042 26.9523Z" fill="#EB0065"/>
<path fill-rule="evenodd" clip-rule="evenodd" d="M41.548 68.2975C41.4407 68.2786 41.3262 68.3628 41.228 68.5135L40.3284 68.3548C40.3311 68.2884 40.3329 68.2218 40.3329 68.1546C40.3329 68.0874 40.3311 68.0208 40.3284 67.9542L41.228 67.7956C41.3262 67.9462 41.4407 68.0306 41.548 68.0118C41.7589 67.9745 41.8609 67.5538 41.7758 67.0719C41.6908 66.59 41.451 66.2293 41.2403 66.2665C41.133 66.2856 41.0541 66.4039 41.0136 66.5791L40.1151 66.7374C40.0746 66.6094 40.0287 66.4838 39.9779 66.3607L40.768 65.9044C40.9116 66.0124 41.0483 66.0525 41.1427 65.9981C41.328 65.891 41.2799 65.4608 41.0352 65.0369C40.7905 64.6131 40.4418 64.3565 40.2565 64.4634C40.1621 64.5178 40.1285 64.6561 40.1503 64.8346L39.3593 65.2912C39.2776 65.1852 39.1919 65.083 39.1017 64.9845L39.6889 64.2848C39.8608 64.337 40.0029 64.328 40.0728 64.2445C40.2104 64.0806 40.0182 63.6927 39.6432 63.3781C39.2684 63.0635 38.8529 62.9416 38.7155 63.1055C38.6454 63.1888 38.6612 63.3304 38.7425 63.4906L38.1557 64.1898C38.0431 64.1183 37.9273 64.0513 37.8086 63.9893L38.1208 63.1316C38.3002 63.122 38.4307 63.065 38.4679 62.9626C38.5412 62.7613 38.2277 62.4627 37.768 62.2954C37.308 62.128 36.876 62.1554 36.8027 62.3565C36.7655 62.4587 36.8286 62.5865 36.9601 62.709L36.6477 63.5669C36.5181 63.5382 36.3865 63.515 36.2531 63.4975V62.5845C36.4184 62.5141 36.5213 62.4159 36.5213 62.307C36.5213 62.0928 36.1247 61.9193 35.6354 61.9193C35.146 61.9193 34.7492 62.0928 34.7492 62.307C34.7492 62.4159 34.8523 62.5141 35.0175 62.5845V63.4975C34.8841 63.515 34.7525 63.5382 34.6229 63.5669L34.3107 62.709C34.4419 62.5865 34.5051 62.4587 34.4679 62.3565C34.3947 62.1554 33.9626 62.128 33.5028 62.2954C33.043 62.4627 32.7295 62.7613 32.8027 62.9626C32.8399 63.065 32.9704 63.122 33.1497 63.1316L33.462 63.9893C33.3432 64.0513 33.2274 64.1183 33.1149 64.1898L32.5281 63.4906C32.6096 63.3304 32.6252 63.1888 32.5553 63.1055C32.4177 62.9416 32.0022 63.0635 31.6274 63.3781C31.2526 63.6927 31.0602 64.0806 31.1978 64.2445C31.2678 64.328 31.4098 64.337 31.5817 64.2848L32.1689 64.9845C32.0788 65.083 31.993 65.1852 31.9115 65.2912L31.1203 64.8346C31.142 64.6561 31.1085 64.5178 31.0141 64.4634C30.8287 64.3565 30.4801 64.6131 30.2354 65.0369C29.9909 65.4608 29.9426 65.891 30.1281 65.9981C30.2223 66.0525 30.359 66.0124 30.5026 65.9044L31.2927 66.3607C31.2419 66.4838 31.1959 66.6094 31.1557 66.7374L30.2572 66.5791C30.2165 66.4039 30.1375 66.2856 30.0303 66.2665C29.8195 66.2293 29.5798 66.59 29.4948 67.0719C29.4099 67.5538 29.5119 67.9745 29.7226 68.0118C29.8299 68.0306 29.9446 67.9462 30.0426 67.7956L30.9424 67.9542C30.9395 68.0208 30.9378 68.0874 30.9378 68.1546C30.9378 68.2218 30.9395 68.2884 30.9424 68.3548L30.0426 68.5135C29.9446 68.3628 29.8299 68.2786 29.7226 68.2975C29.5119 68.3347 29.4099 68.7554 29.4948 69.2373C29.5798 69.7192 29.8195 70.0797 30.0303 70.0425C30.1375 70.0236 30.2165 69.9051 30.2572 69.7301L31.1557 69.5717C31.1959 69.6998 31.2419 69.8254 31.2927 69.9485L30.5026 70.4046C30.359 70.2966 30.2223 70.2565 30.1281 70.311C29.9426 70.4181 29.9909 70.8484 30.2354 71.2723C30.4801 71.6959 30.8287 71.9528 31.0141 71.8457C31.1085 71.7912 31.142 71.6529 31.1203 71.4745L31.9115 71.0178C31.993 71.1238 32.0788 71.2262 32.1689 71.3247L31.5817 72.0245C31.4098 71.9722 31.2678 71.9811 31.1978 72.0646C31.0602 72.2285 31.2526 72.6164 31.6274 72.9309C32.0022 73.2455 32.4177 73.3676 32.5553 73.2036C32.6252 73.1202 32.6096 72.9788 32.5281 72.8186L33.1149 72.1192C33.2274 72.1909 33.3432 72.2577 33.462 72.3198L33.1497 73.1774C32.9704 73.187 32.8399 73.2442 32.8027 73.3464C32.7295 73.5477 33.043 73.8463 33.5028 74.0138C33.9626 74.1812 34.3947 74.1538 34.4679 73.9527C34.5051 73.8503 34.4419 73.7227 34.3107 73.6L34.6229 72.7423C34.7525 72.7708 34.8841 72.7941 35.0175 72.8117V73.7247C34.8523 73.7951 34.7492 73.8933 34.7492 74.0022C34.7492 74.2162 35.146 74.3897 35.6354 74.3897C36.1247 74.3897 36.5213 74.2162 36.5213 74.0022C36.5213 73.8933 36.4184 73.7951 36.2531 73.7247V72.8117C36.3865 72.7941 36.5181 72.7708 36.6477 72.7423L36.9601 73.6C36.8286 73.7227 36.7655 73.8503 36.8027 73.9527C36.876 74.1538 37.308 74.1812 37.768 74.0138C38.2277 73.8463 38.5412 73.5477 38.4679 73.3464C38.4307 73.2442 38.3002 73.187 38.1208 73.1774L37.8086 72.3198C37.9273 72.2577 38.0431 72.1909 38.1557 72.1192L38.7425 72.8186C38.6612 72.9788 38.6454 73.1202 38.7155 73.2036C38.8529 73.3676 39.2684 73.2455 39.6432 72.9309C40.0182 72.6164 40.2104 72.2285 40.0728 72.0646C40.0029 71.9811 39.8608 71.9722 39.6889 72.0245L39.1017 71.3247C39.1919 71.2262 39.2776 71.1238 39.3593 71.0178L40.1503 71.4745C40.1285 71.6529 40.1621 71.7912 40.2565 71.8457C40.4418 71.9528 40.7905 71.6959 41.0352 71.2723C41.2799 70.8484 41.328 70.4181 41.1427 70.311C41.0483 70.2565 40.9116 70.2966 40.768 70.4046L39.9779 69.9485C40.0287 69.8254 40.0746 69.6998 40.1151 69.5717L41.0136 69.7301C41.0541 69.9051 41.133 70.0236 41.2403 70.0425C41.451 70.0797 41.6908 69.7192 41.7758 69.2373C41.8609 68.7554 41.7589 68.3347 41.548 68.2975Z" fill="#EB0065"/>
</g>
</svg>
